M48
;Layer_Color=9474304
;FILE_FORMAT=2:5
INCH,TZ
;TYPE=PLATED
T1F00S00C0.01500
T4F00S00C0.02756
T5F00S00C0.03150
T6F00S00C0.03543
T7F00S00C0.04331
;TYPE=NON_PLATED
T8F00S00C0.04331
T9F00S00C0.05906
%
T01
X6595Y27007
X19343
X34000Y31578
X39870Y16472
X39370Y8537
X31496Y12481
X60658Y31578
X84395Y52816
X92746Y47539
X115968Y53000
X142000
X142215Y45636
X149500Y37000
X162000Y30000
X169000Y13000
X184000Y10259
Y6500
X195000Y14000
X195067Y41750
X191500Y43850
X186000Y43500
X183000Y46039
X193000Y53051
X200500Y46500
X210000
X209500Y36500
X205000
X130500Y28500
X125000Y32500
X119500Y28500
X225661Y32500
X231000Y46260
X224500Y53051
X255500Y50961
X259000Y51000
X262795Y51037
X270000Y46260
X274000
X291500Y43000
X298000
X309004Y46500
X317823Y47500
X318000Y51037
X308770Y34000
X301038Y22996
X298000
X310000Y12000
Y9000
X326000Y8000
X323000Y5000
X351500Y9000
X350000Y16472
X346004
X360500Y9000
X353500Y49500
X349000
X351000Y52816
X346500
X250256Y36500
Y27559
X255500Y12000
X264902
X244094Y11811
X379500Y42128
X383500
X387500
X427000Y23132
X432500Y17500
X437475
X442000
Y21621
X469949Y24000
X487000Y18189
Y14000
Y9319
X495863Y26374
X505216Y26500
X483500Y48500
X482000Y51496
X476772Y51763
X478000Y48500
X473504Y48610
X463301Y56558
Y60584
X460000Y58776
X456500Y60632
Y56558
X450289Y89567
Y95368
X432500Y98500
X433000Y103842
X432425Y123572
X432531Y127953
X451000Y131645
X454000Y136000
X452713Y149606
X467612Y150885
X437008
X416000Y111000
X413500Y107500
X410240Y99650
X411137Y78366
Y70000
X405512Y73476
X389472Y83855
X385827Y90842
X393701Y91051
X370079Y92169
Y85735
X467126Y89393
X488500Y106000
X491000Y110000
X499239Y119245
X498694Y66929
X361000Y82500
X362000Y92500
X362500Y97000
X362000Y110395
X361000Y122047
X342520Y143000
X343000Y151385
X321067Y140500
X314345
X314000Y134500
X310000
X306500
X299500Y140500
X278637
X269500Y111850
Y107500
X265000Y111850
X260500Y112000
X257500Y110000
X254500Y112000
X252000Y109472
X242284Y112500
X238232Y114768
X235740Y102500
X231166Y99650
X225630Y97000
X222980Y93524
X225630Y79500
X225538Y70000
X227500Y66000
X240000Y65945
X253000Y63000
X256890Y62890
X260827Y63000
X254000Y69500
X264500Y76000
X262795Y90815
X267000Y90551
X270669Y92169
X261000Y94000
X255500Y93500
X251000
X284000Y86500
X285574Y83266
X295532Y78000
X300000Y66732
X306341Y57390
X318020Y54500
X328500Y63000
X332000Y66000
X328500Y74500
Y84500
Y89567
X337500Y82000
X312000Y92169
X289469Y96469
X294500Y108000
X317019Y115981
X317000Y120000
X285000Y65000
X271630Y65945
X221000Y59500
X214968
X210630Y70000
X210500Y79500
X210500Y114122
X213968Y152310
X224732
X165354Y150000
X163500Y154500
X149500
X138500Y150000
X147468Y132500
X158000Y115392
X158500Y99650
X169000Y99742
X183500Y105626
X195067Y104500
X200500Y73819
X195000Y64000
X190000Y58710
X209968Y55345
X156000Y60254
Y67254
X142000
Y60039
X120500Y72500
Y82500
X100803Y78000
X90500Y70866
X83895Y96469
X70866Y94598
X59000Y92500
X76318Y105626
X91000Y105717
X123000Y106500
X130500
X120500Y122500
X47000Y108000
Y97000
X47000Y87598
X39370Y63390
X26417Y62890
X21654Y124500
X39370Y133858
X35433Y144052
X47244Y144200
T04
X240441Y32000
X259653
T05
X103000Y29000
Y49000
T06
X51181Y7874
X59055
X66929
X90551
X98425
X106299
X114173
X122047
X129921
X137795
X145669
X153543
X444882
X452756
X460630
X335630Y125937
X325630
X315630
X300630
X290630
X280630
X270630
X260630
X245630
X235630
X225630
X210630
X200630
X190630
T07
X25591Y86614
Y106299
T08
X165354Y116962
T09
X165453Y87598
M30
