G04*
G04 #@! TF.GenerationSoftware,Altium Limited,Altium Designer,18.1.7 (191)*
G04*
G04 Layer_Color=16711935*
%FSLAX25Y25*%
%MOIN*%
G70*
G01*
G75*
%ADD28R,0.04461X0.04658*%
%ADD50C,0.03950*%
%ADD51O,0.06706X0.05131*%
%ADD52O,0.07493X0.05131*%
%ADD53O,0.05131X0.10249*%
%ADD54O,0.04737X0.03950*%
%ADD55C,0.06706*%
%ADD56R,0.06706X0.06706*%
%ADD57C,0.06312*%
%ADD58C,0.05131*%
%ADD59C,0.00800*%
%ADD60O,0.05918X0.07099*%
D28*
X152969Y154000D02*
D03*
X159031D02*
D03*
D50*
X467126Y70472D02*
D03*
X462795D02*
D03*
X458465D02*
D03*
X462795Y75984D02*
D03*
X458465D02*
D03*
X454134D02*
D03*
D51*
X456693Y103858D02*
D03*
X464567D02*
D03*
D52*
X446850D02*
D03*
X474409D02*
D03*
D53*
X485827Y90551D02*
D03*
X435433D02*
D03*
D54*
X444488Y70472D02*
D03*
Y75984D02*
D03*
X476772D02*
D03*
Y70472D02*
D03*
X471850Y75984D02*
D03*
Y70472D02*
D03*
X449409D02*
D03*
Y75984D02*
D03*
D55*
X103000Y29000D02*
D03*
Y49000D02*
D03*
X235630Y125937D02*
D03*
X225630D02*
D03*
X165453Y87598D02*
D03*
X260630Y125937D02*
D03*
X270630D02*
D03*
X280630D02*
D03*
X290630D02*
D03*
X325630D02*
D03*
X315630D02*
D03*
X200630D02*
D03*
X190630D02*
D03*
D56*
X245630D02*
D03*
X300630D02*
D03*
X335630D02*
D03*
X210630D02*
D03*
D57*
X240441Y32000D02*
D03*
X259653D02*
D03*
D58*
X165354Y116962D02*
D03*
D59*
X25591Y106299D02*
D03*
Y86614D02*
D03*
D60*
X122047Y7874D02*
D03*
X106299D02*
D03*
X114173D02*
D03*
X129921D02*
D03*
X137795D02*
D03*
X145669D02*
D03*
X153543D02*
D03*
X98425D02*
D03*
X90551D02*
D03*
X59055D02*
D03*
X51181D02*
D03*
X444882D02*
D03*
X66929D02*
D03*
X452756D02*
D03*
X460630D02*
D03*
M02*
