G04*
G04 #@! TF.GenerationSoftware,Altium Limited,Altium Designer,18.1.7 (191)*
G04*
G04 Layer_Color=8388736*
%FSLAX25Y25*%
%MOIN*%
G70*
G01*
G75*
%ADD21R,0.05721X0.04737*%
G04:AMPARAMS|DCode=22|XSize=59.18mil|YSize=165.48mil|CornerRadius=16.8mil|HoleSize=0mil|Usage=FLASHONLY|Rotation=90.000|XOffset=0mil|YOffset=0mil|HoleType=Round|Shape=RoundedRectangle|*
%AMROUNDEDRECTD22*
21,1,0.05918,0.13189,0,0,90.0*
21,1,0.02559,0.16548,0,0,90.0*
1,1,0.03359,0.06594,0.01280*
1,1,0.03359,0.06594,-0.01280*
1,1,0.03359,-0.06594,-0.01280*
1,1,0.03359,-0.06594,0.01280*
%
%ADD22ROUNDEDRECTD22*%
%ADD23R,0.13202X0.07099*%
%ADD24R,0.04658X0.04461*%
%ADD25R,0.05249X0.07887*%
%ADD26R,0.06587X0.05367*%
%ADD27O,0.07887X0.03556*%
%ADD28R,0.04461X0.04658*%
%ADD29R,0.05367X0.06587*%
%ADD30R,0.08674X0.08674*%
%ADD31O,0.03556X0.07887*%
%ADD32R,0.03556X0.05721*%
%ADD33R,0.05721X0.03556*%
%ADD34R,0.08674X0.08674*%
%ADD35R,0.04737X0.03162*%
%ADD36R,0.06306X0.10243*%
%ADD37R,0.03156X0.01975*%
%ADD38O,0.10642X0.04737*%
%ADD39O,0.07487X0.01502*%
%ADD40O,0.01502X0.07487*%
%ADD41R,0.07493X0.04737*%
%ADD42O,0.07887X0.04737*%
G04:AMPARAMS|DCode=43|XSize=106.42mil|YSize=244.22mil|CornerRadius=0mil|HoleSize=0mil|Usage=FLASHONLY|Rotation=0.000|XOffset=0mil|YOffset=0mil|HoleType=Round|Shape=Octagon|*
%AMOCTAGOND43*
4,1,8,-0.02661,0.12211,0.02661,0.12211,0.05321,0.09550,0.05321,-0.09550,0.02661,-0.12211,-0.02661,-0.12211,-0.05321,-0.09550,-0.05321,0.09550,-0.02661,0.12211,0.0*
%
%ADD43OCTAGOND43*%

%ADD44O,0.10642X0.24422*%
%ADD45R,0.08674X0.07887*%
%ADD46R,0.07099X0.07887*%
%ADD47R,0.03162X0.05131*%
%ADD48R,0.09461X0.04737*%
%ADD49R,0.09461X0.14580*%
%ADD50C,0.03950*%
%ADD51O,0.06706X0.05131*%
%ADD52O,0.07493X0.05131*%
%ADD53O,0.05131X0.10249*%
%ADD54O,0.04737X0.03950*%
%ADD55C,0.06706*%
%ADD56R,0.06706X0.06706*%
%ADD57C,0.06312*%
%ADD58C,0.05131*%
%ADD59C,0.00800*%
%ADD60O,0.05918X0.07099*%
D21*
X292307Y9319D02*
D03*
X280693D02*
D03*
X166492Y45636D02*
D03*
X178106D02*
D03*
D22*
X285500Y28819D02*
D03*
Y18189D02*
D03*
D23*
X377146Y61000D02*
D03*
X357854D02*
D03*
X377146Y31578D02*
D03*
X357854D02*
D03*
D24*
X390500Y35663D02*
D03*
Y29600D02*
D03*
X423500Y58663D02*
D03*
Y52600D02*
D03*
X130500Y102532D02*
D03*
Y96469D02*
D03*
X178606Y32105D02*
D03*
Y38168D02*
D03*
X185606Y32105D02*
D03*
Y38168D02*
D03*
X195000Y5162D02*
D03*
Y11225D02*
D03*
X291500Y46468D02*
D03*
Y52531D02*
D03*
X285000Y46468D02*
D03*
Y52531D02*
D03*
X278500Y46468D02*
D03*
Y52531D02*
D03*
X346500Y133167D02*
D03*
Y127104D02*
D03*
X345500Y98469D02*
D03*
Y104532D02*
D03*
X298004Y52445D02*
D03*
Y46382D02*
D03*
X304500Y46468D02*
D03*
Y52531D02*
D03*
X235500Y111768D02*
D03*
Y105705D02*
D03*
X437159Y51763D02*
D03*
Y45700D02*
D03*
X430500Y51763D02*
D03*
Y45700D02*
D03*
D25*
X401866Y61632D02*
D03*
X390134D02*
D03*
X456933Y19250D02*
D03*
X445201D02*
D03*
X390134Y20500D02*
D03*
X401866D02*
D03*
X445201Y55845D02*
D03*
X456933D02*
D03*
D26*
X391551Y49136D02*
D03*
Y42128D02*
D03*
X123000Y95354D02*
D03*
Y102362D02*
D03*
X345500Y113496D02*
D03*
Y120504D02*
D03*
X482000Y51496D02*
D03*
Y58504D02*
D03*
X333500Y35628D02*
D03*
Y42636D02*
D03*
X299500Y22996D02*
D03*
Y30004D02*
D03*
D27*
X400764Y45632D02*
D03*
Y40632D02*
D03*
Y35632D02*
D03*
Y30632D02*
D03*
X421236Y45632D02*
D03*
Y40632D02*
D03*
Y35632D02*
D03*
Y30632D02*
D03*
D28*
X417031Y52132D02*
D03*
X410968D02*
D03*
X415469Y23132D02*
D03*
X421531D02*
D03*
X463886Y54500D02*
D03*
X469949D02*
D03*
X464035Y20531D02*
D03*
X470098D02*
D03*
X458163Y123572D02*
D03*
X464226D02*
D03*
X458163Y129572D02*
D03*
X464226D02*
D03*
X458163Y136072D02*
D03*
X464226D02*
D03*
X197598Y117717D02*
D03*
X203661D02*
D03*
X153532Y145000D02*
D03*
X147468D02*
D03*
X153532Y138000D02*
D03*
X147468D02*
D03*
X145531Y16500D02*
D03*
X139469D02*
D03*
X146000Y60254D02*
D03*
X152063D02*
D03*
X146000Y67254D02*
D03*
X152063D02*
D03*
X346500Y77000D02*
D03*
X340437D02*
D03*
X346532Y71000D02*
D03*
X340469D02*
D03*
X214968Y79500D02*
D03*
X221031D02*
D03*
X214968Y70000D02*
D03*
X221031D02*
D03*
X214968Y63779D02*
D03*
X221031D02*
D03*
X214968Y53000D02*
D03*
X221031D02*
D03*
X214968Y46409D02*
D03*
X221031D02*
D03*
X295532Y92520D02*
D03*
X289469D02*
D03*
X295976Y66732D02*
D03*
X289913D02*
D03*
X265732Y46260D02*
D03*
X259669D02*
D03*
X246953D02*
D03*
X253016D02*
D03*
X234157D02*
D03*
X240220D02*
D03*
X152032Y53000D02*
D03*
X145968D02*
D03*
X145968Y45636D02*
D03*
X152032D02*
D03*
X445063Y123572D02*
D03*
X439000D02*
D03*
X445031Y130072D02*
D03*
X438969D02*
D03*
X290090Y73000D02*
D03*
X296153D02*
D03*
X209968Y117717D02*
D03*
X216032D02*
D03*
X199969Y79506D02*
D03*
X206031D02*
D03*
X314469Y37000D02*
D03*
X320532D02*
D03*
X430969Y38732D02*
D03*
X437032D02*
D03*
X307531Y37000D02*
D03*
X301468D02*
D03*
X289218D02*
D03*
X295282D02*
D03*
X327532Y27000D02*
D03*
X321468D02*
D03*
X321468Y18500D02*
D03*
X327532D02*
D03*
D29*
X437599Y30720D02*
D03*
X430591D02*
D03*
X90996Y17000D02*
D03*
X98004D02*
D03*
X346504Y60632D02*
D03*
X339496D02*
D03*
X346004Y26000D02*
D03*
X338996D02*
D03*
X309504Y10000D02*
D03*
X302496D02*
D03*
D30*
X499239Y60039D02*
D03*
Y83661D02*
D03*
Y125984D02*
D03*
Y102362D02*
D03*
X344000Y35232D02*
D03*
Y51768D02*
D03*
D31*
X215500Y108236D02*
D03*
X210500D02*
D03*
X205500D02*
D03*
X200500D02*
D03*
X215500Y87764D02*
D03*
X210500D02*
D03*
X205500D02*
D03*
X200500D02*
D03*
D32*
X183740Y68553D02*
D03*
X176260D02*
D03*
X180000Y58710D02*
D03*
D33*
X171528Y31396D02*
D03*
Y38876D02*
D03*
X161685Y35136D02*
D03*
D34*
X336311Y108236D02*
D03*
X312689D02*
D03*
X278279D02*
D03*
X301902D02*
D03*
X485768Y9319D02*
D03*
X469232D02*
D03*
D35*
X302661Y74500D02*
D03*
Y79500D02*
D03*
Y84500D02*
D03*
Y89500D02*
D03*
X332583D02*
D03*
Y84500D02*
D03*
Y79500D02*
D03*
Y74500D02*
D03*
D36*
X184000Y8319D02*
D03*
D37*
X189315Y4480D02*
D03*
Y7039D02*
D03*
Y9598D02*
D03*
Y12157D02*
D03*
X178685Y4480D02*
D03*
Y7039D02*
D03*
Y9598D02*
D03*
Y12157D02*
D03*
D38*
X113012Y72500D02*
D03*
Y82500D02*
D03*
Y92500D02*
D03*
Y102500D02*
D03*
Y112500D02*
D03*
Y122500D02*
D03*
X51988D02*
D03*
Y112500D02*
D03*
Y102500D02*
D03*
Y92500D02*
D03*
Y82500D02*
D03*
Y72500D02*
D03*
D39*
X234055Y63976D02*
D03*
Y65945D02*
D03*
Y67913D02*
D03*
Y69882D02*
D03*
Y71850D02*
D03*
Y73819D02*
D03*
Y75787D02*
D03*
Y77756D02*
D03*
Y79724D02*
D03*
Y81693D02*
D03*
Y83661D02*
D03*
Y85630D02*
D03*
Y87598D02*
D03*
Y89567D02*
D03*
Y91535D02*
D03*
Y93504D02*
D03*
X277756D02*
D03*
Y91535D02*
D03*
Y89567D02*
D03*
Y87598D02*
D03*
Y85630D02*
D03*
Y83661D02*
D03*
Y81693D02*
D03*
Y79724D02*
D03*
Y77756D02*
D03*
Y75787D02*
D03*
Y73819D02*
D03*
Y71850D02*
D03*
Y69882D02*
D03*
Y67913D02*
D03*
Y65945D02*
D03*
Y63976D02*
D03*
D40*
X241142Y100591D02*
D03*
X243110D02*
D03*
X245079D02*
D03*
X247047D02*
D03*
X249016D02*
D03*
X250984D02*
D03*
X252953D02*
D03*
X254921D02*
D03*
X256890D02*
D03*
X258858D02*
D03*
X260827D02*
D03*
X262795D02*
D03*
X264764D02*
D03*
X266732D02*
D03*
X268701D02*
D03*
X270669D02*
D03*
Y56890D02*
D03*
X268701D02*
D03*
X266732D02*
D03*
X264764D02*
D03*
X262795D02*
D03*
X260827D02*
D03*
X258858D02*
D03*
X256890D02*
D03*
X254921D02*
D03*
X252953D02*
D03*
X250984D02*
D03*
X249016D02*
D03*
X247047D02*
D03*
X245079D02*
D03*
X243110D02*
D03*
X241142D02*
D03*
D41*
X77898Y21736D02*
D03*
Y41421D02*
D03*
X52307Y31578D02*
D03*
Y21621D02*
D03*
Y41306D02*
D03*
X26717Y31463D02*
D03*
D42*
X425197Y127953D02*
D03*
Y122047D02*
D03*
Y116142D02*
D03*
Y110236D02*
D03*
Y104331D02*
D03*
Y98425D02*
D03*
Y92520D02*
D03*
Y86614D02*
D03*
Y80709D02*
D03*
X354331D02*
D03*
Y86614D02*
D03*
Y92520D02*
D03*
Y98425D02*
D03*
Y104331D02*
D03*
Y110236D02*
D03*
Y116142D02*
D03*
Y122047D02*
D03*
Y127953D02*
D03*
D43*
X165354Y68504D02*
D03*
D44*
Y136221D02*
D03*
D45*
X40551Y96457D02*
D03*
Y106299D02*
D03*
Y86614D02*
D03*
D46*
X21654Y117717D02*
D03*
Y75197D02*
D03*
D47*
X306260Y17988D02*
D03*
X310000D02*
D03*
X313740D02*
D03*
Y29012D02*
D03*
X306260D02*
D03*
D48*
X449882Y46787D02*
D03*
Y37732D02*
D03*
Y28677D02*
D03*
D49*
X473504Y37732D02*
D03*
D50*
X467126Y70472D02*
D03*
X462795D02*
D03*
X458465D02*
D03*
X462795Y75984D02*
D03*
X458465D02*
D03*
X454134D02*
D03*
D51*
X456693Y103858D02*
D03*
X464567D02*
D03*
D52*
X446850D02*
D03*
X474409D02*
D03*
D53*
X485827Y90551D02*
D03*
X435433D02*
D03*
D54*
X444488Y70472D02*
D03*
Y75984D02*
D03*
X476772D02*
D03*
Y70472D02*
D03*
X471850Y75984D02*
D03*
Y70472D02*
D03*
X449409D02*
D03*
Y75984D02*
D03*
D55*
X103000Y29000D02*
D03*
Y49000D02*
D03*
X235630Y125937D02*
D03*
X225630D02*
D03*
X165453Y87598D02*
D03*
X260630Y125937D02*
D03*
X270630D02*
D03*
X280630D02*
D03*
X290630D02*
D03*
X325630D02*
D03*
X315630D02*
D03*
X200630D02*
D03*
X190630D02*
D03*
D56*
X245630D02*
D03*
X300630D02*
D03*
X335630D02*
D03*
X210630D02*
D03*
D57*
X240441Y32000D02*
D03*
X259653D02*
D03*
D58*
X165354Y116962D02*
D03*
D59*
X25591Y106299D02*
D03*
Y86614D02*
D03*
D60*
X122047Y7874D02*
D03*
X106299D02*
D03*
X114173D02*
D03*
X129921D02*
D03*
X137795D02*
D03*
X145669D02*
D03*
X153543D02*
D03*
X98425D02*
D03*
X90551D02*
D03*
X59055D02*
D03*
X51181D02*
D03*
X444882D02*
D03*
X66929D02*
D03*
X452756D02*
D03*
X460630D02*
D03*
M02*
