G04*
G04 #@! TF.GenerationSoftware,Altium Limited,Altium Designer,18.1.7 (191)*
G04*
G04 Layer_Color=32896*
%FSLAX25Y25*%
%MOIN*%
G70*
G01*
G75*
%ADD11C,0.00787*%
%ADD19C,0.00800*%
D11*
X149957Y150890D02*
X154425D01*
X162043D02*
Y157110D01*
X149957Y150890D02*
Y157110D01*
X157575Y150890D02*
X162043D01*
X149957Y157110D02*
X154425D01*
X157575D02*
X162043D01*
D19*
X23622Y15748D02*
X488189D01*
Y147638D01*
X23622D02*
X488189D01*
X23622Y15748D02*
Y147638D01*
X431496Y41339D02*
Y125984D01*
X80315Y41339D02*
X431496D01*
X80315Y125984D02*
X431496D01*
X80315Y41339D02*
Y125984D01*
X298413Y28421D02*
Y24422D01*
X294718Y27469D02*
X294909Y27850D01*
X295289Y28231D01*
X295670Y28421D01*
X296432D01*
X296813Y28231D01*
X297194Y27850D01*
X297384Y27469D01*
X297575Y26898D01*
Y25945D01*
X297384Y25374D01*
X297194Y24993D01*
X296813Y24612D01*
X296432Y24422D01*
X295670D01*
X295289Y24612D01*
X294909Y24993D01*
X294718Y25374D01*
X293595Y28421D02*
Y24422D01*
Y28421D02*
X291881D01*
X291309Y28231D01*
X291119Y28040D01*
X290929Y27659D01*
Y27279D01*
X291119Y26898D01*
X291309Y26707D01*
X291881Y26517D01*
X293595D02*
X291881D01*
X291309Y26326D01*
X291119Y26136D01*
X290929Y25755D01*
Y25184D01*
X291119Y24803D01*
X291309Y24612D01*
X291881Y24422D01*
X293595D01*
X290033Y26136D02*
X286606D01*
X285425Y27659D02*
X285044Y27850D01*
X284473Y28421D01*
Y24422D01*
X281350Y28421D02*
X281921Y28231D01*
X282302Y27659D01*
X282492Y26707D01*
Y26136D01*
X282302Y25184D01*
X281921Y24612D01*
X281350Y24422D01*
X280969D01*
X280397Y24612D01*
X280016Y25184D01*
X279826Y26136D01*
Y26707D01*
X280016Y27659D01*
X280397Y28231D01*
X280969Y28421D01*
X281350D01*
X278931D02*
Y24422D01*
Y28421D02*
X277408Y24422D01*
X275884Y28421D02*
X277408Y24422D01*
X275884Y28421D02*
Y24422D01*
X274742Y28421D02*
Y24422D01*
Y28421D02*
X273218Y24422D01*
X271694Y28421D02*
X273218Y24422D01*
X271694Y28421D02*
Y24422D01*
X270171Y28421D02*
X268076D01*
X269219Y26898D01*
X268648D01*
X268267Y26707D01*
X268076Y26517D01*
X267886Y25945D01*
Y25565D01*
X268076Y24993D01*
X268457Y24612D01*
X269028Y24422D01*
X269600D01*
X270171Y24612D01*
X270361Y24803D01*
X270552Y25184D01*
X266039Y28421D02*
X266610Y28231D01*
X266800Y27850D01*
Y27469D01*
X266610Y27088D01*
X266229Y26898D01*
X265467Y26707D01*
X264896Y26517D01*
X264515Y26136D01*
X264325Y25755D01*
Y25184D01*
X264515Y24803D01*
X264705Y24612D01*
X265277Y24422D01*
X266039D01*
X266610Y24612D01*
X266800Y24803D01*
X266991Y25184D01*
Y25755D01*
X266800Y26136D01*
X266420Y26517D01*
X265848Y26707D01*
X265086Y26898D01*
X264705Y27088D01*
X264515Y27469D01*
Y27850D01*
X264705Y28231D01*
X265277Y28421D01*
X266039D01*
X263430D02*
Y24422D01*
Y28421D02*
X261716D01*
X261144Y28231D01*
X260954Y28040D01*
X260764Y27659D01*
Y27279D01*
X260954Y26898D01*
X261144Y26707D01*
X261716Y26517D01*
X263430D02*
X261716D01*
X261144Y26326D01*
X260954Y26136D01*
X260764Y25755D01*
Y25184D01*
X260954Y24803D01*
X261144Y24612D01*
X261716Y24422D01*
X263430D01*
X258535Y28421D02*
Y24422D01*
X259869Y28421D02*
X257202D01*
X147500Y152000D02*
Y155999D01*
X145501D01*
X144834Y155332D01*
Y153999D01*
X145501Y153333D01*
X147500D01*
X146167D02*
X144834Y152000D01*
X143501Y155999D02*
Y152000D01*
X140835D01*
X487838Y154836D02*
Y150838D01*
X485839D01*
X485172Y151504D01*
Y154170D01*
X485839Y154836D01*
X487838D01*
X483839Y150838D02*
X482506D01*
X483173D01*
Y154836D01*
X483839Y154170D01*
M02*
