M48
;Layer_Color=9474304
;FILE_FORMAT=2:5
INCH,TZ
;TYPE=PLATED
T2F00S00C0.01772
T3F00S00C0.02362
;TYPE=NON_PLATED
%
G90
G05
T02
G00X444783Y70472
M15
G01X444193
M16
G00X449705Y70472
M15
G01X449114
M16
G00X449705Y75984
M15
G01X449114
M16
G00X454232Y75984
M15
G01X454036
M16
G00X458563Y75984
M15
G01X458366
M16
G00X462894Y75984
M15
G01X462697
M16
G00X462697Y70472
M15
G01X462894
M16
G00X458366Y70472
M15
G01X458563
M16
G00X467028Y70472
M15
G01X467224
M16
G00X472146Y70472
M15
G01X471555
M16
G00X477067Y70472
M15
G01X476476
M16
G00X477067Y75984
M15
G01X476476
M16
G00X472146Y75984
M15
G01X471555
M16
G00X444783Y75984
M15
G01X444193
M16
T03
G00X435433Y88189
M15
G01Y92913
M16
G00X448032Y103858
M15
G01X445669
M16
G00X457480Y103858
M15
G01X455905
M16
G00X465354Y103858
M15
G01X463779
M16
G00X475591Y103858
M15
G01X473228
M16
G00X485827Y88189
M15
G01Y92913
M16
M17
M30
