G04*
G04 #@! TF.GenerationSoftware,Altium Limited,Altium Designer,18.1.7 (191)*
G04*
G04 Layer_Color=65535*
%FSLAX25Y25*%
%MOIN*%
G70*
G01*
G75*
%ADD10C,0.00984*%
%ADD11C,0.00787*%
%ADD12C,0.01575*%
%ADD13C,0.01181*%
%ADD14C,0.00600*%
%ADD15C,0.01000*%
%ADD16C,0.00591*%
%ADD17C,0.02362*%
%ADD18C,0.00700*%
%ADD19C,0.00800*%
%ADD20C,0.00598*%
D10*
X383051Y55882D02*
G03*
X383051Y55882I-492J0D01*
G01*
Y26460D02*
G03*
X383051Y26460I-492J0D01*
G01*
X303602Y17594D02*
G03*
X303602Y17594I-492J0D01*
G01*
D11*
X387390Y28163D02*
G03*
X388965Y26588I1575J0D01*
G01*
X392035D02*
G03*
X393610Y28163I0J1575D01*
G01*
X393610Y37100D02*
G03*
X392035Y38675I-1575J-0D01*
G01*
X388965Y38675D02*
G03*
X387390Y37100I0J-1575D01*
G01*
X394051Y38663D02*
G03*
X395626Y40238I0J1575D01*
G01*
X387476Y40238D02*
G03*
X389051Y38663I1575J0D01*
G01*
X389051Y52600D02*
G03*
X387476Y51025I0J-1575D01*
G01*
X395626Y51025D02*
G03*
X394051Y52600I-1575J0D01*
G01*
X409531Y55242D02*
G03*
X407957Y53667I0J-1575D01*
G01*
Y50596D02*
G03*
X409531Y49022I1575J0D01*
G01*
X418469Y49022D02*
G03*
X420043Y50596I-0J1575D01*
G01*
X420043Y53667D02*
G03*
X418469Y55242I-1575J0D01*
G01*
X471386Y51390D02*
G03*
X472961Y52965I-0J1575D01*
G01*
Y56035D02*
G03*
X471386Y57610I-1575J0D01*
G01*
X462449Y57610D02*
G03*
X460874Y56035I0J-1575D01*
G01*
X460874Y52965D02*
G03*
X462449Y51390I1575J0D01*
G01*
X427127Y28220D02*
G03*
X428702Y26645I1575J0D01*
G01*
X428702Y34795D02*
G03*
X427127Y33220I0J-1575D01*
G01*
X441064Y33220D02*
G03*
X439489Y34795I-1575J-0D01*
G01*
X439489Y26645D02*
G03*
X441064Y28220I0J1575D01*
G01*
X443370Y23974D02*
G03*
X441795Y22400I0J-1575D01*
G01*
Y16100D02*
G03*
X443370Y14526I1575J0D01*
G01*
X458764D02*
G03*
X460339Y16100I0J1575D01*
G01*
Y22400D02*
G03*
X458764Y23974I-1575J0D01*
G01*
X471535Y17421D02*
G03*
X473110Y18996I-0J1575D01*
G01*
Y22067D02*
G03*
X471535Y23642I-1575J0D01*
G01*
X462598Y23642D02*
G03*
X461024Y22067I0J-1575D01*
G01*
X461024Y18996D02*
G03*
X462598Y17421I1575J0D01*
G01*
X144457Y136465D02*
G03*
X146031Y134890I1575J0D01*
G01*
X146031Y141110D02*
G03*
X144457Y139535I0J-1575D01*
G01*
X156543Y139535D02*
G03*
X154969Y141110I-1575J0D01*
G01*
Y134890D02*
G03*
X156543Y136465I-0J1575D01*
G01*
X132035Y93457D02*
G03*
X133610Y95031I0J1575D01*
G01*
X127390Y95031D02*
G03*
X128965Y93457I1575J0D01*
G01*
X128965Y105543D02*
G03*
X127390Y103969I0J-1575D01*
G01*
X133610D02*
G03*
X132035Y105543I-1575J-0D01*
G01*
X127075Y104252D02*
G03*
X125500Y105827I-1575J0D01*
G01*
X120500Y105827D02*
G03*
X118925Y104252I0J-1575D01*
G01*
X118925Y93465D02*
G03*
X120500Y91890I1575J0D01*
G01*
X125500Y91890D02*
G03*
X127075Y93464I0J1575D01*
G01*
X99894Y12925D02*
G03*
X101469Y14500I0J1575D01*
G01*
X101469Y19500D02*
G03*
X99894Y21075I-1575J-0D01*
G01*
X89106Y21075D02*
G03*
X87532Y19500I0J-1575D01*
G01*
X87532Y14500D02*
G03*
X89106Y12925I1575J0D01*
G01*
X138031Y19610D02*
G03*
X136457Y18035I0J-1575D01*
G01*
Y14965D02*
G03*
X138031Y13390I1575J-0D01*
G01*
X146968Y13390D02*
G03*
X148543Y14965I-0J1575D01*
G01*
X148543Y18035D02*
G03*
X146968Y19610I-1575J0D01*
G01*
X198110Y12662D02*
G03*
X196535Y14237I-1575J-0D01*
G01*
X193465D02*
G03*
X191890Y12662I0J-1575D01*
G01*
X191890Y3725D02*
G03*
X193465Y2150I1575J0D01*
G01*
X196535Y2150D02*
G03*
X198110Y3725I0J1575D01*
G01*
X224043Y65315D02*
G03*
X222468Y66890I-1575J0D01*
G01*
X222468Y60669D02*
G03*
X224043Y62244I-0J1575D01*
G01*
X211957Y62244D02*
G03*
X213531Y60669I1575J0D01*
G01*
Y66890D02*
G03*
X211957Y65315I0J-1575D01*
G01*
X224043Y54535D02*
G03*
X222468Y56110I-1575J0D01*
G01*
X222468Y49890D02*
G03*
X224043Y51465I-0J1575D01*
G01*
X211957Y51465D02*
G03*
X213531Y49890I1575J0D01*
G01*
Y56110D02*
G03*
X211957Y54535I0J-1575D01*
G01*
X286457Y90984D02*
G03*
X288032Y89410I1575J0D01*
G01*
X288032Y95630D02*
G03*
X286457Y94055I0J-1575D01*
G01*
X298543Y94055D02*
G03*
X296969Y95630I-1575J0D01*
G01*
Y89409D02*
G03*
X298543Y90984I-0J1575D01*
G01*
X286902Y65197D02*
G03*
X288476Y63622I1575J0D01*
G01*
X288476Y69842D02*
G03*
X286901Y68268I0J-1575D01*
G01*
X298988Y68268D02*
G03*
X297413Y69842I-1575J0D01*
G01*
Y63622D02*
G03*
X298988Y65197I-0J1575D01*
G01*
X283465Y55543D02*
G03*
X281890Y53969I0J-1575D01*
G01*
X288110Y53969D02*
G03*
X286535Y55543I-1575J-0D01*
G01*
X286535Y43457D02*
G03*
X288110Y45031I0J1575D01*
G01*
X281890D02*
G03*
X283465Y43457I1575J0D01*
G01*
X276965Y55543D02*
G03*
X275390Y53969I0J-1575D01*
G01*
X281610Y53969D02*
G03*
X280035Y55543I-1575J-0D01*
G01*
X280035Y43457D02*
G03*
X281610Y45031I0J1575D01*
G01*
X275390D02*
G03*
X276965Y43457I1575J0D01*
G01*
X256658Y44724D02*
G03*
X258232Y43150I1575J0D01*
G01*
X258232Y49370D02*
G03*
X256658Y47795I0J-1575D01*
G01*
X268744Y47795D02*
G03*
X267169Y49370I-1575J0D01*
G01*
Y43150D02*
G03*
X268744Y44724I-0J1575D01*
G01*
X243232Y47795D02*
G03*
X241657Y49370I-1575J0D01*
G01*
X241657Y43150D02*
G03*
X243232Y44724I-0J1575D01*
G01*
X231146Y44724D02*
G03*
X232720Y43150I1575J0D01*
G01*
Y49370D02*
G03*
X231146Y47795I0J-1575D01*
G01*
X349575Y122394D02*
G03*
X348000Y123969I-1575J0D01*
G01*
X343000Y123969D02*
G03*
X341425Y122394I0J-1575D01*
G01*
X341425Y111606D02*
G03*
X343000Y110031I1575J0D01*
G01*
X348000Y110031D02*
G03*
X349575Y111606I0J1575D01*
G01*
X343390Y125667D02*
G03*
X344965Y124092I1575J0D01*
G01*
X348035D02*
G03*
X349610Y125667I0J1575D01*
G01*
X349610Y134604D02*
G03*
X348035Y136179I-1575J-0D01*
G01*
X344965Y136179D02*
G03*
X343390Y134604I0J-1575D01*
G01*
X437532Y133183D02*
G03*
X435957Y131608I0J-1575D01*
G01*
Y128537D02*
G03*
X437532Y126962I1575J0D01*
G01*
X446468Y126962D02*
G03*
X448043Y128537I-0J1575D01*
G01*
X448043Y131608D02*
G03*
X446468Y133183I-1575J0D01*
G01*
X299165Y74535D02*
G03*
X297590Y76110I-1575J0D01*
G01*
X297591Y69890D02*
G03*
X299165Y71465I-0J1575D01*
G01*
X287079Y71465D02*
G03*
X288653Y69890I1575J0D01*
G01*
Y76110D02*
G03*
X287079Y74535I0J-1575D01*
G01*
X302965Y55543D02*
G03*
X301390Y53969I0J-1575D01*
G01*
X307610Y53969D02*
G03*
X306035Y55543I-1575J-0D01*
G01*
X306035Y43457D02*
G03*
X307610Y45031I0J1575D01*
G01*
X301390D02*
G03*
X302965Y43457I1575J0D01*
G01*
X237035Y102693D02*
G03*
X238610Y104268I0J1575D01*
G01*
X232390Y104268D02*
G03*
X233965Y102693I1575J0D01*
G01*
X233965Y114779D02*
G03*
X232390Y113205I0J-1575D01*
G01*
X238610D02*
G03*
X237035Y114779I-1575J-0D01*
G01*
X337575Y44526D02*
G03*
X336000Y46100I-1575J0D01*
G01*
X331000Y46100D02*
G03*
X329425Y44526I0J-1575D01*
G01*
X329425Y33738D02*
G03*
X331000Y32163I1575J0D01*
G01*
X336000Y32163D02*
G03*
X337575Y33738I0J1575D01*
G01*
X300606Y14075D02*
G03*
X299031Y12500I0J-1575D01*
G01*
X299031Y7500D02*
G03*
X300606Y5925I1575J0D01*
G01*
X311394Y5925D02*
G03*
X312968Y7500I0J1575D01*
G01*
X312968Y12500D02*
G03*
X311394Y14075I-1575J0D01*
G01*
X303575Y31894D02*
G03*
X302000Y33468I-1575J0D01*
G01*
X297000Y33468D02*
G03*
X295425Y31894I0J-1575D01*
G01*
X295425Y21106D02*
G03*
X297000Y19532I1575J0D01*
G01*
X302000Y19532D02*
G03*
X303575Y21106I0J1575D01*
G01*
X460339Y58995D02*
G03*
X458764Y60570I-1575J0D01*
G01*
Y51121D02*
G03*
X460339Y52696I0J1575D01*
G01*
X441795D02*
G03*
X443370Y51121I1575J0D01*
G01*
Y60570D02*
G03*
X441795Y58995I0J-1575D01*
G01*
X219043Y119252D02*
G03*
X217469Y120827I-1575J0D01*
G01*
X217469Y114606D02*
G03*
X219043Y116181I-0J1575D01*
G01*
X206957Y116181D02*
G03*
X208531Y114606I1575J0D01*
G01*
Y120827D02*
G03*
X206957Y119252I0J-1575D01*
G01*
X209043Y81041D02*
G03*
X207469Y82616I-1575J0D01*
G01*
X207469Y76396D02*
G03*
X209043Y77970I-0J1575D01*
G01*
X196957Y77970D02*
G03*
X198531Y76396I1575J0D01*
G01*
Y82616D02*
G03*
X196957Y81041I0J-1575D01*
G01*
X298293Y38535D02*
G03*
X296719Y40110I-1575J0D01*
G01*
X296719Y33890D02*
G03*
X298293Y35465I-0J1575D01*
G01*
X286207Y35465D02*
G03*
X287782Y33890I1575J0D01*
G01*
Y40110D02*
G03*
X286207Y38535I0J-1575D01*
G01*
X318457Y25465D02*
G03*
X320031Y23890I1575J0D01*
G01*
X320031Y30110D02*
G03*
X318457Y28535I0J-1575D01*
G01*
X330543Y28535D02*
G03*
X328969Y30110I-1575J0D01*
G01*
Y23890D02*
G03*
X330543Y25465I-0J1575D01*
G01*
X287287Y6563D02*
Y12075D01*
X288469Y6563D02*
Y12075D01*
X284531Y6563D02*
Y12075D01*
X288469D01*
X284531Y6563D02*
X288469D01*
X374587Y73992D02*
X380492Y68087D01*
X374587Y48008D02*
X380492Y53913D01*
X354508Y48008D02*
Y56079D01*
Y65528D02*
Y73992D01*
Y48008D02*
X374587D01*
X354508Y73992D02*
X374587D01*
X380492Y53913D02*
Y56472D01*
Y65528D02*
Y68087D01*
X374587Y44570D02*
X380492Y38665D01*
X374587Y18586D02*
X380492Y24492D01*
X354508Y18586D02*
Y26657D01*
Y36106D02*
Y44570D01*
Y18586D02*
X374587D01*
X354508Y44570D02*
X374587D01*
X380492Y24492D02*
Y27051D01*
Y36106D02*
Y38665D01*
X393610Y28163D02*
Y31057D01*
X393610Y34207D02*
Y37100D01*
X387390Y34207D02*
Y37100D01*
X388965Y26588D02*
X392035D01*
X388965Y38675D02*
X392035D01*
X387390Y28163D02*
Y31057D01*
X386728Y66356D02*
X392063D01*
X405272Y56907D02*
Y66356D01*
X386728Y56907D02*
Y66356D01*
Y56907D02*
X392063D01*
X399937D02*
X405272D01*
X399937Y66356D02*
X405272D01*
X395626Y47403D02*
Y51025D01*
Y40238D02*
Y43860D01*
X387476Y40238D02*
Y43860D01*
X389051Y38663D02*
X394051D01*
X387476Y47403D02*
Y51025D01*
X389051Y52600D02*
X394051D01*
X426610Y57207D02*
Y61675D01*
Y49589D02*
Y54057D01*
X420390Y57207D02*
Y61675D01*
Y49589D02*
X426610D01*
X420390Y61675D02*
X426610D01*
X420390Y49589D02*
Y54057D01*
X409531Y49022D02*
X412425D01*
X415575Y49022D02*
X418469D01*
X415575Y55242D02*
X418469D01*
X407957Y50596D02*
Y53667D01*
X420043Y50596D02*
Y53667D01*
X409531Y55242D02*
X412425D01*
X412457Y26242D02*
X416925D01*
X420075D02*
X424543D01*
X412457Y20021D02*
X416925D01*
X424543D02*
Y26242D01*
X412457Y20021D02*
Y26242D01*
X420075Y20021D02*
X424543D01*
X468492Y57610D02*
X471386D01*
X462449Y57610D02*
X465343D01*
X462449Y51390D02*
X465343D01*
X472961Y52965D02*
Y56035D01*
X460874Y52965D02*
Y56035D01*
X468492Y51390D02*
X471386D01*
X435867Y26645D02*
X439489D01*
X428702D02*
X432324D01*
X428702Y34795D02*
X432324D01*
X427127Y28220D02*
Y33220D01*
X435867Y34795D02*
X439489D01*
X441064Y28220D02*
Y33220D01*
X441795Y16100D02*
Y22400D01*
X460339Y16100D02*
Y22400D01*
X443370Y23974D02*
X447130D01*
X455004D02*
X458764D01*
X455004Y14526D02*
X458764D01*
X443370D02*
X447130D01*
X468642Y23642D02*
X471535D01*
X462598Y23642D02*
X465492D01*
X462598Y17421D02*
X465492D01*
X473110Y18996D02*
Y22067D01*
X461024Y18996D02*
Y22067D01*
X468642Y17421D02*
X471535D01*
X455151Y126682D02*
X459620D01*
X462769D02*
X467238D01*
X455151Y120462D02*
X459620D01*
X467238D02*
Y126682D01*
X455151Y120462D02*
Y126682D01*
X462769Y120462D02*
X467238D01*
X455151Y132683D02*
X459620D01*
X462769D02*
X467238D01*
X455151Y126462D02*
X459620D01*
X467238D02*
Y132683D01*
X455151Y126462D02*
Y132683D01*
X462769Y126462D02*
X467238D01*
X455151Y139182D02*
X459620D01*
X462769D02*
X467238D01*
X455151Y132962D02*
X459620D01*
X467238D02*
Y139182D01*
X455151Y132962D02*
Y139182D01*
X462769Y132962D02*
X467238D01*
X194587Y120827D02*
X199055D01*
X206673Y114606D02*
Y120827D01*
X194587Y114606D02*
Y120827D01*
X202205D02*
X206673D01*
X194587Y114606D02*
X199055D01*
X202205D02*
X206673D01*
X178819Y67175D02*
X181181D01*
X152075Y141890D02*
X156543D01*
X144457D02*
Y148110D01*
X156543Y141890D02*
Y148110D01*
X144457Y141890D02*
X148925D01*
X152075Y148110D02*
X156543D01*
X144457D02*
X148925D01*
X152075Y134890D02*
X154969D01*
X144457Y136465D02*
Y139535D01*
X156543Y136465D02*
Y139535D01*
X146031Y134890D02*
X148925D01*
X146031Y141110D02*
X148925D01*
X152075Y141110D02*
X154969D01*
X133610Y101075D02*
Y103969D01*
X128965Y93457D02*
X132035D01*
X128965Y105543D02*
X132035D01*
X133610Y95031D02*
Y97925D01*
X127390Y95031D02*
Y97925D01*
X127390Y101075D02*
Y103969D01*
X120500Y105827D02*
X125500D01*
X118925Y100630D02*
Y104252D01*
X120500Y91890D02*
X125500D01*
X118925Y93465D02*
Y97087D01*
X127075Y93464D02*
Y97087D01*
Y100630D02*
Y104252D01*
X101469Y14500D02*
Y19500D01*
X96272Y21075D02*
X99894D01*
X87532Y14500D02*
Y19500D01*
X89106Y21075D02*
X92728D01*
X89106Y12925D02*
X92728D01*
X96272D02*
X99894D01*
X138031Y13390D02*
X140925D01*
X144075Y13390D02*
X146968D01*
X144075Y19610D02*
X146968D01*
X136457Y14965D02*
Y18035D01*
X148543Y14965D02*
Y18035D01*
X138031Y19610D02*
X140925D01*
X175496Y29093D02*
Y33561D01*
Y41179D02*
X181717D01*
X175496Y29093D02*
X181717D01*
X175496Y36711D02*
Y41179D01*
X181717Y29093D02*
Y33561D01*
Y36711D02*
Y41179D01*
X182496Y29093D02*
Y33561D01*
Y41179D02*
X188716D01*
X182496Y29093D02*
X188716D01*
X182496Y36711D02*
Y41179D01*
X188716Y29093D02*
Y33561D01*
Y36711D02*
Y41179D01*
X170150Y33955D02*
Y36317D01*
X170331Y42880D02*
X174268D01*
X170331Y48392D02*
X174268D01*
X170331Y42880D02*
Y48392D01*
X174268Y42880D02*
Y48392D01*
X173087Y42880D02*
Y48392D01*
X142988Y63364D02*
X147457D01*
X155075Y57144D02*
Y63364D01*
X142988Y57144D02*
Y63364D01*
X150606D02*
X155075D01*
X142988Y57144D02*
X147457D01*
X150606D02*
X155075D01*
X142988Y70364D02*
X147457D01*
X155075Y64144D02*
Y70364D01*
X142988Y64144D02*
Y70364D01*
X150606D02*
X155075D01*
X142988Y64144D02*
X147457D01*
X150606D02*
X155075D01*
X345043Y73890D02*
X349512D01*
X337425D02*
Y80110D01*
X349512Y73890D02*
Y80110D01*
X337425Y73890D02*
X341894D01*
X345043Y80110D02*
X349512D01*
X337425D02*
X341894D01*
X345075Y67890D02*
X349543D01*
X337457D02*
Y74110D01*
X349543Y67890D02*
Y74110D01*
X337457Y67890D02*
X341925D01*
X345075Y74110D02*
X349543D01*
X337457D02*
X341925D01*
X220630Y135937D02*
X250630D01*
X220630Y130937D02*
Y135937D01*
X250630Y130937D02*
Y135937D01*
X220630Y130937D02*
X250630D01*
X247297Y135937D02*
Y149270D01*
X245630Y150937D02*
X247297Y149270D01*
X243963D02*
X245630Y150937D01*
X243963Y135937D02*
Y149270D01*
X237297Y135937D02*
Y149270D01*
X235630Y150937D02*
X237297Y149270D01*
X233963D02*
X235630Y150937D01*
X233963Y135937D02*
Y149270D01*
X227297Y135937D02*
Y149270D01*
X225630Y150937D02*
X227297Y149270D01*
X223963D02*
X225630Y150937D01*
X223963Y135937D02*
Y149270D01*
X191890Y9769D02*
Y12662D01*
X191890Y3725D02*
Y6619D01*
X198110Y3725D02*
Y6619D01*
X193465Y14237D02*
X196535D01*
X193465Y2150D02*
X196535D01*
X198110Y9769D02*
Y12662D01*
X211957Y82610D02*
X216425D01*
X224043Y76390D02*
Y82610D01*
X211957Y76390D02*
Y82610D01*
X219575D02*
X224043D01*
X211957Y76390D02*
X216425D01*
X219575D02*
X224043D01*
X211957Y73110D02*
X216425D01*
X224043Y66890D02*
Y73110D01*
X211957Y66890D02*
Y73110D01*
X219575D02*
X224043D01*
X211957Y66890D02*
X216425D01*
X219575D02*
X224043D01*
X213531Y66890D02*
X216425D01*
X224043Y62244D02*
Y65315D01*
X211957Y62244D02*
Y65315D01*
X219575Y66890D02*
X222468D01*
X219575Y60669D02*
X222468D01*
X213531Y60669D02*
X216425D01*
X213531Y56110D02*
X216425D01*
X224043Y51465D02*
Y54535D01*
X211957Y51465D02*
Y54535D01*
X219575Y56110D02*
X222468D01*
X219575Y49890D02*
X222468D01*
X213531Y49890D02*
X216425D01*
X211957Y49520D02*
X216425D01*
X224043Y43299D02*
Y49520D01*
X211957Y43299D02*
Y49520D01*
X219575D02*
X224043D01*
X211957Y43299D02*
X216425D01*
X219575D02*
X224043D01*
X294075Y89410D02*
X296969D01*
X286457Y90984D02*
Y94055D01*
X298543Y90984D02*
Y94055D01*
X288032Y89410D02*
X290925D01*
X288032Y95630D02*
X290925D01*
X294075Y95630D02*
X296969D01*
X294520Y63622D02*
X297413D01*
X286902Y65197D02*
Y68268D01*
X298988Y65197D02*
Y68268D01*
X288476Y63622D02*
X291370D01*
X288476Y69842D02*
X291370D01*
X294520Y69842D02*
X297413D01*
X288390Y43457D02*
Y47925D01*
Y55543D02*
X294610D01*
X288390Y43457D02*
X294610D01*
X288390Y51075D02*
Y55543D01*
X294610Y43457D02*
Y47925D01*
Y51075D02*
Y55543D01*
X281890Y45031D02*
Y47925D01*
X283465Y55543D02*
X286535D01*
X283465Y43457D02*
X286535D01*
X281890Y51075D02*
Y53969D01*
X288110Y51075D02*
Y53969D01*
X288110Y45031D02*
Y47925D01*
X275390Y45031D02*
Y47925D01*
X276965Y55543D02*
X280035D01*
X276965Y43457D02*
X280035D01*
X275390Y51075D02*
Y53969D01*
X281610Y51075D02*
Y53969D01*
X281610Y45031D02*
Y47925D01*
X264276Y43150D02*
X267169D01*
X256658Y44724D02*
Y47795D01*
X268744Y44724D02*
Y47795D01*
X258232Y43150D02*
X261126D01*
X258232Y49370D02*
X261126D01*
X264276Y49370D02*
X267169D01*
X243941D02*
X248410D01*
X256028Y43150D02*
Y49370D01*
X243941Y43150D02*
Y49370D01*
X251559D02*
X256028D01*
X243941Y43150D02*
X248410D01*
X251559D02*
X256028D01*
X232720Y49370D02*
X235614D01*
X243232Y44724D02*
Y47795D01*
X231146Y44724D02*
Y47795D01*
X238764Y49370D02*
X241657D01*
X238764Y43150D02*
X241657D01*
X232720Y43150D02*
X235614D01*
X272638Y62008D02*
Y95473D01*
X239173Y62008D02*
Y95473D01*
X272638D01*
X239173Y62008D02*
X272638D01*
X150575Y49890D02*
X155043D01*
X142957D02*
Y56110D01*
X155043Y49890D02*
Y56110D01*
X142957Y49890D02*
X147425D01*
X150575Y56110D02*
X155043D01*
X142957D02*
X147425D01*
X142957Y48746D02*
X147425D01*
X155043Y42526D02*
Y48746D01*
X142957Y42526D02*
Y48746D01*
X150575D02*
X155043D01*
X142957Y42526D02*
X147425D01*
X150575D02*
X155043D01*
X343000Y123969D02*
X348000D01*
X341425Y118772D02*
Y122394D01*
X343000Y110031D02*
X348000D01*
X341425Y111606D02*
Y115228D01*
X349575Y111606D02*
Y115228D01*
Y118772D02*
Y122394D01*
X349610Y125667D02*
Y128560D01*
X349610Y131710D02*
Y134604D01*
X343390Y131710D02*
Y134604D01*
X344965Y124092D02*
X348035D01*
X344965Y136179D02*
X348035D01*
X343390Y125667D02*
Y128560D01*
X443606Y120462D02*
X448075D01*
X435988D02*
X440457D01*
X443606Y126682D02*
X448075D01*
X435988Y120462D02*
Y126682D01*
X448075Y120462D02*
Y126682D01*
X435988D02*
X440457D01*
X342390Y95457D02*
Y99925D01*
Y107543D02*
X348610D01*
X342390Y95457D02*
X348610D01*
X342390Y103075D02*
Y107543D01*
X348610Y95457D02*
Y99925D01*
Y103075D02*
Y107543D01*
X437532Y126962D02*
X440425D01*
X443575Y126962D02*
X446468D01*
X443575Y133183D02*
X446468D01*
X435957Y128537D02*
Y131608D01*
X448043Y128537D02*
Y131608D01*
X437532Y133183D02*
X440425D01*
X255630Y130937D02*
X305630D01*
X258963Y135937D02*
Y149270D01*
X260630Y150937D01*
X262297Y149270D01*
Y135937D02*
Y149270D01*
X268963Y135937D02*
Y149270D01*
X270630Y150937D01*
X272297Y149270D01*
Y135937D02*
Y149270D01*
X278963Y135937D02*
Y149270D01*
X280630Y150937D01*
X282296Y149270D01*
Y135937D02*
Y149270D01*
X288963Y135937D02*
Y149270D01*
X290630Y150937D01*
X292297Y149270D01*
Y135937D02*
Y149270D01*
X298963Y135937D02*
Y149270D01*
X300630Y150937D01*
X302296Y149270D01*
Y135937D02*
Y149270D01*
X305630Y130937D02*
Y135937D01*
X255630D02*
X305630D01*
X255630Y130937D02*
Y135937D01*
X310630D02*
X340630D01*
X310630Y130937D02*
Y135937D01*
X340630Y130937D02*
Y135937D01*
X310630Y130937D02*
X340630D01*
X337297Y135937D02*
Y149270D01*
X335630Y150937D02*
X337297Y149270D01*
X333963D02*
X335630Y150937D01*
X333963Y135937D02*
Y149270D01*
X327296Y135937D02*
Y149270D01*
X325630Y150937D02*
X327296Y149270D01*
X323963D02*
X325630Y150937D01*
X323963Y135937D02*
Y149270D01*
X317297Y135937D02*
Y149270D01*
X315630Y150937D02*
X317297Y149270D01*
X313963D02*
X315630Y150937D01*
X313963Y135937D02*
Y149270D01*
X185630Y135937D02*
X215630D01*
X185630Y130937D02*
Y135937D01*
X215630Y130937D02*
Y135937D01*
X185630Y130937D02*
X215630D01*
X212297Y135937D02*
Y149270D01*
X210630Y150937D02*
X212297Y149270D01*
X208963D02*
X210630Y150937D01*
X208963Y135937D02*
Y149270D01*
X202296Y135937D02*
Y149270D01*
X200630Y150937D02*
X202296Y149270D01*
X198963D02*
X200630Y150937D01*
X198963Y135937D02*
Y149270D01*
X192297Y135937D02*
Y149270D01*
X190630Y150937D02*
X192297Y149270D01*
X188963D02*
X190630Y150937D01*
X188963Y135937D02*
Y149270D01*
X477925Y48031D02*
Y61968D01*
X486075D01*
X477925Y48031D02*
X486075D01*
Y61968D01*
X288653Y76110D02*
X291547D01*
X299165Y71465D02*
Y74535D01*
X287079Y71465D02*
Y74535D01*
X294697Y76110D02*
X297590D01*
X294697Y69890D02*
X297591D01*
X288653Y69890D02*
X291547D01*
X301114Y50988D02*
Y55457D01*
X294894Y43370D02*
X301114D01*
X294894Y55457D02*
X301114D01*
Y43370D02*
Y47839D01*
X294894Y50988D02*
Y55457D01*
Y43370D02*
Y47839D01*
X301390Y45031D02*
Y47925D01*
X302965Y55543D02*
X306035D01*
X302965Y43457D02*
X306035D01*
X301390Y51075D02*
Y53969D01*
X307610Y51075D02*
Y53969D01*
X307610Y45031D02*
Y47925D01*
X238610Y110311D02*
Y113205D01*
X233965Y102693D02*
X237035D01*
X233965Y114779D02*
X237035D01*
X238610Y104268D02*
Y107161D01*
X232390Y104268D02*
Y107161D01*
X232390Y110311D02*
Y113205D01*
X336032Y64707D02*
X341228D01*
X344772D02*
X349969D01*
X344772Y56557D02*
X349969D01*
X336032D02*
X341228D01*
X336032D02*
Y64707D01*
X349969Y56557D02*
Y64707D01*
X440270Y50307D02*
Y54775D01*
X434049Y42689D02*
X440270D01*
X434049Y54775D02*
X440270D01*
Y42689D02*
Y47157D01*
X434049Y50307D02*
Y54775D01*
Y42689D02*
Y47157D01*
X335531Y30075D02*
X340728D01*
X344272D02*
X349468D01*
X344272Y21925D02*
X349468D01*
X335531D02*
X340728D01*
X335531D02*
Y30075D01*
X349468Y21925D02*
Y30075D01*
X399937Y25224D02*
X405272D01*
X399937Y15776D02*
X405272D01*
X386728D02*
X392063D01*
X386728D02*
Y25224D01*
X405272Y15776D02*
Y25224D01*
X386728D02*
X392063D01*
X331000Y46100D02*
X336000D01*
X329425Y40903D02*
Y44526D01*
X331000Y32163D02*
X336000D01*
X329425Y33738D02*
Y37360D01*
X337575Y33738D02*
Y37360D01*
Y40903D02*
Y44526D01*
X299031Y7500D02*
Y12500D01*
X300606Y5925D02*
X304228D01*
X312968Y7500D02*
Y12500D01*
X307772Y5925D02*
X311394D01*
X307772Y14075D02*
X311394D01*
X300606D02*
X304228D01*
X297000Y33468D02*
X302000D01*
X295425Y28272D02*
Y31894D01*
X297000Y19532D02*
X302000D01*
X295425Y21106D02*
Y24728D01*
X303575Y21106D02*
Y24728D01*
Y28272D02*
Y31894D01*
X433610Y50307D02*
Y54775D01*
X427390Y42689D02*
X433610D01*
X427390Y54775D02*
X433610D01*
Y42689D02*
Y47157D01*
X427390Y50307D02*
Y54775D01*
Y42689D02*
Y47157D01*
X443370Y51121D02*
X447130D01*
X455004D02*
X458764D01*
X455004Y60570D02*
X458764D01*
X443370D02*
X447130D01*
X460339Y52696D02*
Y58995D01*
X441795Y52696D02*
Y58995D01*
X208531Y120827D02*
X211425D01*
X219043Y116181D02*
Y119252D01*
X206957Y116181D02*
Y119252D01*
X214575Y120827D02*
X217469D01*
X214575Y114606D02*
X217469D01*
X208531Y114606D02*
X211425D01*
X198531Y82616D02*
X201425D01*
X209043Y77970D02*
Y81041D01*
X196957Y77970D02*
Y81041D01*
X204575Y82616D02*
X207469D01*
X204575Y76396D02*
X207469D01*
X198531Y76396D02*
X201425D01*
X311457Y40110D02*
X315925D01*
X323543Y33890D02*
Y40110D01*
X311457Y33890D02*
Y40110D01*
X319075D02*
X323543D01*
X311457Y33890D02*
X315925D01*
X319075D02*
X323543D01*
X427957Y41842D02*
X432425D01*
X440043Y35622D02*
Y41842D01*
X427957Y35622D02*
Y41842D01*
X435575D02*
X440043D01*
X427957Y35622D02*
X432425D01*
X435575D02*
X440043D01*
X306075Y33890D02*
X310543D01*
X298457D02*
Y40110D01*
X310543Y33890D02*
Y40110D01*
X298457Y33890D02*
X302925D01*
X306075Y40110D02*
X310543D01*
X298457D02*
X302925D01*
X287782D02*
X290675D01*
X298293Y35465D02*
Y38535D01*
X286207Y35465D02*
Y38535D01*
X293825Y40110D02*
X296719D01*
X293825Y33890D02*
X296719D01*
X287782Y33890D02*
X290675D01*
X326075Y23890D02*
X328969D01*
X318457Y25465D02*
Y28535D01*
X330543Y25465D02*
Y28535D01*
X320031Y23890D02*
X322925D01*
X320031Y30110D02*
X322925D01*
X326075Y30110D02*
X328969D01*
X318457Y21610D02*
X322925D01*
X330543Y15390D02*
Y21610D01*
X318457Y15390D02*
Y21610D01*
X326075D02*
X330543D01*
X318457Y15390D02*
X322925D01*
X326075D02*
X330543D01*
D12*
X414543Y31439D02*
G03*
X414543Y31439I-787J0D01*
G01*
X215480Y100756D02*
G03*
X215480Y100756I-787J0D01*
G01*
D13*
X423106Y27305D02*
G03*
X423106Y27305I-591J0D01*
G01*
X219417Y109516D02*
G03*
X219417Y109516I-591J0D01*
G01*
X175839Y14224D02*
G03*
X175839Y14224I-500J0D01*
G01*
X239173Y55512D02*
G03*
X239173Y55512I-591J0D01*
G01*
D14*
X120717Y39000D02*
G03*
X120717Y39000I-17717J0D01*
G01*
D15*
X323172Y71000D02*
G03*
X312072Y71000I-5550J0D01*
G01*
X334138Y69384D02*
G03*
X334138Y69384I-316J0D01*
G01*
X405488Y47581D02*
X416512D01*
X405488Y28683D02*
X416512D01*
X405488D02*
Y47581D01*
X416512Y28683D02*
Y47581D01*
X198551Y103512D02*
X217449D01*
X198551Y92488D02*
X217449D01*
Y103512D01*
X198551Y92488D02*
Y103512D01*
X183150Y61073D02*
X185748D01*
Y64281D01*
X174252Y61073D02*
Y64281D01*
Y61073D02*
X176850D01*
X174252D02*
X176850D01*
X174252D02*
X176850D01*
X164047Y29388D02*
Y31986D01*
Y29388D02*
X167256D01*
X164047Y40884D02*
X167256D01*
X164047Y38286D02*
Y40884D01*
Y38286D02*
Y40884D01*
Y38286D02*
Y40884D01*
X349905Y34248D02*
Y52752D01*
X338094Y40547D02*
X349905D01*
X338094Y34248D02*
Y52752D01*
Y34248D02*
X338882D01*
X349118D02*
X349905D01*
X349118Y52752D02*
X349905D01*
X338094D02*
X338882D01*
X486752Y14437D02*
Y15224D01*
Y3413D02*
Y4201D01*
X468248Y3413D02*
Y4201D01*
Y14437D02*
Y15224D01*
X486752D01*
X474547Y3413D02*
Y15224D01*
X468248Y3413D02*
X486752D01*
X304488Y21531D02*
Y25469D01*
X315512Y21531D02*
Y25469D01*
X304488Y21531D02*
X315512D01*
X304488Y25469D02*
X315512D01*
X456181Y25921D02*
Y49543D01*
X467205D01*
Y25921D02*
Y49543D01*
X456181Y25921D02*
X467205D01*
D16*
X229378Y32000D02*
G03*
X236582Y24795I7205J0D01*
G01*
Y39205D02*
G03*
X229378Y32000I0J-7205D01*
G01*
X270716D02*
G03*
X263512Y39205I-7205J0D01*
G01*
Y24795D02*
G03*
X270716Y32000I0J7205D01*
G01*
X227409D02*
G03*
X236582Y22827I9173J0D01*
G01*
Y41173D02*
G03*
X227409Y32000I0J-9173D01*
G01*
X272685D02*
G03*
X263512Y41173I-9173J0D01*
G01*
Y22827D02*
G03*
X272685Y32000I0J9173D01*
G01*
D17*
X244094Y65650D02*
G03*
X244094Y65650I-1181J0D01*
G01*
D18*
X180354Y89862D02*
G03*
X180363Y114851I-15000J12500D01*
G01*
X150345D02*
G03*
X150336Y89885I15009J-12489D01*
G01*
X135354Y102362D02*
G03*
X162074Y72542I30000J0D01*
G01*
Y132182D02*
G03*
X135354Y102362I3280J-29820D01*
G01*
X168634Y72542D02*
G03*
X168634Y132182I-3280J29820D01*
G01*
X137008Y84646D02*
X139370Y87008D01*
X191437Y86909D02*
X193701Y84646D01*
Y72835D02*
Y84646D01*
X173228Y72835D02*
X193701D01*
X137008D02*
Y84646D01*
Y72835D02*
X157480D01*
D19*
X20679Y124927D02*
G03*
X20679Y67986I3927J-28471D01*
G01*
X20745Y121555D02*
G03*
X20885Y71337I3861J-25098D01*
G01*
X10425Y111803D02*
G03*
X6890Y103268I8535J-8535D01*
G01*
X16732Y117126D02*
G03*
X15052Y116430I0J-2376D01*
G01*
Y75499D02*
G03*
X16732Y74803I1680J1680D01*
G01*
X6890Y88661D02*
G03*
X10425Y80126I12071J0D01*
G01*
X504750Y83661D02*
X511050D01*
Y60039D02*
Y83661D01*
X504750Y60039D02*
X511050D01*
X487428D02*
X493727D01*
X487428Y83661D02*
X493727D01*
X487428Y60039D02*
Y83661D01*
Y102362D02*
X493727D01*
X487428D02*
Y125984D01*
X493727D01*
X504750D02*
X511050D01*
X504750Y102362D02*
X511050D01*
Y125984D01*
X485236Y63779D02*
Y82677D01*
X436024Y63779D02*
X485236D01*
X436024D02*
Y82677D01*
Y98425D02*
Y117323D01*
X485236D01*
Y98425D02*
Y117323D01*
X312689Y120047D02*
X336311D01*
Y113748D02*
Y120047D01*
X312689Y113748D02*
Y120047D01*
Y96425D02*
Y102724D01*
Y96425D02*
X336311D01*
Y102724D01*
X299922Y71000D02*
X335222D01*
Y93000D01*
X299922D02*
X335222D01*
X299922Y71000D02*
Y93000D01*
X278279Y96425D02*
X301902D01*
X278279D02*
Y102724D01*
X301902Y96425D02*
Y102724D01*
Y113748D02*
Y120047D01*
X278279D02*
X301902D01*
X278279Y113748D02*
Y120047D01*
X178094Y2413D02*
X189906D01*
X178094Y14224D02*
X189906D01*
X51004Y63445D02*
X113996D01*
X51004Y126437D02*
X113996D01*
Y63445D02*
Y67972D01*
X51004Y63445D02*
Y68957D01*
X114980Y59114D02*
Y62067D01*
Y59114D02*
X117933Y62067D01*
X114980D02*
X117933D01*
X58213Y49295D02*
X71992D01*
Y13468D02*
Y49295D01*
X58213Y13468D02*
X71992D01*
X58213D02*
Y49295D01*
X32622Y49180D02*
X46402D01*
Y13353D02*
Y49180D01*
X32622Y13353D02*
X46402D01*
X32622D02*
Y49180D01*
X354331Y130905D02*
Y131890D01*
X425197Y130905D02*
Y131890D01*
X354331Y76772D02*
Y77756D01*
X425197Y76772D02*
Y77756D01*
X354331Y155905D02*
X425197D01*
Y131890D02*
Y155905D01*
X354331Y76772D02*
X425197D01*
X354331Y131890D02*
Y155905D01*
Y131890D02*
X425197D01*
X417323D02*
Y151575D01*
X405512D02*
X417323D01*
X405512Y131890D02*
Y151575D01*
X397638D02*
X405512D01*
X397638Y135827D02*
Y151575D01*
X389764Y135827D02*
X397638D01*
X389764D02*
Y151575D01*
X381890D02*
X389764D01*
X381890Y135827D02*
Y151575D01*
X374016Y135827D02*
X381890D01*
X374016D02*
Y151575D01*
X366142D02*
X374016D01*
X366142Y135827D02*
Y151575D01*
X362205Y135827D02*
X366142D01*
X0Y90551D02*
X6890Y93504D01*
X0Y102362D02*
X6890Y99410D01*
X-410Y96457D02*
X6890D01*
X20885Y67986D02*
Y71337D01*
X20679Y121555D02*
Y124927D01*
X27559Y72835D02*
X42323D01*
Y80709D01*
X27559Y120079D02*
X42323D01*
Y112205D02*
Y120079D01*
X6890Y102362D02*
Y103268D01*
X10425Y111803D02*
X15052Y116430D01*
X10425Y80126D02*
X15052Y75499D01*
X6890Y88661D02*
Y102362D01*
X283465Y4983D02*
Y984D01*
X285464D01*
X286130Y1651D01*
Y4316D01*
X285464Y4983D01*
X283465D01*
X287463Y4316D02*
X288130Y4983D01*
X289463D01*
X290129Y4316D01*
Y3650D01*
X289463Y2984D01*
X288796D01*
X289463D01*
X290129Y2317D01*
Y1651D01*
X289463Y984D01*
X288130D01*
X287463Y1651D01*
X277500Y38447D02*
Y34449D01*
X280166D01*
X281499D02*
X282832D01*
X282165D01*
Y38447D01*
X281499Y37781D01*
X358965Y72230D02*
X358299Y72896D01*
X356966D01*
X356299Y72230D01*
Y69564D01*
X356966Y68898D01*
X358299D01*
X358965Y69564D01*
X360298Y68898D02*
X361631D01*
X360964D01*
Y72896D01*
X360298Y72230D01*
X363630D02*
X364297Y72896D01*
X365630D01*
X366296Y72230D01*
Y71563D01*
X365630Y70897D01*
X366296Y70231D01*
Y69564D01*
X365630Y68898D01*
X364297D01*
X363630Y69564D01*
Y70231D01*
X364297Y70897D01*
X363630Y71563D01*
Y72230D01*
X364297Y70897D02*
X365630D01*
X357174Y16127D02*
X356507Y16794D01*
X355174D01*
X354508Y16127D01*
Y13462D01*
X355174Y12795D01*
X356507D01*
X357174Y13462D01*
X358507Y12795D02*
X359840D01*
X359173D01*
Y16794D01*
X358507Y16127D01*
X361839Y13462D02*
X362505Y12795D01*
X363838D01*
X364505Y13462D01*
Y16127D01*
X363838Y16794D01*
X362505D01*
X361839Y16127D01*
Y15461D01*
X362505Y14795D01*
X364505D01*
X393610Y68268D02*
Y72266D01*
X395610D01*
X396276Y71600D01*
Y70267D01*
X395610Y69601D01*
X393610D01*
X394943D02*
X396276Y68268D01*
X397609Y68934D02*
X398275Y68268D01*
X399608D01*
X400275Y68934D01*
Y71600D01*
X399608Y72266D01*
X398275D01*
X397609Y71600D01*
Y70934D01*
X398275Y70267D01*
X400275D01*
X398622Y54196D02*
Y50863D01*
X399289Y50197D01*
X400621D01*
X401288Y50863D01*
Y54196D01*
X404620Y50197D02*
Y54196D01*
X402621Y52196D01*
X405287D01*
X421260Y63779D02*
Y67778D01*
X423259D01*
X423926Y67112D01*
Y65779D01*
X423259Y65112D01*
X421260D01*
X422593D02*
X423926Y63779D01*
X425259Y67778D02*
X427924D01*
Y67112D01*
X425259Y64446D01*
Y63779D01*
X410623Y60240D02*
X409956Y60906D01*
X408623D01*
X407957Y60240D01*
Y57574D01*
X408623Y56907D01*
X409956D01*
X410623Y57574D01*
X414621Y56907D02*
X411955D01*
X414621Y59573D01*
Y60240D01*
X413955Y60906D01*
X412622D01*
X411955Y60240D01*
X415954D02*
X416621Y60906D01*
X417953D01*
X418620Y60240D01*
Y57574D01*
X417953Y56907D01*
X416621D01*
X415954Y57574D01*
Y60240D01*
X412457Y13780D02*
Y17778D01*
X414456D01*
X415123Y17112D01*
Y15779D01*
X414456Y15112D01*
X412457D01*
X413790D02*
X415123Y13780D01*
X416455D02*
X417788D01*
X417122D01*
Y17778D01*
X416455Y17112D01*
X419788D02*
X420454Y17778D01*
X421787D01*
X422453Y17112D01*
Y16445D01*
X421787Y15779D01*
X421121D01*
X421787D01*
X422453Y15112D01*
Y14446D01*
X421787Y13780D01*
X420454D01*
X419788Y14446D01*
X430056Y25399D02*
X429389Y26066D01*
X428056D01*
X427390Y25399D01*
Y22733D01*
X428056Y22067D01*
X429389D01*
X430056Y22733D01*
X434054Y22067D02*
X431389D01*
X434054Y24733D01*
Y25399D01*
X433388Y26066D01*
X432055D01*
X431389Y25399D01*
X435387Y22067D02*
X436720D01*
X436054D01*
Y26066D01*
X435387Y25399D01*
X435737Y19433D02*
X435070Y20099D01*
X433737D01*
X433071Y19433D01*
Y16767D01*
X433737Y16100D01*
X435070D01*
X435737Y16767D01*
X439735Y20099D02*
X438403Y19433D01*
X437070Y18100D01*
Y16767D01*
X437736Y16100D01*
X439069D01*
X439735Y16767D01*
Y17433D01*
X439069Y18100D01*
X437070D01*
X480028Y26954D02*
X479361Y27621D01*
X478029D01*
X477362Y26954D01*
Y24288D01*
X478029Y23622D01*
X479361D01*
X480028Y24288D01*
X481361Y27621D02*
X484027D01*
Y26954D01*
X481361Y24288D01*
Y23622D01*
X469163Y121572D02*
Y125571D01*
X471162D01*
X471829Y124905D01*
Y123572D01*
X471162Y122905D01*
X469163D01*
X470496D02*
X471829Y121572D01*
X475827D02*
X473162D01*
X475827Y124238D01*
Y124905D01*
X475161Y125571D01*
X473828D01*
X473162Y124905D01*
X477160D02*
X477827Y125571D01*
X479160D01*
X479826Y124905D01*
Y122239D01*
X479160Y121572D01*
X477827D01*
X477160Y122239D01*
Y124905D01*
X469163Y127500D02*
Y131499D01*
X471162D01*
X471829Y130832D01*
Y129499D01*
X471162Y128833D01*
X469163D01*
X470496D02*
X471829Y127500D01*
X473162D02*
X474494D01*
X473828D01*
Y131499D01*
X473162Y130832D01*
X476494D02*
X477160Y131499D01*
X478493D01*
X479160Y130832D01*
Y130166D01*
X478493Y129499D01*
X479160Y128833D01*
Y128166D01*
X478493Y127500D01*
X477160D01*
X476494Y128166D01*
Y128833D01*
X477160Y129499D01*
X476494Y130166D01*
Y130832D01*
X477160Y129499D02*
X478493D01*
X469163Y134025D02*
Y138024D01*
X471162D01*
X471829Y137357D01*
Y136024D01*
X471162Y135358D01*
X469163D01*
X470496D02*
X471829Y134025D01*
X473162D02*
X474494D01*
X473828D01*
Y138024D01*
X473162Y137357D01*
X479160Y138024D02*
X477827Y137357D01*
X476494Y136024D01*
Y134692D01*
X477160Y134025D01*
X478493D01*
X479160Y134692D01*
Y135358D01*
X478493Y136024D01*
X476494D01*
X496393Y93332D02*
X495726Y93999D01*
X494393D01*
X493727Y93332D01*
Y92666D01*
X494393Y91999D01*
X495726D01*
X496393Y91333D01*
Y90666D01*
X495726Y90000D01*
X494393D01*
X493727Y90666D01*
X497726Y93999D02*
Y90000D01*
X499058Y91333D01*
X500391Y90000D01*
Y93999D01*
X501724Y93332D02*
X502391Y93999D01*
X503724D01*
X504390Y93332D01*
Y92666D01*
X503724Y91999D01*
X503057D01*
X503724D01*
X504390Y91333D01*
Y90666D01*
X503724Y90000D01*
X502391D01*
X501724Y90666D01*
X496393Y135222D02*
X495726Y135889D01*
X494393D01*
X493727Y135222D01*
Y134556D01*
X494393Y133889D01*
X495726D01*
X496393Y133223D01*
Y132556D01*
X495726Y131890D01*
X494393D01*
X493727Y132556D01*
X497726Y135889D02*
Y131890D01*
X499058Y133223D01*
X500391Y131890D01*
Y135889D01*
X504390Y131890D02*
X501724D01*
X504390Y134556D01*
Y135222D01*
X503724Y135889D01*
X502391D01*
X501724Y135222D01*
X437532Y115605D02*
Y112273D01*
X438198Y111606D01*
X439531D01*
X440197Y112273D01*
Y115605D01*
X444196Y114939D02*
X443530Y115605D01*
X442197D01*
X441530Y114939D01*
Y114272D01*
X442197Y113606D01*
X443530D01*
X444196Y112939D01*
Y112273D01*
X443530Y111606D01*
X442197D01*
X441530Y112273D01*
X445529Y115605D02*
Y111606D01*
X447528D01*
X448195Y112273D01*
Y112939D01*
X447528Y113606D01*
X445529D01*
X447528D01*
X448195Y114272D01*
Y114939D01*
X447528Y115605D01*
X445529D01*
X94000Y29499D02*
X97332D01*
X95666Y31165D02*
Y27833D01*
X306168Y118166D02*
X305501Y117499D01*
Y116166D01*
X306168Y115500D01*
X306834D01*
X307501Y116166D01*
Y117499D01*
X308167Y118166D01*
X308834D01*
X309500Y117499D01*
Y116166D01*
X308834Y115500D01*
X305501Y119499D02*
X309500D01*
X308167Y120832D01*
X309500Y122164D01*
X305501D01*
X309500Y125497D02*
X305501D01*
X307501Y123497D01*
Y126163D01*
X228166Y155832D02*
X227499Y156499D01*
X226166D01*
X225500Y155832D01*
Y153166D01*
X226166Y152500D01*
X227499D01*
X228166Y153166D01*
Y154499D01*
X226833D01*
X229499Y152500D02*
Y156499D01*
X231498D01*
X232165Y155832D01*
Y154499D01*
X231498Y153833D01*
X229499D01*
X236163Y155832D02*
X235497Y156499D01*
X234164D01*
X233497Y155832D01*
Y155166D01*
X234164Y154499D01*
X235497D01*
X236163Y153833D01*
Y153166D01*
X235497Y152500D01*
X234164D01*
X233497Y153166D01*
X237496Y156499D02*
Y152500D01*
X239495D01*
X240162Y153166D01*
Y155832D01*
X239495Y156499D01*
X237496D01*
X241495D02*
Y152500D01*
X244161D01*
X47438Y133636D02*
Y130304D01*
X48104Y129638D01*
X49437D01*
X50104Y130304D01*
Y133636D01*
X51437Y130304D02*
X52103Y129638D01*
X53436D01*
X54102Y130304D01*
Y132970D01*
X53436Y133636D01*
X52103D01*
X51437Y132970D01*
Y132304D01*
X52103Y131637D01*
X54102D01*
X128965Y66000D02*
Y69999D01*
X130964D01*
X131630Y69332D01*
Y67999D01*
X130964Y67333D01*
X128965D01*
X130298D02*
X131630Y66000D01*
X132963Y69332D02*
X133630Y69999D01*
X134963D01*
X135629Y69332D01*
Y68666D01*
X134963Y67999D01*
X134296D01*
X134963D01*
X135629Y67333D01*
Y66666D01*
X134963Y66000D01*
X133630D01*
X132963Y66666D01*
X139628Y66000D02*
X136962D01*
X139628Y68666D01*
Y69332D01*
X138961Y69999D01*
X137628D01*
X136962Y69332D01*
X129000Y59000D02*
Y62999D01*
X130999D01*
X131666Y62332D01*
Y60999D01*
X130999Y60333D01*
X129000D01*
X130333D02*
X131666Y59000D01*
X132999Y62332D02*
X133665Y62999D01*
X134998D01*
X135664Y62332D01*
Y61666D01*
X134998Y60999D01*
X134332D01*
X134998D01*
X135664Y60333D01*
Y59666D01*
X134998Y59000D01*
X133665D01*
X132999Y59666D01*
X136997Y59000D02*
X138330D01*
X137664D01*
Y62999D01*
X136997Y62332D01*
X129668Y112181D02*
X129001Y111515D01*
Y110182D01*
X129668Y109516D01*
X132334D01*
X133000Y110182D01*
Y111515D01*
X132334Y112181D01*
X129668Y113514D02*
X129001Y114181D01*
Y115514D01*
X129668Y116180D01*
X130334D01*
X131001Y115514D01*
Y114847D01*
Y115514D01*
X131667Y116180D01*
X132334D01*
X133000Y115514D01*
Y114181D01*
X132334Y113514D01*
X129001Y117513D02*
Y120179D01*
X129668D01*
X132334Y117513D01*
X133000D01*
X122168Y112181D02*
X121501Y111515D01*
Y110182D01*
X122168Y109516D01*
X124834D01*
X125500Y110182D01*
Y111515D01*
X124834Y112181D01*
X122168Y113514D02*
X121501Y114181D01*
Y115514D01*
X122168Y116180D01*
X122834D01*
X123501Y115514D01*
Y114847D01*
Y115514D01*
X124167Y116180D01*
X124834D01*
X125500Y115514D01*
Y114181D01*
X124834Y113514D01*
X121501Y120179D02*
X122168Y118846D01*
X123501Y117513D01*
X124834D01*
X125500Y118180D01*
Y119512D01*
X124834Y120179D01*
X124167D01*
X123501Y119512D01*
Y117513D01*
X195038Y29388D02*
X191039D01*
Y31387D01*
X191706Y32054D01*
X193038D01*
X193705Y31387D01*
Y29388D01*
Y30721D02*
X195038Y32054D01*
X191706Y33387D02*
X191039Y34053D01*
Y35386D01*
X191706Y36052D01*
X192372D01*
X193038Y35386D01*
Y34719D01*
Y35386D01*
X193705Y36052D01*
X194371D01*
X195038Y35386D01*
Y34053D01*
X194371Y33387D01*
X191706Y37385D02*
X191039Y38052D01*
Y39385D01*
X191706Y40051D01*
X194371D01*
X195038Y39385D01*
Y38052D01*
X194371Y37385D01*
X191706D01*
X179000Y17000D02*
X175001D01*
Y18999D01*
X175668Y19666D01*
X177001D01*
X177667Y18999D01*
Y17000D01*
Y18333D02*
X179000Y19666D01*
Y23664D02*
Y20999D01*
X176334Y23664D01*
X175668D01*
X175001Y22998D01*
Y21665D01*
X175668Y20999D01*
X178333Y24997D02*
X179000Y25664D01*
Y26997D01*
X178333Y27663D01*
X175668D01*
X175001Y26997D01*
Y25664D01*
X175668Y24997D01*
X176334D01*
X177001Y25664D01*
Y27663D01*
X160146Y39166D02*
Y41832D01*
X159480Y42499D01*
X158147D01*
X157480Y41832D01*
Y39166D01*
X158147Y38500D01*
X159480D01*
X158813Y39833D02*
X160146Y38500D01*
X159480D02*
X160146Y39166D01*
X161479Y38500D02*
X162812D01*
X162145D01*
Y42499D01*
X161479Y41832D01*
X170150Y55463D02*
Y51465D01*
X172149D01*
X172815Y52131D01*
Y54797D01*
X172149Y55463D01*
X170150D01*
X176814D02*
X175481Y54797D01*
X174148Y53464D01*
Y52131D01*
X174815Y51465D01*
X176148D01*
X176814Y52131D01*
Y52798D01*
X176148Y53464D01*
X174148D01*
X90500Y40499D02*
Y36500D01*
X92499D01*
X93166Y37166D01*
Y37833D01*
X92499Y38499D01*
X90500D01*
X92499D01*
X93166Y39166D01*
Y39832D01*
X92499Y40499D01*
X90500D01*
X97164D02*
X94499D01*
Y36500D01*
X97164D01*
X94499Y38499D02*
X95832D01*
X101163Y40499D02*
X98497D01*
Y36500D01*
X101163D01*
X98497Y38499D02*
X99830D01*
X102496Y36500D02*
Y40499D01*
X104496D01*
X105162Y39832D01*
Y38499D01*
X104496Y37833D01*
X102496D01*
X109161Y40499D02*
X106495D01*
Y36500D01*
X109161D01*
X106495Y38499D02*
X107828D01*
X110494Y36500D02*
Y40499D01*
X112493D01*
X113159Y39832D01*
Y38499D01*
X112493Y37833D01*
X110494D01*
X111826D02*
X113159Y36500D01*
X114492D02*
X115825D01*
X115159D01*
Y40499D01*
X114492Y39832D01*
X8571Y129316D02*
X7905Y129983D01*
X6572D01*
X5906Y129316D01*
Y128650D01*
X6572Y127984D01*
X7905D01*
X8571Y127317D01*
Y126651D01*
X7905Y125984D01*
X6572D01*
X5906Y126651D01*
X9904Y129983D02*
Y125984D01*
X11237Y127317D01*
X12570Y125984D01*
Y129983D01*
X13903Y125984D02*
X15236D01*
X14569D01*
Y129983D01*
X13903Y129316D01*
X131500Y143500D02*
Y147499D01*
X133499D01*
X134166Y146832D01*
Y145499D01*
X133499Y144833D01*
X131500D01*
X132833D02*
X134166Y143500D01*
X138164D02*
X135499D01*
X138164Y146166D01*
Y146832D01*
X137498Y147499D01*
X136165D01*
X135499Y146832D01*
X139497D02*
X140164Y147499D01*
X141497D01*
X142163Y146832D01*
Y146166D01*
X141497Y145499D01*
X142163Y144833D01*
Y144167D01*
X141497Y143500D01*
X140164D01*
X139497Y144167D01*
Y144833D01*
X140164Y145499D01*
X139497Y146166D01*
Y146832D01*
X140164Y145499D02*
X141497D01*
X134166Y139332D02*
X133499Y139999D01*
X132167D01*
X131500Y139332D01*
Y136667D01*
X132167Y136000D01*
X133499D01*
X134166Y136667D01*
X135499Y139332D02*
X136165Y139999D01*
X137498D01*
X138164Y139332D01*
Y138666D01*
X137498Y137999D01*
X136832D01*
X137498D01*
X138164Y137333D01*
Y136667D01*
X137498Y136000D01*
X136165D01*
X135499Y136667D01*
X142163Y139999D02*
X139497D01*
Y137999D01*
X140830Y138666D01*
X141497D01*
X142163Y137999D01*
Y136667D01*
X141497Y136000D01*
X140164D01*
X139497Y136667D01*
X253000Y107000D02*
Y110999D01*
X254999D01*
X255666Y110332D01*
Y108999D01*
X254999Y108333D01*
X253000D01*
X254333D02*
X255666Y107000D01*
X259665Y110999D02*
X256999D01*
Y107000D01*
X259665D01*
X256999Y108999D02*
X258332D01*
X263663Y110332D02*
X262997Y110999D01*
X261664D01*
X260997Y110332D01*
Y109666D01*
X261664Y108999D01*
X262997D01*
X263663Y108333D01*
Y107667D01*
X262997Y107000D01*
X261664D01*
X260997Y107667D01*
X267662Y110999D02*
X264996D01*
Y107000D01*
X267662D01*
X264996Y108999D02*
X266329D01*
X268995Y110999D02*
X271661D01*
X270328D01*
Y107000D01*
X219500Y33499D02*
Y32832D01*
X220833Y31499D01*
X222166Y32832D01*
Y33499D01*
X220833Y31499D02*
Y29500D01*
X223499D02*
X224832D01*
X224165D01*
Y33499D01*
X223499Y32832D01*
X193000Y156558D02*
Y153226D01*
X193667Y152559D01*
X194999D01*
X195666Y153226D01*
Y156558D01*
X196999Y152559D02*
Y155225D01*
X198332Y156558D01*
X199664Y155225D01*
Y152559D01*
Y154558D01*
X196999D01*
X200997Y152559D02*
Y156558D01*
X202997D01*
X203663Y155891D01*
Y154558D01*
X202997Y153892D01*
X200997D01*
X202330D02*
X203663Y152559D01*
X204996Y156558D02*
X207662D01*
X206329D01*
Y152559D01*
X208995D02*
X210328D01*
X209661D01*
Y156558D01*
X208995Y155891D01*
X204000Y100424D02*
Y97092D01*
X204666Y96425D01*
X205999D01*
X206666Y97092D01*
Y100424D01*
X207999Y99757D02*
X208665Y100424D01*
X209998D01*
X210665Y99757D01*
Y99091D01*
X209998Y98425D01*
X210665Y97758D01*
Y97092D01*
X209998Y96425D01*
X208665D01*
X207999Y97092D01*
Y97758D01*
X208665Y98425D01*
X207999Y99091D01*
Y99757D01*
X208665Y98425D02*
X209998D01*
X278512Y155832D02*
X277845Y156499D01*
X276512D01*
X275846Y155832D01*
Y155166D01*
X276512Y154499D01*
X277845D01*
X278512Y153833D01*
Y153166D01*
X277845Y152500D01*
X276512D01*
X275846Y153166D01*
X279844Y156499D02*
Y152500D01*
X281177Y153833D01*
X282510Y152500D01*
Y156499D01*
X283843D02*
Y152500D01*
X285842D01*
X286509Y153166D01*
Y155832D01*
X285842Y156499D01*
X283843D01*
X57000Y56332D02*
Y52333D01*
X58999D01*
X59666Y53000D01*
Y53666D01*
X58999Y54333D01*
X57000D01*
X58999D01*
X59666Y54999D01*
Y55666D01*
X58999Y56332D01*
X57000D01*
X62998D02*
X61665D01*
X60999Y55666D01*
Y53000D01*
X61665Y52333D01*
X62998D01*
X63665Y53000D01*
Y55666D01*
X62998Y56332D01*
X66997D02*
X65664D01*
X64997Y55666D01*
Y53000D01*
X65664Y52333D01*
X66997D01*
X67663Y53000D01*
Y55666D01*
X66997Y56332D01*
X68996D02*
X71662D01*
X70329D01*
Y52333D01*
X72995Y55666D02*
X73661Y56332D01*
X74994D01*
X75661Y55666D01*
Y53000D01*
X74994Y52333D01*
X73661D01*
X72995Y53000D01*
Y55666D01*
X32000Y56332D02*
Y52333D01*
X33999D01*
X34666Y53000D01*
Y53666D01*
X33999Y54333D01*
X32000D01*
X33999D01*
X34666Y54999D01*
Y55666D01*
X33999Y56332D01*
X32000D01*
X37998D02*
X36665D01*
X35999Y55666D01*
Y53000D01*
X36665Y52333D01*
X37998D01*
X38664Y53000D01*
Y55666D01*
X37998Y56332D01*
X41997D02*
X40664D01*
X39997Y55666D01*
Y53000D01*
X40664Y52333D01*
X41997D01*
X42663Y53000D01*
Y55666D01*
X41997Y56332D01*
X43996D02*
X46662D01*
X45329D01*
Y52333D01*
X47995D02*
X49328D01*
X48661D01*
Y56332D01*
X47995Y55666D01*
X129000Y51465D02*
Y55463D01*
X130999D01*
X131666Y54797D01*
Y53464D01*
X130999Y52798D01*
X129000D01*
X130333D02*
X131666Y51465D01*
X135664D02*
X132999D01*
X135664Y54130D01*
Y54797D01*
X134998Y55463D01*
X133665D01*
X132999Y54797D01*
X136997Y55463D02*
X139663D01*
Y54797D01*
X136997Y52131D01*
Y51465D01*
X129000Y44138D02*
Y48136D01*
X130999D01*
X131666Y47470D01*
Y46137D01*
X130999Y45471D01*
X129000D01*
X130333D02*
X131666Y44138D01*
X135664D02*
X132999D01*
X135664Y46804D01*
Y47470D01*
X134998Y48136D01*
X133665D01*
X132999Y47470D01*
X139663Y48136D02*
X138330Y47470D01*
X136997Y46137D01*
Y44804D01*
X137664Y44138D01*
X138997D01*
X139663Y44804D01*
Y45471D01*
X138997Y46137D01*
X136997D01*
X199500Y44000D02*
Y47999D01*
X201499D01*
X202166Y47332D01*
Y45999D01*
X201499Y45333D01*
X199500D01*
X200833D02*
X202166Y44000D01*
X206165D02*
X203499D01*
X206165Y46666D01*
Y47332D01*
X205498Y47999D01*
X204165D01*
X203499Y47332D01*
X209497Y44000D02*
Y47999D01*
X207497Y45999D01*
X210163D01*
X199500Y68000D02*
Y71999D01*
X201499D01*
X202166Y71332D01*
Y69999D01*
X201499Y69333D01*
X199500D01*
X200833D02*
X202166Y68000D01*
X203499D02*
X204832D01*
X204165D01*
Y71999D01*
X203499Y71332D01*
X209497Y71999D02*
X206831D01*
Y69999D01*
X208164Y70666D01*
X208830D01*
X209497Y69999D01*
Y68666D01*
X208830Y68000D01*
X207497D01*
X206831Y68666D01*
X323346Y155832D02*
X324013Y156499D01*
X325346D01*
X326012Y155832D01*
Y155166D01*
X325346Y154499D01*
X326012Y153833D01*
Y153166D01*
X325346Y152500D01*
X324013D01*
X323346Y153166D01*
Y153833D01*
X324013Y154499D01*
X323346Y155166D01*
Y155832D01*
X324013Y154499D02*
X325346D01*
X330011Y152500D02*
X327345D01*
X330011Y155166D01*
Y155832D01*
X329345Y156499D01*
X328012D01*
X327345Y155832D01*
X334010Y156499D02*
X332677Y155832D01*
X331344Y154499D01*
Y153166D01*
X332010Y152500D01*
X333343D01*
X334010Y153166D01*
Y153833D01*
X333343Y154499D01*
X331344D01*
X338008Y156499D02*
X336676Y155832D01*
X335343Y154499D01*
Y153166D01*
X336009Y152500D01*
X337342D01*
X338008Y153166D01*
Y153833D01*
X337342Y154499D01*
X335343D01*
X339341Y156499D02*
Y152500D01*
X341341D01*
X342007Y153166D01*
Y155832D01*
X341341Y156499D01*
X339341D01*
X343340D02*
Y152500D01*
X346006D01*
X289567Y101332D02*
X288901Y101999D01*
X287568D01*
X286901Y101332D01*
Y98666D01*
X287568Y98000D01*
X288901D01*
X289567Y98666D01*
X290900Y101332D02*
X291567Y101999D01*
X292900D01*
X293566Y101332D01*
Y100666D01*
X292900Y99999D01*
X292233D01*
X292900D01*
X293566Y99333D01*
Y98666D01*
X292900Y98000D01*
X291567D01*
X290900Y98666D01*
X297565Y98000D02*
X294899D01*
X297565Y100666D01*
Y101332D01*
X296898Y101999D01*
X295565D01*
X294899Y101332D01*
X202166Y65029D02*
X201499Y65696D01*
X200167D01*
X199500Y65029D01*
Y62363D01*
X200167Y61697D01*
X201499D01*
X202166Y62363D01*
X203499Y65029D02*
X204165Y65696D01*
X205498D01*
X206165Y65029D01*
Y64363D01*
X205498Y63696D01*
X204832D01*
X205498D01*
X206165Y63030D01*
Y62363D01*
X205498Y61697D01*
X204165D01*
X203499Y62363D01*
X207497Y65029D02*
X208164Y65696D01*
X209497D01*
X210163Y65029D01*
Y62363D01*
X209497Y61697D01*
X208164D01*
X207497Y62363D01*
Y65029D01*
X235504Y121291D02*
X234837Y121958D01*
X233504D01*
X232838Y121291D01*
Y118625D01*
X233504Y117959D01*
X234837D01*
X235504Y118625D01*
X239502Y117959D02*
X236837D01*
X239502Y120625D01*
Y121291D01*
X238836Y121958D01*
X237503D01*
X236837Y121291D01*
X240835Y118625D02*
X241502Y117959D01*
X242835D01*
X243501Y118625D01*
Y121291D01*
X242835Y121958D01*
X241502D01*
X240835Y121291D01*
Y120625D01*
X241502Y119958D01*
X243501D01*
X202166Y54407D02*
X201499Y55073D01*
X200167D01*
X199500Y54407D01*
Y51741D01*
X200167Y51075D01*
X201499D01*
X202166Y51741D01*
X206165Y51075D02*
X203499D01*
X206165Y53741D01*
Y54407D01*
X205498Y55073D01*
X204165D01*
X203499Y54407D01*
X207497D02*
X208164Y55073D01*
X209497D01*
X210163Y54407D01*
Y53741D01*
X209497Y53074D01*
X210163Y52408D01*
Y51741D01*
X209497Y51075D01*
X208164D01*
X207497Y51741D01*
Y52408D01*
X208164Y53074D01*
X207497Y53741D01*
Y54407D01*
X208164Y53074D02*
X209497D01*
X290126Y82670D02*
X289459Y83337D01*
X288126D01*
X287460Y82670D01*
Y80004D01*
X288126Y79338D01*
X289459D01*
X290126Y80004D01*
X294124Y79338D02*
X291459D01*
X294124Y82004D01*
Y82670D01*
X293458Y83337D01*
X292125D01*
X291459Y82670D01*
X297457Y79338D02*
Y83337D01*
X295457Y81337D01*
X298123D01*
X440043Y134843D02*
Y138841D01*
X442043D01*
X442709Y138175D01*
Y136842D01*
X442043Y136175D01*
X440043D01*
X441376D02*
X442709Y134843D01*
X446708Y138841D02*
X444042D01*
Y136842D01*
X445375Y137508D01*
X446041D01*
X446708Y136842D01*
Y135509D01*
X446041Y134843D01*
X444708D01*
X444042Y135509D01*
X441642Y144080D02*
X440976Y144747D01*
X439643D01*
X438976Y144080D01*
Y141414D01*
X439643Y140748D01*
X440976D01*
X441642Y141414D01*
X445641Y140748D02*
X442975D01*
X445641Y143414D01*
Y144080D01*
X444974Y144747D01*
X443642D01*
X442975Y144080D01*
X446974D02*
X447640Y144747D01*
X448973D01*
X449640Y144080D01*
Y143414D01*
X448973Y142747D01*
X448307D01*
X448973D01*
X449640Y142081D01*
Y141414D01*
X448973Y140748D01*
X447640D01*
X446974Y141414D01*
X418307Y74999D02*
Y71666D01*
X418973Y71000D01*
X420306D01*
X420973Y71666D01*
Y74999D01*
X424972D02*
X423639Y74332D01*
X422306Y72999D01*
Y71666D01*
X422972Y71000D01*
X424305D01*
X424972Y71666D01*
Y72333D01*
X424305Y72999D01*
X422306D01*
X345278Y140666D02*
X344612Y139999D01*
Y138666D01*
X345278Y138000D01*
X347944D01*
X348610Y138666D01*
Y139999D01*
X347944Y140666D01*
X348610Y141999D02*
Y143332D01*
Y142665D01*
X344612D01*
X345278Y141999D01*
X344612Y147997D02*
X345278Y146664D01*
X346611Y145331D01*
X347944D01*
X348610Y145997D01*
Y147330D01*
X347944Y147997D01*
X347277D01*
X346611Y147330D01*
Y145331D01*
X200168Y6166D02*
X199501Y5499D01*
Y4166D01*
X200168Y3500D01*
X202834D01*
X203500Y4166D01*
Y5499D01*
X202834Y6166D01*
X203500Y7499D02*
Y8832D01*
Y8165D01*
X199501D01*
X200168Y7499D01*
Y10831D02*
X199501Y11497D01*
Y12830D01*
X200168Y13497D01*
X200834D01*
X201501Y12830D01*
Y12164D01*
Y12830D01*
X202167Y13497D01*
X202834D01*
X203500Y12830D01*
Y11497D01*
X202834Y10831D01*
X173228Y138889D02*
Y134890D01*
X175228D01*
X175894Y135556D01*
Y136223D01*
X175228Y136889D01*
X173228D01*
X175228D01*
X175894Y137556D01*
Y138222D01*
X175228Y138889D01*
X173228D01*
X177227D02*
X179893D01*
X178560D01*
Y134890D01*
X181226D02*
X182559D01*
X181892D01*
Y138889D01*
X181226Y138222D01*
X304000Y101499D02*
Y98166D01*
X304666Y97500D01*
X305999D01*
X306666Y98166D01*
Y101499D01*
X310665D02*
X307999D01*
Y99499D01*
X309332Y100166D01*
X309998D01*
X310665Y99499D01*
Y98166D01*
X309998Y97500D01*
X308665D01*
X307999Y98166D01*
X167000Y13499D02*
Y10166D01*
X167666Y9500D01*
X168999D01*
X169666Y10166D01*
Y13499D01*
X170999Y12832D02*
X171665Y13499D01*
X172998D01*
X173664Y12832D01*
Y12166D01*
X172998Y11499D01*
X172332D01*
X172998D01*
X173664Y10833D01*
Y10166D01*
X172998Y9500D01*
X171665D01*
X170999Y10166D01*
X188000Y67499D02*
Y63500D01*
X189999D01*
X190666Y64166D01*
Y66832D01*
X189999Y67499D01*
X188000D01*
X194665D02*
X191999D01*
Y65499D01*
X193332Y66166D01*
X193998D01*
X194665Y65499D01*
Y64166D01*
X193998Y63500D01*
X192665D01*
X191999Y64166D01*
X106166Y17832D02*
X105499Y18499D01*
X104166D01*
X103500Y17832D01*
Y15167D01*
X104166Y14500D01*
X105499D01*
X106166Y15167D01*
X109498Y14500D02*
Y18499D01*
X107499Y16499D01*
X110164D01*
X489112Y53847D02*
Y51181D01*
X491111D01*
Y52514D01*
Y51181D01*
X493110D01*
Y55180D02*
Y56513D01*
Y55846D01*
X489112D01*
X489778Y55180D01*
X477362Y21420D02*
Y17421D01*
X479361D01*
X480028Y18088D01*
Y20753D01*
X479361Y21420D01*
X477362D01*
X484027Y17421D02*
X481361D01*
X484027Y20087D01*
Y20753D01*
X483360Y21420D01*
X482027D01*
X481361Y20753D01*
X231146Y60298D02*
Y56966D01*
X231812Y56299D01*
X233145D01*
X233811Y56966D01*
Y60298D01*
X235144Y56299D02*
X236477D01*
X235811D01*
Y60298D01*
X235144Y59632D01*
X153001Y17557D02*
X152335Y18223D01*
X151002D01*
X150336Y17557D01*
Y14891D01*
X151002Y14224D01*
X152335D01*
X153001Y14891D01*
X154334Y14224D02*
X155667D01*
X155001D01*
Y18223D01*
X154334Y17557D01*
D20*
X294500Y15504D02*
Y31504D01*
X293500Y14504D02*
X294500Y15504D01*
X277500Y14504D02*
X293500D01*
X276500Y15504D02*
X277500Y14504D01*
X276500Y15504D02*
Y31504D01*
X277500Y32504D01*
X293500D01*
X294500Y31504D01*
M02*
