G04*
G04 #@! TF.GenerationSoftware,Altium Limited,Altium Designer,18.1.7 (191)*
G04*
G04 Layer_Physical_Order=1*
G04 Layer_Color=255*
%FSLAX25Y25*%
%MOIN*%
G70*
G01*
G75*
%ADD15C,0.01000*%
%ADD19C,0.00800*%
%ADD61R,0.04921X0.03937*%
G04:AMPARAMS|DCode=62|XSize=51.18mil|YSize=157.48mil|CornerRadius=12.8mil|HoleSize=0mil|Usage=FLASHONLY|Rotation=90.000|XOffset=0mil|YOffset=0mil|HoleType=Round|Shape=RoundedRectangle|*
%AMROUNDEDRECTD62*
21,1,0.05118,0.13189,0,0,90.0*
21,1,0.02559,0.15748,0,0,90.0*
1,1,0.02559,0.06594,0.01280*
1,1,0.02559,0.06594,-0.01280*
1,1,0.02559,-0.06594,-0.01280*
1,1,0.02559,-0.06594,0.01280*
%
%ADD62ROUNDEDRECTD62*%
%ADD63R,0.12402X0.06299*%
%ADD64R,0.03858X0.03661*%
%ADD65R,0.04449X0.07087*%
%ADD66R,0.05787X0.04567*%
%ADD67O,0.07087X0.02756*%
%ADD68R,0.03661X0.03858*%
%ADD69R,0.04567X0.05787*%
%ADD70R,0.07874X0.07874*%
%ADD71O,0.02756X0.07087*%
%ADD72R,0.02756X0.04921*%
%ADD73R,0.04921X0.02756*%
%ADD74R,0.07874X0.07874*%
%ADD75R,0.03937X0.02362*%
%ADD76R,0.05906X0.09843*%
%ADD77R,0.02756X0.01575*%
%ADD78O,0.09843X0.03937*%
%ADD79O,0.07087X0.01102*%
%ADD80O,0.01102X0.07087*%
%ADD81R,0.06693X0.03937*%
%ADD82O,0.07087X0.03937*%
G04:AMPARAMS|DCode=83|XSize=98.43mil|YSize=236.22mil|CornerRadius=0mil|HoleSize=0mil|Usage=FLASHONLY|Rotation=0.000|XOffset=0mil|YOffset=0mil|HoleType=Round|Shape=Octagon|*
%AMOCTAGOND83*
4,1,8,-0.02461,0.11811,0.02461,0.11811,0.04921,0.09350,0.04921,-0.09350,0.02461,-0.11811,-0.02461,-0.11811,-0.04921,-0.09350,-0.04921,0.09350,-0.02461,0.11811,0.0*
%
%ADD83OCTAGOND83*%

%ADD84O,0.09843X0.23622*%
%ADD85R,0.07874X0.07087*%
%ADD86R,0.06299X0.07087*%
%ADD87R,0.02362X0.04331*%
%ADD88R,0.08661X0.03937*%
%ADD89R,0.08661X0.13780*%
%ADD90C,0.03000*%
%ADD91C,0.02500*%
%ADD92C,0.01500*%
%ADD93C,0.04000*%
%ADD94C,0.02000*%
%ADD95C,0.01200*%
%ADD96C,0.01100*%
%ADD97C,0.05000*%
%ADD98C,0.03500*%
%ADD99C,0.03150*%
%ADD100O,0.05906X0.04331*%
%ADD101O,0.06693X0.04331*%
%ADD102O,0.04331X0.09449*%
%ADD103O,0.03937X0.03150*%
%ADD104C,0.05906*%
%ADD105R,0.05906X0.05906*%
%ADD106C,0.05512*%
%ADD107C,0.04331*%
%ADD108O,0.05118X0.06299*%
%ADD109C,0.02600*%
G36*
X349810Y156000D02*
X349810Y140803D01*
X349500Y140549D01*
X344759D01*
X344565Y140814D01*
X344316Y141549D01*
X344686Y142103D01*
X344765Y142500D01*
X340274D01*
X340353Y142103D01*
X340723Y141549D01*
X340475Y140814D01*
X340280Y140549D01*
X340000D01*
X339024Y140355D01*
X338198Y139802D01*
X335444Y137049D01*
X316032D01*
X315631Y137469D01*
X315782Y138694D01*
X316003Y138842D01*
X316512Y139603D01*
X316591Y140000D01*
X312100D01*
X312178Y139603D01*
X312687Y138842D01*
X313169Y138520D01*
X312866Y137520D01*
X305500D01*
X305110Y137442D01*
X304779Y137221D01*
X304607Y137049D01*
X274995D01*
X274019Y136855D01*
X273192Y136302D01*
X268828Y131938D01*
X268275Y131111D01*
X268081Y130135D01*
Y128963D01*
X267811Y128756D01*
X267177Y127930D01*
X266779Y126969D01*
X266643Y125937D01*
X266779Y124905D01*
X267177Y123944D01*
X267456Y123580D01*
X266963Y122580D01*
X264297D01*
X263804Y123580D01*
X264083Y123944D01*
X264481Y124905D01*
X264551Y125437D01*
X260630D01*
X256709D01*
X256779Y124905D01*
X257177Y123944D01*
X257456Y123580D01*
X256963Y122580D01*
X249583D01*
Y125437D01*
X245630D01*
X241677D01*
Y122580D01*
X239297D01*
X238804Y123580D01*
X239083Y123944D01*
X239481Y124905D01*
X239617Y125937D01*
X239481Y126969D01*
X239083Y127930D01*
X238449Y128756D01*
X237623Y129390D01*
X236662Y129788D01*
X235630Y129924D01*
X234598Y129788D01*
X233636Y129390D01*
X232811Y128756D01*
X232177Y127930D01*
X231779Y126969D01*
X231643Y125937D01*
X231779Y124905D01*
X231950Y124492D01*
X228173Y120715D01*
X227608Y120882D01*
X227210Y121167D01*
Y122313D01*
X227623Y122484D01*
X228449Y123118D01*
X229083Y123944D01*
X229481Y124905D01*
X229617Y125937D01*
X229481Y126969D01*
X229083Y127930D01*
X228449Y128756D01*
X227623Y129390D01*
X226662Y129788D01*
X225630Y129924D01*
X224598Y129788D01*
X223637Y129390D01*
X222811Y128756D01*
X222177Y127930D01*
X221779Y126969D01*
X221643Y125937D01*
X221779Y124905D01*
X222177Y123944D01*
X222811Y123118D01*
X223637Y122484D01*
X223637Y122484D01*
X223784Y121389D01*
X221862Y119467D01*
X221520Y118955D01*
X221399Y118350D01*
Y95234D01*
X221322Y95182D01*
X220813Y94421D01*
X220700Y93853D01*
X219806Y93468D01*
X219680Y93460D01*
X217270Y95869D01*
X216757Y96212D01*
X216153Y96332D01*
X212248D01*
X211643Y96212D01*
X211130Y95869D01*
X209383Y94121D01*
X209040Y93609D01*
X208920Y93004D01*
Y91733D01*
X208786Y91644D01*
X208585Y91344D01*
X207415D01*
X207214Y91644D01*
X206428Y92169D01*
X205500Y92354D01*
X204572Y92169D01*
X203786Y91644D01*
X203585Y91344D01*
X202415D01*
X202214Y91644D01*
X201428Y92169D01*
X201000Y92254D01*
Y87764D01*
X200500D01*
Y87264D01*
X198075D01*
Y85598D01*
X198260Y84671D01*
X198786Y83884D01*
X198866Y82628D01*
X198711Y82435D01*
X197138D01*
Y80006D01*
X199969D01*
Y79006D01*
X197138D01*
Y76577D01*
X198688D01*
X198991Y75577D01*
X198842Y75477D01*
X198333Y74716D01*
X198155Y73819D01*
X198242Y73379D01*
X197321Y72887D01*
X195330Y74877D01*
Y94595D01*
X200880Y100145D01*
X211725D01*
X212330Y100265D01*
X212842Y100608D01*
X215976Y103741D01*
X216428Y103831D01*
X217214Y104357D01*
X217740Y105143D01*
X217924Y106071D01*
Y110402D01*
X217740Y111329D01*
X217214Y112116D01*
X216428Y112642D01*
X215500Y112826D01*
X214572Y112642D01*
X213786Y112116D01*
X212794Y112432D01*
Y113866D01*
X212811Y113949D01*
X212921Y114187D01*
X213632Y114787D01*
X213799Y114787D01*
X215531D01*
Y117717D01*
Y120646D01*
X213799D01*
X213201Y120646D01*
X212201Y120646D01*
X207138D01*
Y120646D01*
X206492D01*
Y120646D01*
X200831D01*
X200831Y120646D01*
X200429D01*
Y120646D01*
X199831Y120646D01*
X194768D01*
Y117121D01*
X193949Y116303D01*
X193607Y115790D01*
X193487Y115185D01*
Y107052D01*
X193115Y106746D01*
X192118Y106485D01*
X188985Y109617D01*
X188472Y109960D01*
X187868Y110080D01*
X158186D01*
X155438Y112829D01*
X155504Y113188D01*
X155762Y113356D01*
X156591Y113568D01*
X157103Y113225D01*
X158000Y113047D01*
X158897Y113225D01*
X159658Y113734D01*
X160167Y114495D01*
X160345Y115392D01*
X160167Y116289D01*
X159784Y116862D01*
Y125208D01*
X160784Y125566D01*
X161147Y125124D01*
X162049Y124383D01*
X163077Y123834D01*
X164194Y123495D01*
X164854Y123430D01*
Y136221D01*
X165354D01*
Y136721D01*
X171304D01*
Y143110D01*
X171190Y144271D01*
X170851Y145387D01*
X170301Y146416D01*
X169562Y147318D01*
X168660Y148057D01*
X168192Y148307D01*
X167521Y149103D01*
X167600Y149500D01*
X165354D01*
Y150500D01*
X167600D01*
X167521Y150897D01*
X167013Y151658D01*
X166252Y152167D01*
X165912Y152234D01*
X165471Y153310D01*
X165667Y153603D01*
X165845Y154500D01*
X165746Y155000D01*
X166375Y156000D01*
X349810D01*
D02*
G37*
G36*
X146625D02*
X147254Y155000D01*
X147155Y154500D01*
X147333Y153603D01*
X147842Y152842D01*
X148603Y152333D01*
X149500Y152155D01*
X150009Y152256D01*
X150920Y151345D01*
Y148672D01*
X150299Y147929D01*
X149701Y147929D01*
X147968D01*
Y145000D01*
Y142071D01*
X149701D01*
X150299Y142071D01*
X150971D01*
X151298Y141500D01*
X150971Y140929D01*
X149701Y140929D01*
X147968D01*
Y138000D01*
X147468D01*
Y137500D01*
X144638D01*
Y135071D01*
X145376D01*
X145651Y134493D01*
X145752Y134071D01*
X145302Y133397D01*
X145223Y133000D01*
X149714D01*
X149635Y133397D01*
X149185Y134071D01*
X149286Y134493D01*
X149561Y135071D01*
X150299Y135071D01*
X151244Y135071D01*
X151951Y134364D01*
Y112500D01*
X152071Y111895D01*
X152414Y111382D01*
X156414Y107383D01*
X156927Y107040D01*
X157531Y106920D01*
X180487D01*
X181213Y105920D01*
X181155Y105626D01*
X181333Y104729D01*
X181716Y104157D01*
Y72014D01*
X181362D01*
Y65092D01*
X186118D01*
Y72014D01*
X185284D01*
Y104157D01*
X185667Y104729D01*
X185845Y105626D01*
X185798Y105861D01*
X186402Y106661D01*
X187415Y106718D01*
X189420Y104713D01*
Y73067D01*
X189540Y72462D01*
X189883Y71949D01*
X194556Y67276D01*
X194227Y66191D01*
X194103Y66167D01*
X193342Y65658D01*
X192833Y64897D01*
X192655Y64000D01*
X192673Y63908D01*
X191785Y63020D01*
X191442Y62507D01*
X191322Y61902D01*
Y61704D01*
X190322Y60992D01*
X190000Y61056D01*
X189103Y60877D01*
X188342Y60369D01*
X188290Y60291D01*
X182378D01*
Y62171D01*
X177622D01*
Y55250D01*
X176899Y54580D01*
X154862D01*
Y55929D01*
X149799D01*
X149201Y55929D01*
X148201Y55929D01*
X143138D01*
Y55929D01*
X142138Y55318D01*
X142000Y55345D01*
X141103Y55167D01*
X140342Y54658D01*
X139833Y53897D01*
X139798Y53721D01*
X139721Y53605D01*
X139600Y53000D01*
X139721Y52395D01*
X139798Y52279D01*
X139833Y52103D01*
X140342Y51342D01*
X141103Y50833D01*
X142000Y50655D01*
X142138Y50682D01*
X143138Y50071D01*
Y50071D01*
X148201D01*
X148799Y50071D01*
X149799Y50071D01*
X154862D01*
Y51420D01*
X156719D01*
X157102Y50496D01*
X155652Y49046D01*
X154862Y48565D01*
Y48565D01*
X154862Y48565D01*
X149799D01*
X149201Y48565D01*
X148201Y48565D01*
X143138D01*
Y48565D01*
X142214Y47981D01*
X141317Y47802D01*
X140556Y47294D01*
X140048Y46533D01*
X139869Y45636D01*
X140048Y44738D01*
X140556Y43977D01*
X141317Y43469D01*
X142214Y43291D01*
X143138Y42707D01*
Y42707D01*
X148201D01*
X148799Y42707D01*
X149799Y42707D01*
X154862D01*
Y44132D01*
X155082Y44176D01*
X155594Y44518D01*
X160124Y49047D01*
X162215D01*
X163031Y48605D01*
Y44699D01*
X160423Y42091D01*
X160037Y41512D01*
X159901Y40829D01*
Y37514D01*
X158224D01*
Y32758D01*
X160216D01*
Y31470D01*
X159833Y30897D01*
X159655Y30000D01*
X159833Y29103D01*
X160342Y28342D01*
X161103Y27833D01*
X162000Y27655D01*
X162897Y27833D01*
X163453Y28205D01*
X164182Y27959D01*
X164453Y27762D01*
Y13000D01*
Y11156D01*
X158034Y4736D01*
X157358Y4815D01*
X157232Y4936D01*
X156774Y5783D01*
X157011Y6354D01*
X157133Y7283D01*
Y8465D01*
X157011Y9394D01*
X156652Y10259D01*
X156082Y11003D01*
X155338Y11573D01*
X155124Y11662D01*
Y32957D01*
X155003Y33562D01*
X154661Y34074D01*
X151827Y36908D01*
X151845Y37000D01*
X151667Y37897D01*
X151158Y38658D01*
X150397Y39167D01*
X149500Y39345D01*
X148603Y39167D01*
X147842Y38658D01*
X147333Y37897D01*
X147155Y37000D01*
X147333Y36103D01*
X147842Y35342D01*
X148603Y34833D01*
X149500Y34655D01*
X149592Y34673D01*
X151963Y32302D01*
Y11662D01*
X151748Y11573D01*
X151005Y11003D01*
X150435Y10259D01*
X150129Y9521D01*
X149617Y9394D01*
X149595D01*
X149084Y9521D01*
X148778Y10259D01*
X148208Y11003D01*
X147708Y11386D01*
Y13571D01*
X148362D01*
Y19429D01*
X143299D01*
X142701Y19429D01*
X141701Y19429D01*
X139969D01*
Y16500D01*
Y13571D01*
X141701D01*
X142299Y13571D01*
X142923D01*
X143630Y12864D01*
Y11386D01*
X143131Y11003D01*
X142561Y10259D01*
X142255Y9521D01*
X141743Y9394D01*
X141721D01*
X141210Y9521D01*
X140904Y10259D01*
X140334Y11003D01*
X139590Y11573D01*
X138724Y11932D01*
X137795Y12054D01*
X136866Y11932D01*
X136000Y11573D01*
X135257Y11003D01*
X134687Y10259D01*
X134381Y9521D01*
X133869Y9394D01*
X133847D01*
X133336Y9521D01*
X133030Y10259D01*
X132460Y11003D01*
X132080Y11294D01*
Y26790D01*
X132158Y26842D01*
X132667Y27603D01*
X132845Y28500D01*
X132667Y29397D01*
X132158Y30158D01*
X131397Y30667D01*
X130500Y30845D01*
X129603Y30667D01*
X128842Y30158D01*
X128333Y29397D01*
X128155Y28500D01*
X128333Y27603D01*
X128842Y26842D01*
X128920Y26790D01*
Y11902D01*
X128126Y11573D01*
X127383Y11003D01*
X126812Y10259D01*
X126507Y9521D01*
X125995Y9394D01*
X125973D01*
X125462Y9521D01*
X125156Y10259D01*
X124586Y11003D01*
X124536Y12301D01*
X126118Y13882D01*
X126460Y14395D01*
X126580Y15000D01*
Y30790D01*
X126658Y30842D01*
X127167Y31603D01*
X127345Y32500D01*
X127167Y33397D01*
X126658Y34158D01*
X125897Y34667D01*
X125000Y34845D01*
X124103Y34667D01*
X123342Y34158D01*
X122833Y33397D01*
X122655Y32500D01*
X122833Y31603D01*
X123342Y30842D01*
X123420Y30790D01*
Y15655D01*
X121961Y14196D01*
X121040Y14689D01*
X121080Y14894D01*
Y26790D01*
X121158Y26842D01*
X121667Y27603D01*
X121845Y28500D01*
X121667Y29397D01*
X121158Y30158D01*
X120397Y30667D01*
X119500Y30845D01*
X118603Y30667D01*
X117842Y30158D01*
X117333Y29397D01*
X117155Y28500D01*
X117333Y27603D01*
X117842Y26842D01*
X117920Y26790D01*
Y15548D01*
X114396Y12025D01*
X114173Y12054D01*
X113244Y11932D01*
X112378Y11573D01*
X111635Y11003D01*
X111064Y10259D01*
X110758Y9521D01*
X110247Y9394D01*
X110225D01*
X109714Y9521D01*
X109408Y10259D01*
X108838Y11003D01*
X108094Y11573D01*
X107228Y11932D01*
X106799Y11988D01*
Y7874D01*
X105799D01*
Y11988D01*
X105370Y11932D01*
X104504Y11573D01*
X103761Y11003D01*
X103190Y10259D01*
X102884Y9521D01*
X102373Y9394D01*
X102351D01*
X101840Y9521D01*
X101534Y10259D01*
X100963Y11003D01*
X100220Y11573D01*
X99354Y11932D01*
X99174Y11956D01*
X98511Y13034D01*
X98539Y13106D01*
X101287D01*
Y16500D01*
X98004D01*
Y17000D01*
X97504D01*
Y20894D01*
X97496D01*
Y24500D01*
X83704D01*
X83500Y24704D01*
Y6190D01*
X82576Y5808D01*
X79937Y8447D01*
Y18767D01*
X82244D01*
Y24704D01*
X73551D01*
Y23660D01*
X56653D01*
Y24589D01*
X47961D01*
Y18652D01*
X56653D01*
Y19582D01*
X73551D01*
Y18767D01*
X75858D01*
Y7602D01*
X76014Y6822D01*
X76456Y6160D01*
X80192Y2424D01*
X79810Y1500D01*
X14960D01*
X14710Y2500D01*
X15948Y3162D01*
X17345Y4308D01*
X18492Y5705D01*
X19343Y7299D01*
X19868Y9028D01*
X20045Y10827D01*
X19868Y12625D01*
X19343Y14355D01*
X18492Y15948D01*
X17345Y17345D01*
X15948Y18492D01*
X14355Y19343D01*
X12625Y19868D01*
X10827Y20045D01*
X9028Y19868D01*
X7299Y19343D01*
X5705Y18492D01*
X4308Y17345D01*
X3162Y15948D01*
X3000Y15645D01*
X2000Y15896D01*
Y38238D01*
X3000Y38489D01*
X3162Y38186D01*
X4308Y36789D01*
X5705Y35642D01*
X7299Y34790D01*
X9028Y34266D01*
X10827Y34089D01*
X12625Y34266D01*
X14355Y34790D01*
X15948Y35642D01*
X17345Y36789D01*
X18492Y38186D01*
X19343Y39779D01*
X19868Y41509D01*
X20045Y43307D01*
X19868Y45105D01*
X19343Y46835D01*
X18492Y48429D01*
X17345Y49826D01*
X15948Y50972D01*
X14355Y51824D01*
X12625Y52348D01*
X10827Y52526D01*
X9028Y52348D01*
X7299Y51824D01*
X5705Y50972D01*
X4308Y49826D01*
X3162Y48429D01*
X3000Y48126D01*
X2000Y48376D01*
X2000Y141585D01*
X3000Y141835D01*
X3162Y141532D01*
X4308Y140135D01*
X5705Y138989D01*
X7299Y138137D01*
X9028Y137612D01*
X10827Y137435D01*
X12625Y137612D01*
X14355Y138137D01*
X15948Y138989D01*
X17345Y140135D01*
X18492Y141532D01*
X19343Y143126D01*
X19868Y144855D01*
X20045Y146653D01*
X19868Y148452D01*
X19343Y150181D01*
X18492Y151775D01*
X17345Y153172D01*
X15948Y154318D01*
X14673Y155000D01*
X14923Y156000D01*
X146625Y156000D01*
D02*
G37*
G36*
X315630Y135370D02*
Y133130D01*
X315000Y132500D01*
X305667D01*
X305000Y133167D01*
Y136000D01*
X305500Y136500D01*
X314500D01*
X315630Y135370D01*
D02*
G37*
G36*
X343571Y133667D02*
X346500D01*
Y132667D01*
X343571D01*
Y130336D01*
X343571Y130336D01*
Y129935D01*
X343571D01*
X343571Y129336D01*
Y124273D01*
X342772Y123787D01*
X341606D01*
Y117780D01*
X341606Y117220D01*
X341606Y116220D01*
Y114025D01*
X341248Y113173D01*
X340606Y113173D01*
X331374D01*
Y103299D01*
X339013D01*
X339693Y102619D01*
Y94848D01*
X338769Y94466D01*
X327210Y106025D01*
Y122313D01*
X327623Y122484D01*
X328449Y123118D01*
X329083Y123944D01*
X329481Y124905D01*
X329617Y125937D01*
X329481Y126969D01*
X329083Y127930D01*
X328449Y128756D01*
X327623Y129390D01*
X326662Y129788D01*
X325630Y129924D01*
X324598Y129788D01*
X323637Y129390D01*
X322811Y128756D01*
X322177Y127930D01*
X321779Y126969D01*
X321643Y125937D01*
X321779Y124905D01*
X322177Y123944D01*
X322811Y123118D01*
X323637Y122484D01*
X324049Y122313D01*
Y121059D01*
X323126Y120676D01*
X319310Y124492D01*
X319481Y124905D01*
X319617Y125937D01*
X319481Y126969D01*
X319083Y127930D01*
X318449Y128756D01*
X317623Y129390D01*
X316662Y129788D01*
X315630Y129924D01*
X314598Y129788D01*
X313636Y129390D01*
X312811Y128756D01*
X312177Y127930D01*
X311779Y126969D01*
X311643Y125937D01*
X311779Y124905D01*
X312177Y123944D01*
X312811Y123118D01*
X313636Y122484D01*
X314340Y122193D01*
X314684Y121218D01*
X314169Y120498D01*
X301902D01*
X301316Y120381D01*
X300820Y120050D01*
X299300Y118529D01*
X277753D01*
X277370Y119453D01*
X279956Y122039D01*
X280630Y121950D01*
X281662Y122086D01*
X282623Y122484D01*
X283449Y123118D01*
X284083Y123944D01*
X284481Y124905D01*
X284617Y125937D01*
X284481Y126969D01*
X284083Y127930D01*
X283449Y128756D01*
X283444Y128760D01*
X283764Y129735D01*
X284508Y129824D01*
X286950Y127382D01*
X286779Y126969D01*
X286643Y125937D01*
X286779Y124905D01*
X287177Y123944D01*
X287811Y123118D01*
X288636Y122484D01*
X289598Y122086D01*
X290630Y121950D01*
X291662Y122086D01*
X292623Y122484D01*
X293449Y123118D01*
X294083Y123944D01*
X294481Y124905D01*
X294617Y125937D01*
X294481Y126969D01*
X294083Y127930D01*
X293449Y128756D01*
X292623Y129390D01*
X291662Y129788D01*
X290630Y129924D01*
X289598Y129788D01*
X289185Y129617D01*
X287775Y131027D01*
X288158Y131951D01*
X304774D01*
X304946Y131779D01*
X305277Y131558D01*
X305667Y131480D01*
X315000D01*
X315390Y131558D01*
X315721Y131779D01*
X315893Y131951D01*
X336500D01*
X337475Y132145D01*
X338302Y132698D01*
X341056Y135451D01*
X343571D01*
Y133667D01*
D02*
G37*
G36*
X476471Y127138D02*
Y116633D01*
X473867Y114029D01*
X462776D01*
X462190Y113913D01*
X461694Y113581D01*
X458336Y110223D01*
X458004Y109727D01*
X457888Y109142D01*
Y107978D01*
X457480Y107051D01*
X455905D01*
X455079Y106942D01*
X454309Y106623D01*
X453648Y106116D01*
X453141Y105455D01*
X452822Y104685D01*
X452713Y103858D01*
X452822Y103032D01*
X453141Y102262D01*
X453648Y101601D01*
X454309Y101093D01*
X455079Y100774D01*
X455163Y100763D01*
Y100197D01*
X455280Y99612D01*
X455612Y99115D01*
X457971Y96756D01*
Y78516D01*
X457792Y78493D01*
X457166Y78233D01*
X456628Y77821D01*
X455970D01*
X455432Y78233D01*
X454806Y78493D01*
X454134Y78581D01*
X453462Y78493D01*
X452835Y78233D01*
X452297Y77821D01*
X451640D01*
X451102Y78233D01*
X450475Y78493D01*
X449803Y78581D01*
X449016D01*
X448344Y78493D01*
X447717Y78233D01*
X447179Y77821D01*
X446718D01*
X446180Y78233D01*
X445554Y78493D01*
X444988Y78567D01*
Y75984D01*
X444488D01*
Y75484D01*
X441563D01*
X441586Y75312D01*
X441845Y74686D01*
X442258Y74148D01*
X442738Y73780D01*
X442796Y73360D01*
Y73096D01*
X442738Y72677D01*
X442258Y72309D01*
X441845Y71771D01*
X441586Y71145D01*
X441563Y70972D01*
X444488D01*
Y70472D01*
X444988D01*
Y67889D01*
X445554Y67964D01*
X446180Y68223D01*
X446215Y68250D01*
X446949Y68544D01*
X447683Y68250D01*
X447717Y68223D01*
X448344Y67964D01*
X449016Y67875D01*
X449803D01*
X450475Y67964D01*
X451102Y68223D01*
X451640Y68636D01*
X452052Y69174D01*
X452312Y69800D01*
X452400Y70472D01*
X452312Y71145D01*
X452052Y71771D01*
X451640Y72309D01*
X451160Y72677D01*
X451102Y73096D01*
Y73360D01*
X451160Y73780D01*
X451640Y74148D01*
X452297D01*
X452835Y73735D01*
X453462Y73476D01*
X454134Y73387D01*
X454806Y73476D01*
X455432Y73735D01*
X455970Y74148D01*
X456628D01*
X457108Y73780D01*
X457166Y73360D01*
Y73096D01*
X457108Y72677D01*
X456628Y72309D01*
X456215Y71771D01*
X455956Y71145D01*
X455868Y70472D01*
X455956Y69800D01*
X456215Y69174D01*
X456628Y68636D01*
X457166Y68223D01*
X457792Y67964D01*
X458465Y67875D01*
X459137Y67964D01*
X459763Y68223D01*
X460301Y68636D01*
X460959D01*
X461497Y68223D01*
X462123Y67964D01*
X462795Y67875D01*
X463467Y67964D01*
X464094Y68223D01*
X464632Y68636D01*
X465290D01*
X465828Y68223D01*
X466454Y67964D01*
X467126Y67875D01*
X467798Y67964D01*
X468301Y68172D01*
X468759Y67999D01*
X469301Y67636D01*
Y66650D01*
X469495Y65674D01*
X470048Y64847D01*
X478106Y56789D01*
X478106Y55221D01*
X477669Y54401D01*
X475382D01*
X474992Y54324D01*
X474661Y54103D01*
X473703Y53145D01*
X472780Y53528D01*
Y54000D01*
X469949D01*
Y54500D01*
X469449D01*
Y57429D01*
X467118D01*
X466545Y58192D01*
Y60500D01*
X466468Y60890D01*
X466247Y61221D01*
X466247Y61221D01*
X464247Y63221D01*
X463916Y63442D01*
X463526Y63520D01*
X455474Y63520D01*
X455084Y63442D01*
X454753Y63221D01*
X453305Y61772D01*
X453084Y61441D01*
X453006Y61051D01*
Y56500D01*
X453084Y56110D01*
X453305Y55779D01*
X453576Y55508D01*
X453577Y55495D01*
X453709Y55178D01*
Y51302D01*
X460157D01*
X460860Y50593D01*
Y40758D01*
X449882D01*
X449446Y40701D01*
X444551D01*
Y37747D01*
X443551Y37333D01*
X440710Y40174D01*
X440048Y40616D01*
X439862Y40653D01*
Y41661D01*
X434799D01*
X433864Y41661D01*
X433599Y41994D01*
X433962Y42870D01*
X434230D01*
Y42870D01*
X440088D01*
Y47933D01*
X440088Y48531D01*
X440088Y49531D01*
Y51263D01*
X437159D01*
Y51763D01*
X436659D01*
Y54594D01*
X434429D01*
X434230Y54594D01*
X433429D01*
X433049Y54974D01*
Y57000D01*
X432855Y57976D01*
X432302Y58802D01*
X430639Y60466D01*
X429812Y61018D01*
X428837Y61212D01*
X426429D01*
Y61494D01*
X424274D01*
X422334Y63434D01*
X421507Y63987D01*
X420532Y64181D01*
X405091D01*
Y66175D01*
X398642D01*
Y57089D01*
X399317D01*
Y53554D01*
X398961Y53198D01*
X398409Y52371D01*
X398215Y51395D01*
Y47980D01*
X397671Y47872D01*
X396884Y47346D01*
X396445Y46689D01*
X395938Y46696D01*
X395445Y46855D01*
Y48636D01*
X391551D01*
X387657D01*
Y46842D01*
X387657Y45852D01*
X386662Y45842D01*
X378600D01*
X378210Y45765D01*
X377879Y45544D01*
X376425Y44089D01*
X376204Y43758D01*
X376126Y43368D01*
Y40854D01*
X376204Y40464D01*
X376425Y40133D01*
X377779Y38779D01*
X378110Y38558D01*
X378500Y38480D01*
X387571D01*
Y33431D01*
X387571Y32833D01*
X387571Y31833D01*
Y30100D01*
X390500D01*
X393429D01*
Y31833D01*
X393429Y32431D01*
X393429Y33431D01*
Y38083D01*
X396265D01*
X396373Y37955D01*
X396708Y37083D01*
X396358Y36560D01*
X396273Y36132D01*
X400764D01*
X405254D01*
X405169Y36560D01*
X404643Y37346D01*
X404344Y37547D01*
Y38717D01*
X404643Y38917D01*
X405169Y39704D01*
X405354Y40632D01*
X405169Y41560D01*
X404643Y42346D01*
X404344Y42547D01*
Y43717D01*
X404643Y43917D01*
X405169Y44704D01*
X405354Y45632D01*
X405169Y46560D01*
X404643Y47346D01*
X403857Y47872D01*
X403313Y47980D01*
Y50340D01*
X403668Y50696D01*
X404221Y51522D01*
X404415Y52498D01*
Y57089D01*
X405091D01*
Y59083D01*
X419476D01*
X420571Y57988D01*
X420571Y55833D01*
X420501Y55395D01*
X419862Y55061D01*
X414799D01*
X414201Y55061D01*
X413201Y55061D01*
X411469D01*
Y52132D01*
Y49203D01*
X413201D01*
X413799Y49203D01*
X414799Y49203D01*
X418206D01*
Y47884D01*
X418143Y47872D01*
X417356Y47346D01*
X416831Y46560D01*
X416646Y45632D01*
X416831Y44704D01*
X417356Y43917D01*
X417656Y43717D01*
Y42547D01*
X417356Y42346D01*
X416831Y41560D01*
X416646Y40632D01*
X416831Y39704D01*
X417356Y38917D01*
X417656Y38717D01*
Y37547D01*
X417356Y37346D01*
X416831Y36560D01*
X416646Y35632D01*
X416831Y34704D01*
X417356Y33917D01*
X417656Y33717D01*
Y32547D01*
X417356Y32346D01*
X416831Y31560D01*
X416646Y30632D01*
X416831Y29704D01*
X417356Y28917D01*
X418143Y28392D01*
X418942Y28233D01*
Y26795D01*
X418299Y26061D01*
X417701Y26061D01*
X415969D01*
Y23132D01*
Y20203D01*
X417701D01*
X418299Y20203D01*
X419299Y20203D01*
X424362D01*
Y21348D01*
X425530D01*
X426103Y20965D01*
X427000Y20787D01*
X427897Y20965D01*
X428658Y21474D01*
X429167Y22234D01*
X429345Y23132D01*
X429167Y24029D01*
X428658Y24790D01*
X427897Y25298D01*
X427000Y25477D01*
X426103Y25298D01*
X425530Y24916D01*
X424362D01*
Y26061D01*
X423530D01*
Y28233D01*
X424329Y28392D01*
X425116Y28917D01*
X425642Y29704D01*
X425756Y30278D01*
X426719Y30683D01*
X427308Y30213D01*
Y26827D01*
X433316D01*
X433875Y26827D01*
X434875Y26827D01*
X437099D01*
Y30720D01*
X438099D01*
Y26827D01*
X440883D01*
Y27920D01*
X441883Y28334D01*
X442981Y27235D01*
X443643Y26793D01*
X444423Y26638D01*
X444551D01*
Y25708D01*
X449446D01*
X449882Y25651D01*
X453907D01*
Y23793D01*
X453709D01*
Y14707D01*
X460157D01*
Y14707D01*
X461026Y14390D01*
X461113Y13733D01*
X461415Y13003D01*
X461452Y12955D01*
X460911Y12017D01*
X460630Y12054D01*
X459701Y11932D01*
X458835Y11573D01*
X458615Y11404D01*
X454771D01*
X454551Y11573D01*
X453685Y11932D01*
X452756Y12054D01*
X451827Y11932D01*
X450961Y11573D01*
X450741Y11404D01*
X446897D01*
X446677Y11573D01*
X445811Y11932D01*
X444882Y12054D01*
X443953Y11932D01*
X443087Y11573D01*
X442867Y11404D01*
X379838D01*
X370526Y20717D01*
Y27429D01*
X374120D01*
Y26854D01*
X374223Y26071D01*
X374525Y25341D01*
X375006Y24715D01*
X381360Y18360D01*
X381987Y17879D01*
X382717Y17577D01*
X383500Y17474D01*
X386910D01*
Y15957D01*
X393358D01*
Y25043D01*
X386910D01*
Y23526D01*
X384753D01*
X381774Y26505D01*
X382157Y27429D01*
X384347D01*
Y35728D01*
X370526D01*
Y46464D01*
X370526Y46465D01*
X370423Y47248D01*
X370121Y47978D01*
X369640Y48604D01*
X369640Y48604D01*
X362317Y55927D01*
X362700Y56850D01*
X365055D01*
Y65150D01*
X350654D01*
Y64849D01*
X349787Y64526D01*
Y64526D01*
X343779D01*
X343220Y64526D01*
X342220Y64526D01*
X336213D01*
Y62492D01*
X324825Y51104D01*
X324344Y50477D01*
X324042Y49748D01*
X323939Y48965D01*
Y40690D01*
X323362Y39929D01*
X322939Y39929D01*
X317701D01*
Y39929D01*
X317299D01*
Y39929D01*
X316284D01*
X315870Y40929D01*
X320302Y45362D01*
X320855Y46189D01*
X320911Y46469D01*
X321721Y47279D01*
X321942Y47610D01*
X322020Y48000D01*
Y55571D01*
X321942Y55961D01*
X321721Y56292D01*
X320371Y57642D01*
X320040Y57863D01*
X319650Y57941D01*
X316551D01*
X316161Y57863D01*
X315830Y57642D01*
X315830Y57642D01*
X314279Y56091D01*
X314279Y56091D01*
X314058Y55760D01*
X313980Y55370D01*
X313980Y48065D01*
Y46249D01*
X312569Y44838D01*
X311850Y44916D01*
X311782Y44984D01*
X311221Y45855D01*
X311249Y46000D01*
X309004D01*
Y46500D01*
X308504D01*
Y48746D01*
X308429Y48731D01*
X307429Y49299D01*
Y49701D01*
X307429D01*
Y53226D01*
X307458Y53255D01*
X307801Y53767D01*
X307921Y54372D01*
Y55680D01*
X307999Y55732D01*
X308507Y56492D01*
X308686Y57390D01*
X308507Y58287D01*
X307999Y59048D01*
X307639Y59288D01*
X307402Y60466D01*
X308309Y61372D01*
X326821D01*
X326842Y61342D01*
X327603Y60834D01*
X328500Y60655D01*
X329397Y60834D01*
X330158Y61342D01*
X330667Y62103D01*
X330834Y62945D01*
X330853Y63006D01*
X331723Y63710D01*
X332000Y63655D01*
X332897Y63833D01*
X333658Y64342D01*
X333941Y64764D01*
X334118Y64882D01*
X336838Y67603D01*
X337638Y68071D01*
Y68071D01*
X337638Y68071D01*
X343299D01*
Y68071D01*
X343701D01*
Y68071D01*
X349362D01*
Y70420D01*
X350500D01*
X351105Y70540D01*
X351618Y70882D01*
X352974Y72238D01*
X397532D01*
X398136Y72359D01*
X398649Y72701D01*
X410981Y85034D01*
X421093D01*
X421505Y84497D01*
X421818Y84257D01*
X421896Y84013D01*
Y83309D01*
X421818Y83066D01*
X421505Y82826D01*
X421029Y82206D01*
X420730Y81484D01*
X420628Y80709D01*
X420730Y79934D01*
X421029Y79212D01*
X421505Y78592D01*
X422125Y78116D01*
X422847Y77817D01*
X423622Y77715D01*
X426772D01*
X427547Y77817D01*
X428269Y78116D01*
X428889Y78592D01*
X429365Y79212D01*
X429664Y79934D01*
X429766Y80709D01*
X429664Y81484D01*
X429365Y82206D01*
X428889Y82826D01*
X428576Y83066D01*
X428498Y83309D01*
Y84013D01*
X428576Y84257D01*
X428889Y84497D01*
X429365Y85117D01*
X429664Y85839D01*
X429766Y86614D01*
X429664Y87389D01*
X429365Y88111D01*
X428889Y88731D01*
X428576Y88972D01*
X428498Y89215D01*
Y89919D01*
X428576Y90162D01*
X428889Y90403D01*
X429365Y91023D01*
X429664Y91745D01*
X429766Y92520D01*
X429664Y93295D01*
X429365Y94017D01*
X428889Y94637D01*
X428576Y94877D01*
X428498Y95120D01*
Y95824D01*
X428576Y96068D01*
X428889Y96308D01*
X429365Y96928D01*
X429473Y97191D01*
X430576Y97240D01*
X430842Y96842D01*
X431603Y96333D01*
X432500Y96155D01*
X432579Y96171D01*
X432964Y95653D01*
X433087Y95252D01*
X432668Y94707D01*
X432349Y93937D01*
X432240Y93110D01*
Y91051D01*
X434933D01*
Y96237D01*
X434912Y96234D01*
X434358Y97064D01*
X434343Y97118D01*
X434667Y97603D01*
X434746Y98000D01*
X432500D01*
Y99000D01*
X434746D01*
X434667Y99397D01*
X434158Y100158D01*
X433524Y100582D01*
X433501Y101092D01*
X433629Y101623D01*
X433897Y101676D01*
X434658Y102184D01*
X435167Y102945D01*
X435345Y103842D01*
X435167Y104740D01*
X435039Y104931D01*
Y106155D01*
X446505Y117621D01*
X446947Y118283D01*
X447102Y119063D01*
Y120643D01*
X447894D01*
Y121533D01*
X455332D01*
Y120643D01*
X460395D01*
X460993Y120643D01*
X461994Y120643D01*
X467057D01*
Y126501D01*
X467057D01*
Y126643D01*
X467057D01*
Y130115D01*
X473494D01*
X476471Y127138D01*
D02*
G37*
G36*
X420730Y127178D02*
X421029Y126456D01*
X421505Y125836D01*
X421818Y125595D01*
X421896Y125352D01*
Y124648D01*
X421818Y124405D01*
X421505Y124164D01*
X421029Y123544D01*
X420730Y122822D01*
X420628Y122047D01*
X420730Y121272D01*
X421029Y120550D01*
X421505Y119930D01*
X421818Y119690D01*
X421896Y119447D01*
Y118743D01*
X421818Y118499D01*
X421505Y118259D01*
X421029Y117639D01*
X420730Y116917D01*
X420628Y116142D01*
X420730Y115367D01*
X421029Y114645D01*
X421505Y114025D01*
X421818Y113784D01*
X421896Y113541D01*
Y112837D01*
X421818Y112594D01*
X421505Y112353D01*
X421029Y111733D01*
X420730Y111011D01*
X420628Y110236D01*
X420730Y109461D01*
X421029Y108739D01*
X421505Y108119D01*
X421818Y107879D01*
X421896Y107635D01*
Y106931D01*
X421818Y106688D01*
X421505Y106448D01*
X421029Y105828D01*
X420730Y105106D01*
X420628Y104331D01*
X420730Y103556D01*
X421029Y102834D01*
X421505Y102214D01*
X421818Y101973D01*
X421896Y101730D01*
Y101026D01*
X421818Y100783D01*
X421505Y100542D01*
X421029Y99922D01*
X420730Y99200D01*
X420694Y98925D01*
X425197D01*
Y97925D01*
X420694D01*
X420730Y97650D01*
X421029Y96928D01*
X421505Y96308D01*
X421818Y96068D01*
X421896Y95824D01*
Y95120D01*
X421818Y94877D01*
X421505Y94637D01*
X421132Y94151D01*
X412295D01*
X411671Y94027D01*
X411142Y93673D01*
X396100Y78631D01*
X359814D01*
X359154Y79602D01*
X359222Y79803D01*
X360103Y80334D01*
X360500Y80254D01*
Y82500D01*
Y84746D01*
X360103Y84667D01*
X359342Y84158D01*
X359241Y84008D01*
X358227Y83807D01*
X358023Y84497D01*
X358499Y85117D01*
X358798Y85839D01*
X358900Y86614D01*
X358798Y87389D01*
X358499Y88111D01*
X358023Y88731D01*
X357710Y88972D01*
X357631Y89215D01*
Y89919D01*
X357710Y90162D01*
X358023Y90403D01*
X358499Y91023D01*
X358798Y91745D01*
X359806Y91742D01*
X359833Y91603D01*
X360342Y90842D01*
X361103Y90333D01*
X362000Y90155D01*
X362897Y90333D01*
X363658Y90842D01*
X364167Y91603D01*
X364345Y92500D01*
X364327Y92592D01*
X377655Y105920D01*
X411790D01*
X411842Y105842D01*
X412603Y105333D01*
X413500Y105155D01*
X414397Y105333D01*
X415158Y105842D01*
X415667Y106603D01*
X415845Y107500D01*
X415810Y107675D01*
X415975Y108527D01*
X416536Y108762D01*
X416897Y108833D01*
X417658Y109342D01*
X418167Y110103D01*
X418345Y111000D01*
X418167Y111897D01*
X417658Y112658D01*
X416897Y113167D01*
X416000Y113345D01*
X415103Y113167D01*
X414342Y112658D01*
X414290Y112580D01*
X375500D01*
X374895Y112460D01*
X374382Y112118D01*
X361383Y99117D01*
X361264Y98940D01*
X360842Y98658D01*
X360333Y97897D01*
X360155Y97000D01*
X360333Y96103D01*
X360721Y95523D01*
X360827Y95285D01*
X360578Y94316D01*
X360342Y94158D01*
X359833Y93397D01*
X359809Y93274D01*
X358798Y93295D01*
X358499Y94017D01*
X358023Y94637D01*
X357710Y94877D01*
X357631Y95120D01*
Y95824D01*
X357710Y96068D01*
X358023Y96308D01*
X358499Y96928D01*
X358798Y97650D01*
X358900Y98425D01*
X358798Y99200D01*
X358499Y99922D01*
X358023Y100542D01*
X357710Y100783D01*
X357631Y101026D01*
Y101730D01*
X357710Y101973D01*
X358023Y102214D01*
X358499Y102834D01*
X358798Y103556D01*
X358900Y104331D01*
X358798Y105106D01*
X358499Y105828D01*
X358023Y106448D01*
X357710Y106688D01*
X357631Y106931D01*
Y107635D01*
X357710Y107879D01*
X358023Y108119D01*
X358499Y108739D01*
X358798Y109461D01*
X358807Y109532D01*
X359820Y109566D01*
X359833Y109498D01*
X360342Y108737D01*
X361103Y108229D01*
X361500Y108150D01*
Y110395D01*
Y112641D01*
X361103Y112562D01*
X360342Y112053D01*
X359833Y111293D01*
X359833Y111289D01*
X358864Y111042D01*
X358771Y111076D01*
X358499Y111733D01*
X358023Y112353D01*
X357710Y112594D01*
X357631Y112837D01*
Y113541D01*
X357710Y113784D01*
X358023Y114025D01*
X358499Y114645D01*
X358798Y115367D01*
X358900Y116142D01*
X358798Y116917D01*
X358499Y117639D01*
X358023Y118259D01*
X357710Y118499D01*
X357631Y118743D01*
Y119447D01*
X357710Y119690D01*
X358023Y119930D01*
X358385Y120402D01*
X359342Y120389D01*
X360103Y119881D01*
X361000Y119702D01*
X361897Y119881D01*
X362658Y120389D01*
X363167Y121150D01*
X363345Y122047D01*
X363167Y122945D01*
X362658Y123705D01*
X361897Y124214D01*
X361000Y124392D01*
X360103Y124214D01*
X359342Y123705D01*
X358385Y123693D01*
X358023Y124164D01*
X357710Y124405D01*
X357631Y124648D01*
Y125352D01*
X357710Y125595D01*
X358023Y125836D01*
X358499Y126456D01*
X358798Y127178D01*
X358876Y127772D01*
X420652D01*
X420730Y127178D01*
D02*
G37*
G36*
X321420Y117912D02*
Y104500D01*
X321540Y103895D01*
X321883Y103383D01*
X332660Y92605D01*
X332277Y91681D01*
X329614D01*
X329614Y91681D01*
X329413Y91723D01*
X329397Y91733D01*
X329000Y91812D01*
Y89567D01*
X328500D01*
Y89067D01*
X326254D01*
X326333Y88670D01*
X326842Y87909D01*
X327320Y87589D01*
X327362Y87451D01*
Y86616D01*
X327320Y86478D01*
X326842Y86158D01*
X326333Y85397D01*
X326155Y84500D01*
X326333Y83603D01*
X326842Y82842D01*
X327603Y82333D01*
X328111Y82232D01*
X328769Y81411D01*
X328844Y81204D01*
X328790Y81029D01*
X313633D01*
X306581Y88081D01*
X306085Y88413D01*
X305630Y88503D01*
Y91681D01*
X299693D01*
Y90820D01*
X298362D01*
Y92020D01*
X295532D01*
Y92520D01*
X295031D01*
Y95449D01*
X292701D01*
X292701Y95449D01*
X292265Y95518D01*
X291810Y96449D01*
X291814Y96469D01*
X291635Y97366D01*
X291127Y98127D01*
X290366Y98635D01*
X289469Y98814D01*
X288571Y98635D01*
X287810Y98127D01*
X287302Y97366D01*
X287123Y96469D01*
X286181Y96080D01*
X282500D01*
X281895Y95960D01*
X281382Y95618D01*
X280849Y95084D01*
X280754D01*
X280748Y95086D01*
X274764D01*
X274159Y94965D01*
X273645Y94622D01*
X273303Y94109D01*
X273250Y94094D01*
X272250Y94686D01*
Y97592D01*
X272251Y97598D01*
Y103583D01*
X272130Y104188D01*
X271788Y104701D01*
X271519Y104880D01*
X271402Y105192D01*
X271295Y105780D01*
X271303Y106058D01*
X271667Y106603D01*
X271845Y107500D01*
X271667Y108397D01*
X271158Y109158D01*
Y110192D01*
X271667Y110953D01*
X271845Y111850D01*
X271722Y112471D01*
X272294Y113471D01*
X272466D01*
X273342Y113173D01*
X273342Y112471D01*
Y108736D01*
X278279D01*
X283217D01*
Y112471D01*
X283217Y113173D01*
X284093Y113471D01*
X296088D01*
X296965Y113173D01*
X296965Y112471D01*
Y110231D01*
X296661Y110015D01*
X295965Y109788D01*
X295397Y110167D01*
X294500Y110345D01*
X293603Y110167D01*
X292842Y109658D01*
X292333Y108897D01*
X292155Y108000D01*
X292333Y107103D01*
X292842Y106342D01*
X293603Y105833D01*
X294500Y105655D01*
X295397Y105833D01*
X295965Y106212D01*
X296661Y105985D01*
X296965Y105769D01*
Y103299D01*
X300321D01*
Y102268D01*
X300442Y101663D01*
X300784Y101150D01*
X309673Y92261D01*
X309655Y92169D01*
X309833Y91272D01*
X310342Y90511D01*
X311103Y90003D01*
X312000Y89824D01*
X312897Y90003D01*
X313658Y90511D01*
X314167Y91272D01*
X314345Y92169D01*
X314167Y93067D01*
X313658Y93827D01*
X312897Y94336D01*
X312000Y94514D01*
X311908Y94496D01*
X304105Y102299D01*
X304519Y103299D01*
X306752D01*
X306839Y103299D01*
X307752D01*
X307839Y103299D01*
X312189D01*
Y108236D01*
Y113173D01*
X307839D01*
X307752Y113173D01*
X306839D01*
X306752Y113173D01*
X302734D01*
X302374Y114173D01*
X303633Y115433D01*
X314404D01*
X314937Y114900D01*
X315006Y114854D01*
X315361Y114323D01*
X315585Y114173D01*
X315281Y113173D01*
X313189D01*
Y108736D01*
X317626D01*
X317626Y112897D01*
X317797Y113437D01*
X318137Y113962D01*
X318677Y114323D01*
X319185Y115084D01*
X319364Y115981D01*
X319185Y116878D01*
X318677Y117639D01*
X318895Y118696D01*
X319026Y118892D01*
X320129Y119203D01*
X321420Y117912D01*
D02*
G37*
G36*
X245799Y118496D02*
X243961Y116658D01*
X243619Y116146D01*
X243499Y115545D01*
X243497Y115540D01*
X242783Y115013D01*
Y112500D01*
X241783D01*
Y114746D01*
X241534Y114696D01*
X241317Y114712D01*
X240479Y115263D01*
X240399Y115665D01*
X239891Y116426D01*
X239130Y116934D01*
X238732Y117013D01*
Y114768D01*
X237732D01*
Y117013D01*
X237335Y116934D01*
X236574Y116426D01*
X236066Y115665D01*
X235887Y114768D01*
X235748Y114598D01*
X233569D01*
X233155Y115598D01*
X236976Y119420D01*
X245416D01*
X245799Y118496D01*
D02*
G37*
G36*
X346000Y110213D02*
X348799D01*
X349309Y110213D01*
X349810Y109534D01*
X349883Y109415D01*
X350163Y108739D01*
X350639Y108119D01*
X350952Y107879D01*
X351030Y107635D01*
Y106931D01*
X350952Y106688D01*
X350639Y106448D01*
X350163Y105828D01*
X349864Y105106D01*
X349762Y104331D01*
X349864Y103556D01*
X350163Y102834D01*
X350639Y102214D01*
X350952Y101973D01*
X351030Y101730D01*
Y101026D01*
X350952Y100783D01*
X350639Y100542D01*
X350260Y100049D01*
X348429D01*
Y101299D01*
X348429D01*
Y101701D01*
X348429D01*
Y104032D01*
X345500D01*
Y104532D01*
X345000D01*
Y107362D01*
X342571D01*
Y106461D01*
X341571Y105937D01*
X341248Y106160D01*
Y109361D01*
X341606Y110213D01*
X342248Y110213D01*
X345000D01*
Y113496D01*
X346000D01*
Y110213D01*
D02*
G37*
G36*
X232571Y113600D02*
Y112268D01*
X235500D01*
Y111268D01*
X232571D01*
Y109535D01*
X232571Y108937D01*
X232571Y107937D01*
Y102874D01*
X232842Y102751D01*
X232859Y102724D01*
X232865Y102483D01*
X232534Y102208D01*
X231882Y101853D01*
X231166Y101995D01*
X231096Y101981D01*
X230096Y102802D01*
Y112540D01*
X231571Y114015D01*
X232571Y113600D01*
D02*
G37*
G36*
X243497Y97598D02*
X243610Y97029D01*
Y96116D01*
X243716Y96137D01*
X244094Y96390D01*
X244474Y96137D01*
X245079Y96017D01*
X245684Y96137D01*
X246063Y96390D01*
X246442Y96137D01*
X247047Y96017D01*
X247653Y96137D01*
X247916Y96314D01*
X248348Y96179D01*
X248411Y96137D01*
X248610Y96098D01*
X248889Y96011D01*
X249140Y95537D01*
X249268Y95047D01*
X248833Y94397D01*
X248655Y93500D01*
X248833Y92603D01*
X249342Y91842D01*
X250103Y91334D01*
X251000Y91155D01*
X251092Y91173D01*
X257753Y84512D01*
X258265Y84170D01*
X258870Y84050D01*
X266759D01*
X267142Y83126D01*
X263383Y79366D01*
X263040Y78854D01*
X262920Y78249D01*
Y77710D01*
X262842Y77658D01*
X262333Y76897D01*
X262155Y76000D01*
X262333Y75103D01*
X262842Y74342D01*
X263603Y73834D01*
X264500Y73655D01*
X265397Y73834D01*
X266158Y74342D01*
X266667Y75103D01*
X266845Y76000D01*
X266667Y76897D01*
X266158Y77658D01*
X266157Y77671D01*
X272120Y83634D01*
X273064Y83351D01*
X273384Y82420D01*
X273303Y82298D01*
X273182Y81693D01*
X273303Y81088D01*
X273556Y80709D01*
X273303Y80330D01*
X273182Y79724D01*
X273303Y79119D01*
X273556Y78740D01*
X273303Y78361D01*
X273182Y77756D01*
X273303Y77151D01*
X273556Y76772D01*
X273303Y76393D01*
X273182Y75787D01*
X273303Y75182D01*
X273556Y74803D01*
X273303Y74424D01*
X273182Y73819D01*
X273303Y73214D01*
X273556Y72835D01*
X273303Y72456D01*
X273182Y71850D01*
X273303Y71245D01*
X273556Y70866D01*
X273303Y70487D01*
X273182Y69882D01*
X273303Y69277D01*
X272731Y68338D01*
X272214Y68174D01*
X272130Y68190D01*
Y65945D01*
Y63699D01*
X272214Y63716D01*
X272994Y63469D01*
X273431Y63179D01*
X273645Y62858D01*
X274159Y62515D01*
X274764Y62395D01*
X280095D01*
X280328Y62080D01*
X279826Y61080D01*
X275500D01*
X274895Y60960D01*
X274382Y60618D01*
X273175Y59410D01*
X272251Y59792D01*
Y59882D01*
X272130Y60487D01*
X271788Y61000D01*
X271274Y61343D01*
X270669Y61463D01*
X270064Y61343D01*
X269685Y61090D01*
X269306Y61343D01*
X268701Y61463D01*
X268096Y61343D01*
X267717Y61090D01*
X267337Y61343D01*
X266732Y61463D01*
X266127Y61343D01*
X265748Y61090D01*
X265369Y61343D01*
X264764Y61463D01*
X264159Y61343D01*
X263220Y61916D01*
X263059Y62431D01*
X263172Y63000D01*
X262993Y63897D01*
X262485Y64658D01*
X261724Y65166D01*
X260827Y65345D01*
X259929Y65166D01*
X259169Y64658D01*
X258095Y64851D01*
X257787Y65056D01*
X256890Y65235D01*
X255992Y65056D01*
X255718Y64873D01*
X254658Y64658D01*
X253897Y65166D01*
X253000Y65345D01*
X252103Y65166D01*
X251342Y64658D01*
X250833Y63897D01*
X250655Y63000D01*
X250766Y62440D01*
X250574Y61894D01*
X249621Y61343D01*
X249016Y61463D01*
X248411Y61343D01*
X248031Y61090D01*
X247653Y61343D01*
X247047Y61463D01*
X246442Y61343D01*
X246063Y61090D01*
X245684Y61343D01*
X245079Y61463D01*
X244474Y61343D01*
X244094Y61090D01*
X243716Y61343D01*
X243110Y61463D01*
X242505Y61343D01*
X242126Y61090D01*
X241747Y61343D01*
X241142Y61463D01*
X240536Y61343D01*
X240023Y61000D01*
X239681Y60487D01*
X239560Y59882D01*
Y54580D01*
X226244D01*
X226158Y54709D01*
X225397Y55218D01*
X224500Y55396D01*
X223862Y55920D01*
Y55929D01*
X222072D01*
X221509Y56929D01*
X221735Y57301D01*
X221897Y57333D01*
X222658Y57842D01*
X223167Y58603D01*
X223345Y59500D01*
X223326Y59598D01*
Y60850D01*
X223862D01*
Y61420D01*
X229150D01*
X229755Y61540D01*
X230268Y61883D01*
X230781Y62396D01*
X231057D01*
X231063Y62395D01*
X237047D01*
X237652Y62515D01*
X238166Y62858D01*
X238324Y63096D01*
X238702Y63427D01*
X239500Y63656D01*
Y65945D01*
Y68234D01*
X239093Y68351D01*
X238508Y69277D01*
X238629Y69882D01*
X238508Y70487D01*
X238255Y70866D01*
X238508Y71245D01*
X238629Y71850D01*
X238508Y72456D01*
X238255Y72835D01*
X238508Y73214D01*
X238629Y73819D01*
X238508Y74424D01*
X238255Y74803D01*
X238508Y75182D01*
X238629Y75787D01*
X238508Y76393D01*
X238255Y76772D01*
X238508Y77151D01*
X238629Y77756D01*
X238508Y78361D01*
X238255Y78740D01*
X238508Y79119D01*
X238629Y79724D01*
X238508Y80330D01*
X238255Y80709D01*
X238508Y81088D01*
X238629Y81693D01*
X238508Y82298D01*
X238255Y82677D01*
X238508Y83056D01*
X238629Y83661D01*
X238508Y84267D01*
X238255Y84646D01*
X238508Y85025D01*
X238629Y85630D01*
X238508Y86235D01*
X238255Y86614D01*
X238508Y86993D01*
X238629Y87598D01*
X238947Y87987D01*
X239252D01*
X239857Y88107D01*
X240370Y88450D01*
X241118Y89197D01*
X241460Y89710D01*
X241580Y90315D01*
Y94500D01*
X241469Y95062D01*
X241463Y95117D01*
X241584Y95550D01*
X242505Y96137D01*
X242610Y96116D01*
Y97029D01*
X242723Y97598D01*
Y100591D01*
X243497D01*
Y97598D01*
D02*
G37*
G36*
X286638Y89591D02*
X292136D01*
X292727Y88768D01*
X288590Y84631D01*
X287327Y84782D01*
X287232Y84924D01*
X286472Y85432D01*
X286341Y86478D01*
X286345Y86500D01*
X286167Y87397D01*
X285658Y88158D01*
X284897Y88666D01*
X284000Y88845D01*
X283103Y88666D01*
X282280Y89320D01*
X282330Y89567D01*
X282209Y90172D01*
X281956Y90551D01*
X282209Y90930D01*
X282230Y91035D01*
X281317D01*
X280748Y91149D01*
X277756D01*
Y91922D01*
X280748D01*
X280754Y91923D01*
X281504D01*
X282067Y92035D01*
X282230D01*
X282214Y92115D01*
X282621Y92387D01*
X283155Y92920D01*
X286638D01*
Y89591D01*
D02*
G37*
G36*
X496887Y156000D02*
X497138Y155000D01*
X495863Y154318D01*
X494466Y153172D01*
X493319Y151775D01*
X492468Y150181D01*
X491943Y148452D01*
X491766Y146653D01*
X491943Y144855D01*
X492468Y143126D01*
X493319Y141532D01*
X494466Y140135D01*
X495863Y138989D01*
X497457Y138137D01*
X499186Y137612D01*
X500984Y137435D01*
X502783Y137612D01*
X504512Y138137D01*
X506106Y138989D01*
X507503Y140135D01*
X508649Y141532D01*
X509501Y143126D01*
X509827Y144200D01*
X510827Y144052D01*
X510827Y45909D01*
X509827Y45761D01*
X509501Y46835D01*
X508649Y48429D01*
X507503Y49826D01*
X506106Y50972D01*
X504512Y51824D01*
X502783Y52348D01*
X500984Y52526D01*
X499186Y52348D01*
X497457Y51824D01*
X495863Y50972D01*
X494466Y49826D01*
X493319Y48429D01*
X492468Y46835D01*
X491943Y45105D01*
X491766Y43307D01*
X491943Y41509D01*
X492468Y39779D01*
X493319Y38186D01*
X494466Y36789D01*
X495863Y35642D01*
X497457Y34790D01*
X499186Y34266D01*
X500984Y34089D01*
X502783Y34266D01*
X504512Y34790D01*
X506106Y35642D01*
X507503Y36789D01*
X508649Y38186D01*
X509501Y39779D01*
X509827Y40853D01*
X510827Y40705D01*
Y13429D01*
X509827Y13281D01*
X509501Y14355D01*
X508649Y15948D01*
X507503Y17345D01*
X506106Y18492D01*
X504512Y19343D01*
X502783Y19868D01*
X500984Y20045D01*
X499186Y19868D01*
X497457Y19343D01*
X495863Y18492D01*
X494466Y17345D01*
X493319Y15948D01*
X492468Y14355D01*
X491943Y12625D01*
X491766Y10827D01*
X491943Y9028D01*
X492468Y7299D01*
X493319Y5705D01*
X494466Y4308D01*
X495863Y3162D01*
X497101Y2500D01*
X496851Y1500D01*
X332583Y1500D01*
Y31000D01*
X332854Y32089D01*
X333112Y32309D01*
X333504Y32258D01*
X333895Y32206D01*
X333896Y32206D01*
X335970D01*
Y29894D01*
X335713D01*
Y22106D01*
X341721D01*
X342280Y22106D01*
X342978Y21396D01*
Y20354D01*
X342779Y20221D01*
X340779Y18221D01*
X340558Y17890D01*
X340480Y17500D01*
Y15000D01*
X340558Y14610D01*
X340779Y14279D01*
X341779Y13279D01*
X342110Y13058D01*
X342500Y12980D01*
X351000D01*
X351390Y13058D01*
X351721Y13279D01*
X353221Y14779D01*
X353442Y15110D01*
X353520Y15500D01*
Y18000D01*
X353442Y18390D01*
X353221Y18721D01*
X351721Y20221D01*
X351390Y20442D01*
X351000Y20520D01*
X349030D01*
Y22106D01*
X349287D01*
Y22974D01*
X352276D01*
X353059Y23077D01*
X353789Y23380D01*
X354415Y23860D01*
X357984Y27429D01*
X364474D01*
Y20556D01*
X364443Y20515D01*
X364090Y19664D01*
X363970Y18750D01*
X364090Y17836D01*
X364443Y16985D01*
X365004Y16254D01*
X375880Y5378D01*
X376611Y4817D01*
X377462Y4464D01*
X378376Y4344D01*
X442867D01*
X443087Y4175D01*
X443953Y3816D01*
X444882Y3694D01*
X445811Y3816D01*
X446677Y4175D01*
X446897Y4344D01*
X450741D01*
X450961Y4175D01*
X451827Y3816D01*
X452756Y3694D01*
X453685Y3816D01*
X454551Y4175D01*
X454771Y4344D01*
X458615D01*
X458835Y4175D01*
X459701Y3816D01*
X460630Y3694D01*
X461559Y3816D01*
X462425Y4175D01*
X463168Y4745D01*
X463295Y4911D01*
X464295Y4571D01*
Y4382D01*
X474169D01*
Y5789D01*
X475081D01*
X475995Y5909D01*
X476847Y6262D01*
X477578Y6823D01*
X479496Y8741D01*
X479831Y9177D01*
X480831Y8838D01*
Y4382D01*
X485268D01*
Y9319D01*
X485768D01*
Y9819D01*
X490705D01*
Y13362D01*
X489500Y12157D01*
X482000Y12000D01*
Y14256D01*
X480831D01*
X480530Y15131D01*
Y17637D01*
X489496Y26603D01*
X490057Y27334D01*
X490410Y28185D01*
X490530Y29099D01*
X490530Y29099D01*
Y49676D01*
X490410Y50590D01*
X490057Y51441D01*
X489496Y52173D01*
X487676Y53992D01*
X486945Y54553D01*
X486665Y54669D01*
X486050Y55109D01*
X485894Y55830D01*
Y61787D01*
X480317D01*
X474882Y67223D01*
X475449Y68071D01*
X475706Y67964D01*
X476272Y67889D01*
Y70472D01*
X476772D01*
Y70972D01*
X479697D01*
X479674Y71145D01*
X479415Y71771D01*
X479002Y72309D01*
X478522Y72677D01*
X478464Y73096D01*
Y73360D01*
X478522Y73780D01*
X479002Y74148D01*
X479415Y74686D01*
X479674Y75312D01*
X479697Y75484D01*
X476772D01*
Y75984D01*
X476272D01*
Y78567D01*
X475706Y78493D01*
X475399Y78366D01*
X474589Y78766D01*
X474399Y78972D01*
Y100243D01*
X474822Y100666D01*
X475591D01*
X476417Y100774D01*
X477187Y101093D01*
X477848Y101601D01*
X478356Y102262D01*
X478674Y103032D01*
X478783Y103858D01*
X478674Y104685D01*
X478356Y105455D01*
X477848Y106116D01*
X477187Y106623D01*
X476417Y106942D01*
X475591Y107051D01*
X473228D01*
X472402Y106942D01*
X471632Y106623D01*
X470971Y106116D01*
X470463Y105455D01*
X470145Y104685D01*
X470036Y103858D01*
X470125Y103179D01*
X470048Y103102D01*
X469495Y102275D01*
X469301Y101299D01*
Y91908D01*
X468301Y91374D01*
X468023Y91559D01*
X467626Y91639D01*
Y89393D01*
Y87147D01*
X468023Y87226D01*
X468301Y87412D01*
X469301Y86878D01*
Y77405D01*
X469208Y77283D01*
X468948Y76656D01*
X468860Y75984D01*
X468948Y75312D01*
X469208Y74686D01*
X469301Y74563D01*
Y73309D01*
X468759Y72946D01*
X468301Y72773D01*
X467798Y72981D01*
X467126Y73070D01*
X466454Y72981D01*
X465828Y72721D01*
X465290Y72309D01*
X464632D01*
X464152Y72677D01*
X464094Y73096D01*
Y73360D01*
X464139Y73687D01*
X464205Y73821D01*
X464632Y74148D01*
X465044Y74686D01*
X465304Y75312D01*
X465392Y75984D01*
X465304Y76656D01*
X465044Y77283D01*
X464632Y77821D01*
X464094Y78233D01*
X463467Y78493D01*
X463029Y78550D01*
Y96517D01*
X465648Y99136D01*
X465980Y99632D01*
X466096Y100217D01*
Y100763D01*
X466181Y100774D01*
X466951Y101093D01*
X467612Y101601D01*
X468119Y102262D01*
X468438Y103032D01*
X468547Y103858D01*
X468438Y104685D01*
X468119Y105455D01*
X467612Y106116D01*
X466951Y106623D01*
X466181Y106942D01*
X465354Y107051D01*
X463931D01*
X463674Y107399D01*
X463487Y108021D01*
X464173Y108707D01*
X475240D01*
X475825Y108823D01*
X476322Y109155D01*
X481081Y113915D01*
X481413Y114411D01*
X481529Y114996D01*
Y129000D01*
X481413Y129585D01*
X481081Y130081D01*
X476081Y135081D01*
X475585Y135413D01*
X475000Y135529D01*
X467057D01*
Y139001D01*
X461994D01*
X461395Y139001D01*
X460395Y139001D01*
X455332D01*
Y138987D01*
X454332Y138279D01*
X454000Y138345D01*
X453103Y138167D01*
X452342Y137658D01*
X451833Y136897D01*
X451655Y136000D01*
X451833Y135103D01*
X452033Y134804D01*
X451432Y133904D01*
X451000Y133990D01*
X450103Y133811D01*
X449342Y133303D01*
X448862Y132585D01*
X448787Y132571D01*
X447862Y132875D01*
Y133001D01*
X442799D01*
X442201Y133001D01*
Y133001D01*
X441799D01*
Y133001D01*
X439468D01*
Y130072D01*
X438969D01*
Y129572D01*
X436138D01*
Y127143D01*
X436138D01*
X436138Y127143D01*
X436168Y126204D01*
X436077Y125204D01*
X434889D01*
X434173Y126127D01*
X434190Y126295D01*
X434698Y127055D01*
X434777Y127453D01*
X432531D01*
Y127953D01*
X432031D01*
Y130198D01*
X431634Y130119D01*
X431118Y129774D01*
X430288Y130081D01*
X430118Y130218D01*
X430118Y156000D01*
X496887D01*
D02*
G37*
G36*
X311919Y78419D02*
X312415Y78087D01*
X313000Y77971D01*
X328570D01*
X328639Y77815D01*
X328620Y77683D01*
X328018Y76749D01*
X327603Y76666D01*
X326842Y76158D01*
X326333Y75397D01*
X326155Y74500D01*
X326333Y73603D01*
X326842Y72842D01*
X327603Y72334D01*
X328500Y72155D01*
X328668Y72188D01*
X329614Y72319D01*
X329614Y72319D01*
X329614Y72319D01*
X331958D01*
X332341Y71395D01*
X331526Y70580D01*
X307039D01*
X306435Y70460D01*
X305922Y70117D01*
X303227Y67423D01*
X302274Y67609D01*
X302108Y67718D01*
X301658Y68391D01*
X300897Y68899D01*
X300500Y68978D01*
Y66732D01*
X299500D01*
Y69230D01*
X298895Y69606D01*
X298984Y70071D01*
X298984Y70588D01*
Y71615D01*
X299693Y72319D01*
X305630D01*
Y76681D01*
X305630D01*
Y77319D01*
X305630D01*
Y81319D01*
X305630Y82319D01*
X305630Y82681D01*
Y83401D01*
X306554Y83783D01*
X311919Y78419D01*
D02*
G37*
G36*
X463526Y62500D02*
X465526Y60500D01*
Y55500D01*
X465026Y55000D01*
X455526D01*
X454026Y56500D01*
Y61051D01*
X455474Y62500D01*
X463526Y62500D01*
D02*
G37*
G36*
X354474Y56465D02*
X354577Y55681D01*
X354879Y54952D01*
X355360Y54325D01*
X364474Y45211D01*
Y35728D01*
X350654D01*
Y29781D01*
X349654Y29367D01*
X349287Y29733D01*
Y29894D01*
X348937Y30749D01*
Y30894D01*
Y40169D01*
X339063D01*
Y38435D01*
X338063Y38312D01*
X337394Y38911D01*
Y39352D01*
X337394D01*
Y42136D01*
X333500D01*
Y42636D01*
X333000D01*
Y45919D01*
X329991D01*
Y47711D01*
X338063Y55784D01*
X339063Y55370D01*
Y52268D01*
X343461D01*
X345659Y55571D01*
X348937D01*
X348937Y56377D01*
X349787Y56738D01*
X350654Y56850D01*
Y56850D01*
X354474D01*
Y56465D01*
D02*
G37*
G36*
X321000Y55571D02*
Y48000D01*
X317823Y44823D01*
X315000D01*
Y47935D01*
Y48000D01*
Y48065D01*
X315000Y55370D01*
X316551Y56921D01*
X319650D01*
X321000Y55571D01*
D02*
G37*
G36*
X487000Y49676D02*
Y43500D01*
X485568D01*
X482808Y46260D01*
X470740D01*
X469949Y47051D01*
Y49949D01*
X470961Y50961D01*
X472961D01*
X475382Y53382D01*
X483500D01*
X487000Y49676D01*
D02*
G37*
G36*
X188500Y44500D02*
X187500Y43500D01*
X180500D01*
Y48500D01*
X188500D01*
Y44500D01*
D02*
G37*
G36*
X229270Y48913D02*
X229462Y47998D01*
X229342Y47918D01*
X228833Y47157D01*
X228754Y46760D01*
X231000D01*
Y45760D01*
X228754D01*
X228833Y45362D01*
X229342Y44602D01*
X230103Y44093D01*
X231000Y43915D01*
X231327Y43647D01*
Y43331D01*
X233658D01*
Y46260D01*
X234658D01*
Y43331D01*
X236390D01*
X236988Y43331D01*
X237861Y43331D01*
X238861Y43023D01*
Y35411D01*
X238547Y35281D01*
X237762Y34679D01*
X237160Y33894D01*
X236782Y32980D01*
X236653Y32000D01*
X236782Y31019D01*
X237160Y30106D01*
X237762Y29321D01*
X238547Y28719D01*
X239460Y28341D01*
X240441Y28212D01*
X241421Y28341D01*
X242335Y28719D01*
X243120Y29321D01*
X243722Y30106D01*
X244100Y31019D01*
X244229Y32000D01*
X244100Y32980D01*
X243722Y33894D01*
X243120Y34679D01*
X242335Y35281D01*
X242021Y35411D01*
Y43331D01*
X243051D01*
Y44679D01*
X244122D01*
Y43331D01*
X249783D01*
Y43331D01*
X250185D01*
Y43331D01*
X255847D01*
Y43331D01*
X256839D01*
Y43331D01*
X258089D01*
Y35417D01*
X257759Y35281D01*
X256975Y34679D01*
X256373Y33894D01*
X255994Y32980D01*
X255865Y32000D01*
X255994Y31019D01*
X256373Y30106D01*
X256975Y29321D01*
X257759Y28719D01*
X258673Y28341D01*
X259653Y28212D01*
X260634Y28341D01*
X261548Y28719D01*
X262332Y29321D01*
X262934Y30106D01*
X263313Y31019D01*
X263442Y32000D01*
X263313Y32980D01*
X262934Y33894D01*
X262332Y34679D01*
X261548Y35281D01*
X261250Y35404D01*
Y43331D01*
X262500D01*
X262500Y43331D01*
X262902D01*
Y43331D01*
X263500Y43331D01*
X265232D01*
Y46260D01*
X266232D01*
Y43331D01*
X268563D01*
Y43343D01*
X269500Y43960D01*
Y46260D01*
X270500D01*
Y44014D01*
X270897Y44093D01*
X271299Y44362D01*
X271619Y44435D01*
X272267Y44053D01*
X272404Y42937D01*
X268039Y38572D01*
X267598Y37997D01*
X267321Y37328D01*
X267226Y36610D01*
Y26149D01*
X263280Y22203D01*
X227720D01*
X211760Y38163D01*
X211721Y38221D01*
X211053Y38888D01*
X210723Y39109D01*
X210332Y39187D01*
X210158D01*
X209500Y39274D01*
X208842Y39187D01*
X204732D01*
X204318Y40187D01*
X208405Y44274D01*
X208647Y44638D01*
X209103Y44333D01*
X210000Y44155D01*
X210897Y44333D01*
X211138Y44494D01*
X212138Y43960D01*
Y43480D01*
X217799D01*
Y43480D01*
X218201D01*
Y43480D01*
X223862D01*
Y44829D01*
X223965D01*
X224569Y44949D01*
X225082Y45292D01*
X228770Y48980D01*
X229270Y48913D01*
D02*
G37*
G36*
X299000Y45000D02*
X299500D01*
X299663Y44837D01*
Y41295D01*
X299000Y40632D01*
X291368D01*
X290250Y41750D01*
Y44500D01*
X290896Y45146D01*
X298854D01*
X299000Y45000D01*
D02*
G37*
G36*
X389350Y43500D02*
X389500D01*
X389000Y40000D01*
X388500Y39500D01*
X378500D01*
X377146Y40854D01*
Y43368D01*
X378600Y44823D01*
X388027D01*
X389350Y43500D01*
D02*
G37*
G36*
X211000Y37500D02*
X210500Y34667D01*
X203566D01*
X203000Y35232D01*
Y37668D01*
X203500Y38168D01*
X210332D01*
X211000Y37500D01*
D02*
G37*
G36*
X483470Y44157D02*
Y30562D01*
X474504Y21595D01*
X473943Y20864D01*
X473929Y20831D01*
X472929Y21030D01*
Y23461D01*
X472737D01*
X472704Y23500D01*
X469949D01*
Y24000D01*
X469449D01*
Y26246D01*
X469051Y26167D01*
X468291Y25658D01*
X467782Y24897D01*
X467616Y24064D01*
X467352Y23851D01*
X466691Y23461D01*
X466268Y23461D01*
X464770D01*
X464035Y23557D01*
X460157D01*
Y23793D01*
X459959D01*
Y27067D01*
X459856Y27850D01*
X459554Y28580D01*
X459073Y29206D01*
X457463Y30817D01*
X456836Y31297D01*
X456106Y31600D01*
X455323Y31703D01*
X449882D01*
X449446Y31645D01*
X444551D01*
X444539Y32640D01*
Y33768D01*
X444551Y34764D01*
X445100Y34764D01*
X449446D01*
X449882Y34706D01*
X468173D01*
Y29842D01*
X478835D01*
Y45240D01*
X482386D01*
X483470Y44157D01*
D02*
G37*
G36*
X286388Y37500D02*
X289218D01*
Y37000D01*
X289719D01*
Y34071D01*
X292049D01*
Y34071D01*
X292451D01*
Y34071D01*
X295083D01*
X295606Y33287D01*
Y31561D01*
X293859D01*
X293738Y31742D01*
X292984Y32246D01*
X292094Y32423D01*
X278906D01*
X278016Y32246D01*
X277262Y31742D01*
X276758Y30988D01*
X276581Y30098D01*
Y27539D01*
X276758Y26650D01*
X277262Y25896D01*
X278016Y25392D01*
X278906Y25215D01*
X292094D01*
X292984Y25392D01*
X293738Y25896D01*
X294117Y26463D01*
X294682D01*
X295606Y26280D01*
Y23496D01*
X299500D01*
X301468D01*
Y24000D01*
X301665Y25089D01*
X303394D01*
Y25130D01*
X304079Y25846D01*
X304214Y25846D01*
X308441D01*
Y27776D01*
X308615Y28036D01*
X308809Y29012D01*
X308615Y29987D01*
X308724Y30104D01*
X310082Y30147D01*
X311559Y28670D01*
Y27055D01*
X309593Y25089D01*
X313911D01*
X315000Y24000D01*
Y22267D01*
X314335Y21602D01*
X301799D01*
X301468Y21933D01*
Y22496D01*
X299500D01*
X295606D01*
Y21621D01*
X292958D01*
X292094Y21793D01*
X278906D01*
X278042Y21621D01*
X275771D01*
X274650Y20500D01*
Y1500D01*
X213968D01*
X213968Y20758D01*
X210444Y24282D01*
X193246Y24282D01*
X192832Y25282D01*
X195117Y27567D01*
X195460Y28080D01*
X195580Y28685D01*
Y31450D01*
X200980Y36850D01*
X201980Y36436D01*
Y35232D01*
X202058Y34842D01*
X202279Y34511D01*
X202845Y33946D01*
X203175Y33725D01*
X203566Y33647D01*
X208430D01*
X224609Y17468D01*
X225184Y17027D01*
X225853Y16750D01*
X226571Y16655D01*
X264429D01*
X265147Y16750D01*
X265816Y17027D01*
X266390Y17468D01*
X271961Y23039D01*
X272402Y23613D01*
X272679Y24282D01*
X272774Y25000D01*
Y35461D01*
X276289Y38976D01*
X286388D01*
Y37500D01*
D02*
G37*
G36*
X352500Y18000D02*
Y15500D01*
X351000Y14000D01*
X342500D01*
X341500Y15000D01*
Y17500D01*
X343500Y19500D01*
X351000D01*
X352500Y18000D01*
D02*
G37*
G36*
X327532Y9532D02*
Y7098D01*
X323532Y3098D01*
X322031D01*
X321031Y4098D01*
X321031Y5531D01*
X325598Y10098D01*
X326965D01*
X327532Y9532D01*
D02*
G37*
%LPC*%
G36*
X225233Y154556D02*
Y152810D01*
X226978D01*
X226899Y153208D01*
X226391Y153969D01*
X225630Y154477D01*
X225233Y154556D01*
D02*
G37*
G36*
X224233D02*
X223835Y154477D01*
X223074Y153969D01*
X222566Y153208D01*
X222487Y152810D01*
X224233D01*
Y154556D01*
D02*
G37*
G36*
X214469D02*
Y152810D01*
X216214D01*
X216135Y153208D01*
X215627Y153969D01*
X214866Y154477D01*
X214469Y154556D01*
D02*
G37*
G36*
X213469D02*
X213071Y154477D01*
X212310Y153969D01*
X211802Y153208D01*
X211723Y152810D01*
X213469D01*
Y154556D01*
D02*
G37*
G36*
X343500Y153631D02*
Y151885D01*
X345246D01*
X345167Y152283D01*
X344658Y153043D01*
X343897Y153552D01*
X343500Y153631D01*
D02*
G37*
G36*
X342500D02*
X342103Y153552D01*
X341342Y153043D01*
X340833Y152283D01*
X340754Y151885D01*
X342500D01*
Y153631D01*
D02*
G37*
G36*
X226978Y151810D02*
X225233D01*
Y150065D01*
X225630Y150144D01*
X226391Y150652D01*
X226899Y151413D01*
X226978Y151810D01*
D02*
G37*
G36*
X224233D02*
X222487D01*
X222566Y151413D01*
X223074Y150652D01*
X223835Y150144D01*
X224233Y150065D01*
Y151810D01*
D02*
G37*
G36*
X216214D02*
X214469D01*
Y150065D01*
X214866Y150144D01*
X215627Y150652D01*
X216135Y151413D01*
X216214Y151810D01*
D02*
G37*
G36*
X213469D02*
X211723D01*
X211802Y151413D01*
X212310Y150652D01*
X213071Y150144D01*
X213469Y150065D01*
Y151810D01*
D02*
G37*
G36*
X345246Y150885D02*
X343500D01*
Y149139D01*
X343897Y149218D01*
X344658Y149727D01*
X345167Y150488D01*
X345246Y150885D01*
D02*
G37*
G36*
X342500D02*
X340754D01*
X340833Y150488D01*
X341342Y149727D01*
X342103Y149218D01*
X342500Y149139D01*
Y150885D01*
D02*
G37*
G36*
X343020Y145246D02*
Y143500D01*
X344765D01*
X344686Y143897D01*
X344178Y144658D01*
X343417Y145167D01*
X343020Y145246D01*
D02*
G37*
G36*
X342020D02*
X341622Y145167D01*
X340862Y144658D01*
X340353Y143897D01*
X340274Y143500D01*
X342020D01*
Y145246D01*
D02*
G37*
G36*
X321567Y142746D02*
Y141000D01*
X323312D01*
X323234Y141397D01*
X322725Y142158D01*
X321964Y142667D01*
X321567Y142746D01*
D02*
G37*
G36*
X320567D02*
X320169Y142667D01*
X319409Y142158D01*
X318900Y141397D01*
X318821Y141000D01*
X320567D01*
Y142746D01*
D02*
G37*
G36*
X314845D02*
Y141000D01*
X316591D01*
X316512Y141397D01*
X316003Y142158D01*
X315243Y142667D01*
X314845Y142746D01*
D02*
G37*
G36*
X313845D02*
X313448Y142667D01*
X312687Y142158D01*
X312178Y141397D01*
X312100Y141000D01*
X313845D01*
Y142746D01*
D02*
G37*
G36*
X300000D02*
Y141000D01*
X301746D01*
X301667Y141397D01*
X301158Y142158D01*
X300397Y142667D01*
X300000Y142746D01*
D02*
G37*
G36*
X299000D02*
X298603Y142667D01*
X297842Y142158D01*
X297333Y141397D01*
X297254Y141000D01*
X299000D01*
Y142746D01*
D02*
G37*
G36*
X279136D02*
Y141000D01*
X280882D01*
X280803Y141397D01*
X280295Y142158D01*
X279534Y142667D01*
X279136Y142746D01*
D02*
G37*
G36*
X278136D02*
X277739Y142667D01*
X276978Y142158D01*
X276470Y141397D01*
X276391Y141000D01*
X278136D01*
Y142746D01*
D02*
G37*
G36*
X323312Y140000D02*
X321567D01*
Y138254D01*
X321964Y138333D01*
X322725Y138842D01*
X323234Y139603D01*
X323312Y140000D01*
D02*
G37*
G36*
X320567D02*
X318821D01*
X318900Y139603D01*
X319409Y138842D01*
X320169Y138333D01*
X320567Y138254D01*
Y140000D01*
D02*
G37*
G36*
X301746D02*
X300000D01*
Y138254D01*
X300397Y138333D01*
X301158Y138842D01*
X301667Y139603D01*
X301746Y140000D01*
D02*
G37*
G36*
X299000D02*
X297254D01*
X297333Y139603D01*
X297842Y138842D01*
X298603Y138333D01*
X299000Y138254D01*
Y140000D01*
D02*
G37*
G36*
X280882D02*
X279136D01*
Y138254D01*
X279534Y138333D01*
X280295Y138842D01*
X280803Y139603D01*
X280882Y140000D01*
D02*
G37*
G36*
X278136D02*
X276391D01*
X276470Y139603D01*
X276978Y138842D01*
X277739Y138333D01*
X278136Y138254D01*
Y140000D01*
D02*
G37*
G36*
X214583Y129890D02*
X211130D01*
Y126437D01*
X214583D01*
Y129890D01*
D02*
G37*
G36*
X261130Y129858D02*
Y126437D01*
X264551D01*
X264481Y126969D01*
X264083Y127930D01*
X263449Y128756D01*
X262623Y129390D01*
X261662Y129788D01*
X261130Y129858D01*
D02*
G37*
G36*
X249583Y129890D02*
X246130D01*
Y126437D01*
X249583D01*
Y129890D01*
D02*
G37*
G36*
X260130Y129858D02*
X259598Y129788D01*
X258636Y129390D01*
X257811Y128756D01*
X257177Y127930D01*
X256779Y126969D01*
X256709Y126437D01*
X260130D01*
Y129858D01*
D02*
G37*
G36*
X210130Y129890D02*
X206677D01*
Y126437D01*
X210130D01*
Y129890D01*
D02*
G37*
G36*
X245130D02*
X241677D01*
Y126437D01*
X245130D01*
Y129890D01*
D02*
G37*
G36*
X171304Y135721D02*
X165854D01*
Y123430D01*
X166515Y123495D01*
X167631Y123834D01*
X168660Y124383D01*
X169562Y125124D01*
X170301Y126025D01*
X170851Y127054D01*
X171190Y128170D01*
X171304Y129331D01*
Y135721D01*
D02*
G37*
G36*
X214583Y125437D02*
X211130D01*
Y121984D01*
X214583D01*
Y125437D01*
D02*
G37*
G36*
X210130D02*
X206677D01*
Y121984D01*
X210130D01*
Y125437D01*
D02*
G37*
G36*
X200630Y129924D02*
X199598Y129788D01*
X198636Y129390D01*
X197811Y128756D01*
X197177Y127930D01*
X196779Y126969D01*
X196643Y125937D01*
X196779Y124905D01*
X197177Y123944D01*
X197811Y123118D01*
X198636Y122484D01*
X199598Y122086D01*
X200630Y121950D01*
X201662Y122086D01*
X202623Y122484D01*
X203449Y123118D01*
X204083Y123944D01*
X204481Y124905D01*
X204617Y125937D01*
X204481Y126969D01*
X204083Y127930D01*
X203449Y128756D01*
X202623Y129390D01*
X201662Y129788D01*
X200630Y129924D01*
D02*
G37*
G36*
X190630D02*
X189598Y129788D01*
X188637Y129390D01*
X187811Y128756D01*
X187177Y127930D01*
X186779Y126969D01*
X186643Y125937D01*
X186779Y124905D01*
X187177Y123944D01*
X187811Y123118D01*
X188637Y122484D01*
X189598Y122086D01*
X190630Y121950D01*
X191662Y122086D01*
X192623Y122484D01*
X193449Y123118D01*
X194083Y123944D01*
X194481Y124905D01*
X194617Y125937D01*
X194481Y126969D01*
X194083Y127930D01*
X193449Y128756D01*
X192623Y129390D01*
X191662Y129788D01*
X190630Y129924D01*
D02*
G37*
G36*
X216531Y120646D02*
Y118217D01*
X218862D01*
Y120646D01*
X216531D01*
D02*
G37*
G36*
X218862Y117217D02*
X216531D01*
Y114787D01*
X218862D01*
Y117217D01*
D02*
G37*
G36*
X165354Y120155D02*
X164528Y120046D01*
X163758Y119727D01*
X163097Y119220D01*
X162589Y118559D01*
X162270Y117789D01*
X162162Y116962D01*
X162270Y116136D01*
X162589Y115366D01*
X163097Y114705D01*
X163758Y114197D01*
X164528Y113878D01*
X165354Y113769D01*
X166181Y113878D01*
X166951Y114197D01*
X167612Y114705D01*
X168119Y115366D01*
X168438Y116136D01*
X168547Y116962D01*
X168438Y117789D01*
X168119Y118559D01*
X167612Y119220D01*
X166951Y119727D01*
X166181Y120046D01*
X165354Y120155D01*
D02*
G37*
G36*
X200000Y92254D02*
X199572Y92169D01*
X198786Y91644D01*
X198260Y90857D01*
X198075Y89929D01*
Y88264D01*
X200000D01*
Y92254D01*
D02*
G37*
G36*
X139000Y152246D02*
Y150500D01*
X140746D01*
X140667Y150897D01*
X140158Y151658D01*
X139397Y152167D01*
X139000Y152246D01*
D02*
G37*
G36*
X138000D02*
X137603Y152167D01*
X136842Y151658D01*
X136333Y150897D01*
X136254Y150500D01*
X138000D01*
Y152246D01*
D02*
G37*
G36*
X140746Y149500D02*
X139000D01*
Y147754D01*
X139397Y147833D01*
X140158Y148342D01*
X140667Y149103D01*
X140746Y149500D01*
D02*
G37*
G36*
X138000D02*
X136254D01*
X136333Y149103D01*
X136842Y148342D01*
X137603Y147833D01*
X138000Y147754D01*
Y149500D01*
D02*
G37*
G36*
X146968Y147929D02*
X144638D01*
Y145500D01*
X146968D01*
Y147929D01*
D02*
G37*
G36*
X47744Y146446D02*
Y144700D01*
X49490D01*
X49411Y145097D01*
X48902Y145858D01*
X48142Y146367D01*
X47744Y146446D01*
D02*
G37*
G36*
X46744D02*
X46347Y146367D01*
X45586Y145858D01*
X45077Y145097D01*
X44998Y144700D01*
X46744D01*
Y146446D01*
D02*
G37*
G36*
X35933Y146297D02*
Y144552D01*
X37679D01*
X37600Y144949D01*
X37091Y145710D01*
X36331Y146218D01*
X35933Y146297D01*
D02*
G37*
G36*
X34933D02*
X34536Y146218D01*
X33775Y145710D01*
X33266Y144949D01*
X33187Y144552D01*
X34933D01*
Y146297D01*
D02*
G37*
G36*
X146968Y144500D02*
X144638D01*
Y142071D01*
X146968D01*
Y144500D01*
D02*
G37*
G36*
X49490Y143700D02*
X47744D01*
Y141954D01*
X48142Y142033D01*
X48902Y142542D01*
X49411Y143303D01*
X49490Y143700D01*
D02*
G37*
G36*
X46744D02*
X44998D01*
X45077Y143303D01*
X45586Y142542D01*
X46347Y142033D01*
X46744Y141954D01*
Y143700D01*
D02*
G37*
G36*
X37679Y143552D02*
X35933D01*
Y141806D01*
X36331Y141885D01*
X37091Y142393D01*
X37600Y143154D01*
X37679Y143552D01*
D02*
G37*
G36*
X34933D02*
X33187D01*
X33266Y143154D01*
X33775Y142393D01*
X34536Y141885D01*
X34933Y141806D01*
Y143552D01*
D02*
G37*
G36*
X146968Y140929D02*
X144638D01*
Y138500D01*
X146968D01*
Y140929D01*
D02*
G37*
G36*
X39870Y136104D02*
Y134358D01*
X41616D01*
X41537Y134756D01*
X41028Y135517D01*
X40268Y136025D01*
X39870Y136104D01*
D02*
G37*
G36*
X38870D02*
X38473Y136025D01*
X37712Y135517D01*
X37203Y134756D01*
X37124Y134358D01*
X38870D01*
Y136104D01*
D02*
G37*
G36*
X41616Y133358D02*
X39870D01*
Y131613D01*
X40268Y131692D01*
X41028Y132200D01*
X41537Y132961D01*
X41616Y133358D01*
D02*
G37*
G36*
X38870D02*
X37124D01*
X37203Y132961D01*
X37712Y132200D01*
X38473Y131692D01*
X38870Y131613D01*
Y133358D01*
D02*
G37*
G36*
X149714Y132000D02*
X147968D01*
Y130254D01*
X148366Y130333D01*
X149127Y130842D01*
X149635Y131603D01*
X149714Y132000D01*
D02*
G37*
G36*
X146968D02*
X145223D01*
X145302Y131603D01*
X145810Y130842D01*
X146571Y130333D01*
X146968Y130254D01*
Y132000D01*
D02*
G37*
G36*
X22153Y126746D02*
Y125000D01*
X23899D01*
X23820Y125397D01*
X23312Y126158D01*
X22551Y126667D01*
X22153Y126746D01*
D02*
G37*
G36*
X21154D02*
X20756Y126667D01*
X19995Y126158D01*
X19487Y125397D01*
X19408Y125000D01*
X21154D01*
Y126746D01*
D02*
G37*
G36*
X115965Y125494D02*
X110059D01*
X109284Y125392D01*
X108562Y125093D01*
X107942Y124617D01*
X107466Y123997D01*
X107167Y123275D01*
X107065Y122500D01*
X107167Y121725D01*
X107466Y121003D01*
X107942Y120383D01*
X108562Y119907D01*
X109284Y119608D01*
X110059Y119506D01*
X115965D01*
X116739Y119608D01*
X117462Y119907D01*
X117992Y120314D01*
X118842Y120842D01*
X119603Y120333D01*
X120500Y120155D01*
X121397Y120333D01*
X122158Y120842D01*
X122667Y121603D01*
X122845Y122500D01*
X122667Y123397D01*
X122158Y124158D01*
X121397Y124667D01*
X120500Y124845D01*
X119603Y124667D01*
X118842Y124158D01*
X117992Y124686D01*
X117462Y125093D01*
X116739Y125392D01*
X115965Y125494D01*
D02*
G37*
G36*
X54941D02*
X49035D01*
X48261Y125392D01*
X47538Y125093D01*
X46918Y124617D01*
X46442Y123997D01*
X46143Y123275D01*
X46041Y122500D01*
X46143Y121725D01*
X46442Y121003D01*
X46918Y120383D01*
X47538Y119907D01*
X48261Y119608D01*
X49035Y119506D01*
X54941D01*
X55716Y119608D01*
X56438Y119907D01*
X57058Y120383D01*
X57534Y121003D01*
X57833Y121725D01*
X57935Y122500D01*
X57833Y123275D01*
X57534Y123997D01*
X57058Y124617D01*
X56438Y125093D01*
X55716Y125392D01*
X54941Y125494D01*
D02*
G37*
G36*
X23899Y124000D02*
X19408D01*
X19487Y123603D01*
X19716Y123260D01*
X19203Y122260D01*
X17504D01*
Y118217D01*
X21654D01*
X25803D01*
Y122260D01*
X24104D01*
X23591Y123260D01*
X23820Y123603D01*
X23899Y124000D01*
D02*
G37*
G36*
X25803Y117217D02*
X22154D01*
Y113173D01*
X25803D01*
Y117217D01*
D02*
G37*
G36*
X21154D02*
X17504D01*
Y113173D01*
X21154D01*
Y117217D01*
D02*
G37*
G36*
X54941Y115494D02*
X49035D01*
X48261Y115392D01*
X47538Y115093D01*
X46918Y114617D01*
X46442Y113997D01*
X46143Y113275D01*
X46041Y112500D01*
X46143Y111725D01*
X46204Y111580D01*
X45488Y110843D01*
X45488Y110843D01*
Y110843D01*
X35614D01*
Y102000D01*
X35614Y101756D01*
Y101000D01*
X35614Y100756D01*
Y91913D01*
X35614D01*
Y91157D01*
X35614D01*
Y82071D01*
X45219D01*
X45737Y81877D01*
X46244Y81482D01*
X46442Y81003D01*
X46918Y80383D01*
X47538Y79907D01*
X48261Y79608D01*
X49035Y79506D01*
X54941D01*
X55716Y79608D01*
X56438Y79907D01*
X57058Y80383D01*
X57534Y81003D01*
X57833Y81725D01*
X57935Y82500D01*
X57833Y83275D01*
X57534Y83997D01*
X57058Y84617D01*
X56438Y85093D01*
X55716Y85392D01*
X54941Y85494D01*
X49563D01*
X49026Y86490D01*
X49167Y86701D01*
X49345Y87598D01*
X49167Y88496D01*
X49160Y88506D01*
X49694Y89506D01*
X54941D01*
X55716Y89608D01*
X56438Y89907D01*
X57058Y90383D01*
X57387Y90812D01*
X58103Y90333D01*
X59000Y90155D01*
X59897Y90333D01*
X60658Y90842D01*
X61167Y91603D01*
X61345Y92500D01*
X61167Y93397D01*
X60658Y94158D01*
X59897Y94666D01*
X59000Y94845D01*
X58103Y94666D01*
X57387Y94188D01*
X57058Y94617D01*
X56438Y95093D01*
X55716Y95392D01*
X54941Y95494D01*
X49963D01*
X49787Y95628D01*
X49244Y96494D01*
X49345Y97000D01*
X49167Y97897D01*
X48740Y98536D01*
X48900Y99063D01*
X49189Y99506D01*
X54941D01*
X55716Y99608D01*
X56438Y99907D01*
X57058Y100383D01*
X57534Y101003D01*
X57833Y101725D01*
X57935Y102500D01*
X57833Y103275D01*
X57534Y103997D01*
X57058Y104617D01*
X56438Y105093D01*
X55716Y105392D01*
X54941Y105494D01*
X49189D01*
X48900Y105937D01*
X48740Y106464D01*
X49167Y107103D01*
X49345Y108000D01*
X49244Y108506D01*
X49787Y109372D01*
X49963Y109506D01*
X54941D01*
X55716Y109608D01*
X56438Y109907D01*
X57058Y110383D01*
X57534Y111003D01*
X57833Y111725D01*
X57935Y112500D01*
X57833Y113275D01*
X57534Y113997D01*
X57058Y114617D01*
X56438Y115093D01*
X55716Y115392D01*
X54941Y115494D01*
D02*
G37*
G36*
X91500Y107962D02*
Y106217D01*
X93246D01*
X93167Y106614D01*
X92658Y107375D01*
X91897Y107883D01*
X91500Y107962D01*
D02*
G37*
G36*
X90500D02*
X90103Y107883D01*
X89342Y107375D01*
X88833Y106614D01*
X88754Y106217D01*
X90500D01*
Y107962D01*
D02*
G37*
G36*
X76818Y107872D02*
Y106126D01*
X78564D01*
X78485Y106524D01*
X77976Y107285D01*
X77216Y107793D01*
X76818Y107872D01*
D02*
G37*
G36*
X75818D02*
X75421Y107793D01*
X74660Y107285D01*
X74152Y106524D01*
X74073Y106126D01*
X75818D01*
Y107872D01*
D02*
G37*
G36*
X115965Y115494D02*
X110059D01*
X109284Y115392D01*
X108562Y115093D01*
X107942Y114617D01*
X107466Y113997D01*
X107167Y113275D01*
X107065Y112500D01*
X107167Y111725D01*
X107466Y111003D01*
X107942Y110383D01*
X108562Y109907D01*
X109284Y109608D01*
X110059Y109506D01*
X115965D01*
X116739Y109608D01*
X117462Y109907D01*
X117851Y110206D01*
X118050D01*
X120706Y107550D01*
Y106756D01*
X120655Y106500D01*
X119994Y105646D01*
X119106D01*
Y104794D01*
X117851D01*
X117462Y105093D01*
X116739Y105392D01*
X115965Y105494D01*
X110059D01*
X109284Y105392D01*
X108562Y105093D01*
X107942Y104617D01*
X107466Y103997D01*
X107167Y103275D01*
X107065Y102500D01*
X107167Y101725D01*
X107466Y101003D01*
X107942Y100383D01*
X108562Y99907D01*
X109284Y99608D01*
X110059Y99506D01*
X115965D01*
X116739Y99608D01*
X117462Y99907D01*
X117851Y100206D01*
X118399D01*
X119106Y99499D01*
Y99079D01*
X119106Y98079D01*
Y95854D01*
X123000D01*
Y95354D01*
X123500D01*
Y92071D01*
X126894D01*
Y92918D01*
X127571Y93638D01*
X127894Y93638D01*
X130000D01*
Y96469D01*
X130500D01*
Y96969D01*
X133429D01*
Y98701D01*
X133429Y99299D01*
X133429Y100299D01*
Y105362D01*
X133098D01*
X132818Y106362D01*
X132845Y106500D01*
X132667Y107397D01*
X132158Y108158D01*
X131397Y108667D01*
X130500Y108845D01*
X129603Y108667D01*
X128842Y108158D01*
X128333Y107397D01*
X128155Y106500D01*
X128182Y106362D01*
X128119Y106135D01*
X128109Y106122D01*
X126940Y105626D01*
X126894Y105646D01*
X125933Y105740D01*
X125345Y106500D01*
X125294Y106756D01*
Y108500D01*
X125119Y109378D01*
X124622Y110122D01*
X120622Y114122D01*
X119878Y114620D01*
X119000Y114794D01*
X117851D01*
X117462Y115093D01*
X116739Y115392D01*
X115965Y115494D01*
D02*
G37*
G36*
X93246Y105217D02*
X91500D01*
Y103471D01*
X91897Y103550D01*
X92658Y104059D01*
X93167Y104819D01*
X93246Y105217D01*
D02*
G37*
G36*
X90500D02*
X88754D01*
X88833Y104819D01*
X89342Y104059D01*
X90103Y103550D01*
X90500Y103471D01*
Y105217D01*
D02*
G37*
G36*
X78564Y105126D02*
X76818D01*
Y103381D01*
X77216Y103460D01*
X77976Y103968D01*
X78485Y104729D01*
X78564Y105126D01*
D02*
G37*
G36*
X75818D02*
X74073D01*
X74152Y104729D01*
X74660Y103968D01*
X75421Y103460D01*
X75818Y103381D01*
Y105126D01*
D02*
G37*
G36*
X25591Y109492D02*
X24764Y109383D01*
X23994Y109064D01*
X23333Y108557D01*
X22826Y107896D01*
X22507Y107125D01*
X22398Y106299D01*
X22507Y105473D01*
X22826Y104703D01*
X23333Y104042D01*
X23994Y103534D01*
X24764Y103215D01*
X25591Y103106D01*
X26417Y103215D01*
X27187Y103534D01*
X27848Y104042D01*
X28356Y104703D01*
X28674Y105473D01*
X28783Y106299D01*
X28674Y107125D01*
X28356Y107896D01*
X27848Y108557D01*
X27187Y109064D01*
X26417Y109383D01*
X25591Y109492D01*
D02*
G37*
G36*
X169500Y101987D02*
Y100242D01*
X171246D01*
X171167Y100639D01*
X170658Y101400D01*
X169897Y101908D01*
X169500Y101987D01*
D02*
G37*
G36*
X168500D02*
X168103Y101908D01*
X167342Y101400D01*
X166833Y100639D01*
X166754Y100242D01*
X168500D01*
Y101987D01*
D02*
G37*
G36*
X159000Y101896D02*
Y100150D01*
X160746D01*
X160667Y100547D01*
X160158Y101308D01*
X159397Y101816D01*
X159000Y101896D01*
D02*
G37*
G36*
X158000D02*
X157603Y101816D01*
X156842Y101308D01*
X156333Y100547D01*
X156254Y100150D01*
X158000D01*
Y101896D01*
D02*
G37*
G36*
X171246Y99242D02*
X169500D01*
Y97496D01*
X169897Y97575D01*
X170658Y98084D01*
X171167Y98844D01*
X171246Y99242D01*
D02*
G37*
G36*
X168500D02*
X166754D01*
X166833Y98844D01*
X167342Y98084D01*
X168103Y97575D01*
X168500Y97496D01*
Y99242D01*
D02*
G37*
G36*
X160746Y99150D02*
X159000D01*
Y97404D01*
X159397Y97483D01*
X160158Y97992D01*
X160667Y98753D01*
X160746Y99150D01*
D02*
G37*
G36*
X158000D02*
X156254D01*
X156333Y98753D01*
X156842Y97992D01*
X157603Y97483D01*
X158000Y97404D01*
Y99150D01*
D02*
G37*
G36*
X84395Y98714D02*
Y96969D01*
X86141D01*
X86062Y97366D01*
X85553Y98127D01*
X84793Y98635D01*
X84395Y98714D01*
D02*
G37*
G36*
X83395D02*
X82998Y98635D01*
X82237Y98127D01*
X81729Y97366D01*
X81650Y96969D01*
X83395D01*
Y98714D01*
D02*
G37*
G36*
X71366Y96844D02*
Y95098D01*
X73112D01*
X73033Y95496D01*
X72524Y96257D01*
X71764Y96765D01*
X71366Y96844D01*
D02*
G37*
G36*
X70366D02*
X69969Y96765D01*
X69208Y96257D01*
X68700Y95496D01*
X68621Y95098D01*
X70366D01*
Y96844D01*
D02*
G37*
G36*
X86141Y95969D02*
X84395D01*
Y94223D01*
X84793Y94302D01*
X85553Y94810D01*
X86062Y95571D01*
X86141Y95969D01*
D02*
G37*
G36*
X83395D02*
X81650D01*
X81729Y95571D01*
X82237Y94810D01*
X82998Y94302D01*
X83395Y94223D01*
Y95969D01*
D02*
G37*
G36*
X133429D02*
X131000D01*
Y93638D01*
X133429D01*
Y95969D01*
D02*
G37*
G36*
X112512Y95494D02*
X110059D01*
X109284Y95392D01*
X108562Y95093D01*
X107942Y94617D01*
X107466Y93997D01*
X107167Y93275D01*
X107131Y93000D01*
X112512D01*
Y95494D01*
D02*
G37*
G36*
X73112Y94098D02*
X71366D01*
Y92353D01*
X71764Y92432D01*
X72524Y92940D01*
X73033Y93701D01*
X73112Y94098D01*
D02*
G37*
G36*
X70366D02*
X68621D01*
X68700Y93701D01*
X69208Y92940D01*
X69969Y92432D01*
X70366Y92353D01*
Y94098D01*
D02*
G37*
G36*
X115965Y95494D02*
X113512D01*
Y92500D01*
Y89506D01*
X115965D01*
X116739Y89608D01*
X117462Y89907D01*
X118082Y90383D01*
X118558Y91003D01*
X118662Y91255D01*
X118934Y91754D01*
X119781Y92071D01*
X122500D01*
Y94854D01*
X118899D01*
X118106Y94585D01*
X118082Y94617D01*
X117462Y95093D01*
X116739Y95392D01*
X115965Y95494D01*
D02*
G37*
G36*
X112512Y92000D02*
X107131D01*
X107167Y91725D01*
X107466Y91003D01*
X107942Y90383D01*
X108562Y89907D01*
X109284Y89608D01*
X110059Y89506D01*
X112512D01*
Y92000D01*
D02*
G37*
G36*
X165453Y91585D02*
X164421Y91449D01*
X163459Y91051D01*
X162634Y90418D01*
X162000Y89592D01*
X161602Y88630D01*
X161466Y87598D01*
X161602Y86567D01*
X162000Y85605D01*
X162634Y84779D01*
X163459Y84146D01*
X164421Y83747D01*
X165453Y83612D01*
X166485Y83747D01*
X167446Y84146D01*
X168272Y84779D01*
X168905Y85605D01*
X169304Y86567D01*
X169440Y87598D01*
X169304Y88630D01*
X168905Y89592D01*
X168272Y90418D01*
X167446Y91051D01*
X166485Y91449D01*
X165453Y91585D01*
D02*
G37*
G36*
X25591Y89807D02*
X24764Y89698D01*
X23994Y89379D01*
X23333Y88872D01*
X22826Y88210D01*
X22507Y87441D01*
X22398Y86614D01*
X22507Y85788D01*
X22826Y85018D01*
X23333Y84357D01*
X23994Y83849D01*
X24764Y83530D01*
X25591Y83421D01*
X26417Y83530D01*
X27187Y83849D01*
X27848Y84357D01*
X28356Y85018D01*
X28674Y85788D01*
X28783Y86614D01*
X28674Y87441D01*
X28356Y88210D01*
X27848Y88872D01*
X27187Y89379D01*
X26417Y89698D01*
X25591Y89807D01*
D02*
G37*
G36*
X115965Y85494D02*
X110059D01*
X109284Y85392D01*
X108562Y85093D01*
X107942Y84617D01*
X107466Y83997D01*
X107167Y83275D01*
X107065Y82500D01*
X107167Y81725D01*
X107466Y81003D01*
X107942Y80383D01*
X108562Y79907D01*
X109284Y79608D01*
X110059Y79506D01*
X115965D01*
X116739Y79608D01*
X117462Y79907D01*
X117992Y80314D01*
X118842Y80842D01*
X119603Y80334D01*
X120500Y80155D01*
X121397Y80334D01*
X122158Y80842D01*
X122667Y81603D01*
X122845Y82500D01*
X122667Y83397D01*
X122158Y84158D01*
X121397Y84667D01*
X120500Y84845D01*
X119603Y84667D01*
X118842Y84158D01*
X117992Y84686D01*
X117462Y85093D01*
X116739Y85392D01*
X115965Y85494D01*
D02*
G37*
G36*
X101304Y80246D02*
Y78500D01*
X103049D01*
X102970Y78897D01*
X102462Y79658D01*
X101701Y80167D01*
X101304Y80246D01*
D02*
G37*
G36*
X100303D02*
X99906Y80167D01*
X99145Y79658D01*
X98637Y78897D01*
X98558Y78500D01*
X100303D01*
Y80246D01*
D02*
G37*
G36*
X103049Y77500D02*
X101304D01*
Y75754D01*
X101701Y75833D01*
X102462Y76342D01*
X102970Y77103D01*
X103049Y77500D01*
D02*
G37*
G36*
X100303D02*
X98558D01*
X98637Y77103D01*
X99145Y76342D01*
X99906Y75833D01*
X100303Y75754D01*
Y77500D01*
D02*
G37*
G36*
X54941Y75494D02*
X52488D01*
Y73000D01*
X57869D01*
X57833Y73275D01*
X57534Y73997D01*
X57058Y74617D01*
X56438Y75093D01*
X55716Y75392D01*
X54941Y75494D01*
D02*
G37*
G36*
X51488D02*
X49035D01*
X48261Y75392D01*
X47538Y75093D01*
X46918Y74617D01*
X46442Y73997D01*
X46143Y73275D01*
X46107Y73000D01*
X51488D01*
Y75494D01*
D02*
G37*
G36*
X91000Y73112D02*
Y71366D01*
X92746D01*
X92667Y71764D01*
X92158Y72524D01*
X91397Y73033D01*
X91000Y73112D01*
D02*
G37*
G36*
X90000D02*
X89603Y73033D01*
X88842Y72524D01*
X88333Y71764D01*
X88254Y71366D01*
X90000D01*
Y73112D01*
D02*
G37*
G36*
X25803Y79740D02*
X17504D01*
Y70653D01*
X25803D01*
Y79740D01*
D02*
G37*
G36*
X149232Y70183D02*
X148232Y70183D01*
X143169D01*
Y70183D01*
X142169Y69565D01*
X142000Y69599D01*
X141103Y69420D01*
X140342Y68912D01*
X139833Y68151D01*
X139655Y67254D01*
X139833Y66356D01*
X140342Y65596D01*
X141103Y65087D01*
X142000Y64909D01*
X142169Y64942D01*
X143169Y64325D01*
Y64325D01*
X148232D01*
X148831Y64325D01*
X149831Y64325D01*
X154894D01*
Y64325D01*
X155894Y64930D01*
X156000Y64909D01*
X156897Y65087D01*
X157658Y65596D01*
X158167Y66356D01*
X158345Y67254D01*
X158167Y68151D01*
X157658Y68912D01*
X156897Y69420D01*
X156000Y69599D01*
X155894Y69578D01*
X154894Y70183D01*
Y70183D01*
X149831D01*
X149232Y70183D01*
D02*
G37*
G36*
X115965Y75494D02*
X110059D01*
X109284Y75392D01*
X108562Y75093D01*
X107942Y74617D01*
X107466Y73997D01*
X107167Y73275D01*
X107065Y72500D01*
X107167Y71725D01*
X107466Y71003D01*
X107942Y70383D01*
X108562Y69907D01*
X109284Y69608D01*
X110059Y69506D01*
X115965D01*
X116739Y69608D01*
X117462Y69907D01*
X117992Y70314D01*
X118842Y70842D01*
X119603Y70333D01*
X120500Y70155D01*
X121397Y70333D01*
X122158Y70842D01*
X122667Y71603D01*
X122845Y72500D01*
X122667Y73397D01*
X122158Y74158D01*
X121397Y74667D01*
X120500Y74845D01*
X119603Y74667D01*
X118842Y74158D01*
X117992Y74686D01*
X117462Y75093D01*
X116739Y75392D01*
X115965Y75494D01*
D02*
G37*
G36*
X57869Y72000D02*
X52488D01*
Y69506D01*
X54941D01*
X55716Y69608D01*
X56438Y69907D01*
X57058Y70383D01*
X57534Y71003D01*
X57833Y71725D01*
X57869Y72000D01*
D02*
G37*
G36*
X51488D02*
X46107D01*
X46143Y71725D01*
X46442Y71003D01*
X46918Y70383D01*
X47538Y69907D01*
X48261Y69608D01*
X49035Y69506D01*
X51488D01*
Y72000D01*
D02*
G37*
G36*
X92746Y70366D02*
X91000D01*
Y68621D01*
X91397Y68700D01*
X92158Y69208D01*
X92667Y69969D01*
X92746Y70366D01*
D02*
G37*
G36*
X90000D02*
X88254D01*
X88333Y69969D01*
X88842Y69208D01*
X89603Y68700D01*
X90000Y68621D01*
Y70366D01*
D02*
G37*
G36*
X168315Y81315D02*
X162394D01*
X159433Y78354D01*
Y58653D01*
X162394Y55693D01*
X168315D01*
X171276Y58653D01*
Y66720D01*
X173882D01*
Y65092D01*
X178638D01*
Y72014D01*
X173882D01*
Y70288D01*
X171276D01*
Y78354D01*
X168315Y81315D01*
D02*
G37*
G36*
X39870Y65635D02*
Y63890D01*
X41616D01*
X41537Y64287D01*
X41028Y65048D01*
X40268Y65556D01*
X39870Y65635D01*
D02*
G37*
G36*
X38870D02*
X38473Y65556D01*
X37712Y65048D01*
X37203Y64287D01*
X37124Y63890D01*
X38870D01*
Y65635D01*
D02*
G37*
G36*
X26917Y65135D02*
Y63390D01*
X28662D01*
X28583Y63787D01*
X28075Y64548D01*
X27314Y65056D01*
X26917Y65135D01*
D02*
G37*
G36*
X25917D02*
X25519Y65056D01*
X24759Y64548D01*
X24250Y63787D01*
X24171Y63390D01*
X25917D01*
Y65135D01*
D02*
G37*
G36*
X149232Y63183D02*
X148232Y63183D01*
X143169D01*
Y63135D01*
X142169Y62351D01*
X142000Y62384D01*
X141103Y62206D01*
X140342Y61698D01*
X139833Y60937D01*
X139655Y60039D01*
X139833Y59142D01*
X140342Y58381D01*
X141103Y57873D01*
X142000Y57694D01*
X142169Y57728D01*
X143169Y57325D01*
Y57325D01*
X148232D01*
X148831Y57325D01*
X149831Y57325D01*
X154894D01*
Y57325D01*
X155894Y57930D01*
X156000Y57909D01*
X156897Y58087D01*
X157658Y58596D01*
X158167Y59356D01*
X158345Y60254D01*
X158167Y61151D01*
X157658Y61912D01*
X156897Y62420D01*
X156000Y62599D01*
X155894Y62578D01*
X154894Y63183D01*
Y63183D01*
X149831D01*
X149232Y63183D01*
D02*
G37*
G36*
X41616Y62890D02*
X39870D01*
Y61144D01*
X40268Y61223D01*
X41028Y61732D01*
X41537Y62492D01*
X41616Y62890D01*
D02*
G37*
G36*
X38870D02*
X37124D01*
X37203Y62492D01*
X37712Y61732D01*
X38473Y61223D01*
X38870Y61144D01*
Y62890D01*
D02*
G37*
G36*
X28662Y62390D02*
X26917D01*
Y60644D01*
X27314Y60723D01*
X28075Y61232D01*
X28583Y61992D01*
X28662Y62390D01*
D02*
G37*
G36*
X25917D02*
X24171D01*
X24250Y61992D01*
X24759Y61232D01*
X25519Y60723D01*
X25917Y60644D01*
Y62390D01*
D02*
G37*
G36*
X116468Y55246D02*
Y53500D01*
X118214D01*
X118135Y53897D01*
X117626Y54658D01*
X116866Y55167D01*
X116468Y55246D01*
D02*
G37*
G36*
X115468D02*
X115071Y55167D01*
X114310Y54658D01*
X113802Y53897D01*
X113723Y53500D01*
X115468D01*
Y55246D01*
D02*
G37*
G36*
X84895Y55062D02*
Y53316D01*
X86641D01*
X86562Y53714D01*
X86053Y54474D01*
X85293Y54983D01*
X84895Y55062D01*
D02*
G37*
G36*
X83895D02*
X83498Y54983D01*
X82737Y54474D01*
X82229Y53714D01*
X82150Y53316D01*
X83895D01*
Y55062D01*
D02*
G37*
G36*
X118214Y52500D02*
X116468D01*
Y50754D01*
X116866Y50833D01*
X117626Y51342D01*
X118135Y52103D01*
X118214Y52500D01*
D02*
G37*
G36*
X115468D02*
X113723D01*
X113802Y52103D01*
X114310Y51342D01*
X115071Y50833D01*
X115468Y50754D01*
Y52500D01*
D02*
G37*
G36*
X86641Y52316D02*
X84895D01*
Y50570D01*
X85293Y50649D01*
X86053Y51158D01*
X86562Y51919D01*
X86641Y52316D01*
D02*
G37*
G36*
X83895D02*
X82150D01*
X82229Y51919D01*
X82737Y51158D01*
X83498Y50649D01*
X83895Y50570D01*
Y52316D01*
D02*
G37*
G36*
X103500Y52921D02*
Y49500D01*
X106921D01*
X106851Y50032D01*
X106453Y50993D01*
X105819Y51819D01*
X104993Y52453D01*
X104032Y52851D01*
X103500Y52921D01*
D02*
G37*
G36*
X102500D02*
X101968Y52851D01*
X101007Y52453D01*
X100181Y51819D01*
X99547Y50993D01*
X99149Y50032D01*
X99079Y49500D01*
X102500D01*
Y52921D01*
D02*
G37*
G36*
X93246Y49784D02*
Y48039D01*
X94991D01*
X94912Y48436D01*
X94404Y49197D01*
X93643Y49705D01*
X93246Y49784D01*
D02*
G37*
G36*
X92246D02*
X91848Y49705D01*
X91087Y49197D01*
X90579Y48436D01*
X90500Y48039D01*
X92246D01*
Y49784D01*
D02*
G37*
G36*
X94991Y47039D02*
X93246D01*
Y45293D01*
X93643Y45372D01*
X94404Y45880D01*
X94912Y46641D01*
X94991Y47039D01*
D02*
G37*
G36*
X92246D02*
X90500D01*
X90579Y46641D01*
X91087Y45880D01*
X91848Y45372D01*
X92246Y45293D01*
Y47039D01*
D02*
G37*
G36*
X106921Y48500D02*
X103500D01*
Y45079D01*
X104032Y45149D01*
X104993Y45547D01*
X105819Y46181D01*
X106453Y47007D01*
X106851Y47968D01*
X106921Y48500D01*
D02*
G37*
G36*
X102500D02*
X99079D01*
X99149Y47968D01*
X99547Y47007D01*
X100181Y46181D01*
X101007Y45547D01*
X101968Y45149D01*
X102500Y45079D01*
Y48500D01*
D02*
G37*
G36*
X82244Y44389D02*
X78398D01*
Y41921D01*
X82244D01*
Y44389D01*
D02*
G37*
G36*
X77398D02*
X73551D01*
Y41921D01*
X77398D01*
Y44389D01*
D02*
G37*
G36*
X56653Y44275D02*
X52807D01*
Y41806D01*
X56653D01*
Y44275D01*
D02*
G37*
G36*
X51807D02*
X47961D01*
Y41806D01*
X51807D01*
Y44275D01*
D02*
G37*
G36*
X82244Y40921D02*
X78398D01*
Y38452D01*
X82244D01*
Y40921D01*
D02*
G37*
G36*
X77398D02*
X73551D01*
Y38452D01*
X77398D01*
Y40921D01*
D02*
G37*
G36*
X56653Y40806D02*
X52807D01*
Y38337D01*
X56653D01*
Y40806D01*
D02*
G37*
G36*
X51807D02*
X47961D01*
Y38337D01*
X51807D01*
Y40806D01*
D02*
G37*
G36*
X56653Y34547D02*
X47961D01*
Y28610D01*
X56653D01*
Y29998D01*
X58948D01*
X59000Y29920D01*
X59761Y29412D01*
X60658Y29233D01*
X61556Y29412D01*
X62316Y29920D01*
X62825Y30681D01*
X63003Y31578D01*
X62825Y32476D01*
X62316Y33237D01*
X61556Y33745D01*
X60658Y33924D01*
X59761Y33745D01*
X59000Y33237D01*
X58948Y33159D01*
X56653D01*
Y34547D01*
D02*
G37*
G36*
X31063Y34432D02*
X22370D01*
Y28495D01*
X31063D01*
Y29883D01*
X32397D01*
X33103Y29412D01*
X34000Y29233D01*
X34897Y29412D01*
X35658Y29920D01*
X36167Y30681D01*
X36345Y31578D01*
X36167Y32476D01*
X35658Y33237D01*
X34897Y33745D01*
X34000Y33924D01*
X33103Y33745D01*
X32342Y33237D01*
X32213Y33044D01*
X31063D01*
Y34432D01*
D02*
G37*
G36*
X19843Y29252D02*
Y27507D01*
X21589D01*
X21510Y27904D01*
X21002Y28665D01*
X20241Y29173D01*
X19843Y29252D01*
D02*
G37*
G36*
X18844D02*
X18446Y29173D01*
X17685Y28665D01*
X17177Y27904D01*
X17098Y27507D01*
X18844D01*
Y29252D01*
D02*
G37*
G36*
X7095D02*
Y27507D01*
X8841D01*
X8762Y27904D01*
X8253Y28665D01*
X7493Y29173D01*
X7095Y29252D01*
D02*
G37*
G36*
X6095D02*
X5698Y29173D01*
X4937Y28665D01*
X4429Y27904D01*
X4350Y27507D01*
X6095D01*
Y29252D01*
D02*
G37*
G36*
X103000Y32987D02*
X101968Y32851D01*
X101007Y32453D01*
X100181Y31819D01*
X99547Y30993D01*
X99149Y30032D01*
X99013Y29000D01*
X99149Y27968D01*
X99547Y27007D01*
X100181Y26181D01*
X101007Y25547D01*
X101968Y25149D01*
X103000Y25013D01*
X104032Y25149D01*
X104993Y25547D01*
X105819Y26181D01*
X106453Y27007D01*
X106851Y27968D01*
X106987Y29000D01*
X106851Y30032D01*
X106453Y30993D01*
X105819Y31819D01*
X104993Y32453D01*
X104032Y32851D01*
X103000Y32987D01*
D02*
G37*
G36*
X21589Y26507D02*
X19843D01*
Y24761D01*
X20241Y24840D01*
X21002Y25348D01*
X21510Y26109D01*
X21589Y26507D01*
D02*
G37*
G36*
X18844D02*
X17098D01*
X17177Y26109D01*
X17685Y25348D01*
X18446Y24840D01*
X18844Y24761D01*
Y26507D01*
D02*
G37*
G36*
X8841D02*
X7095D01*
Y24761D01*
X7493Y24840D01*
X8253Y25348D01*
X8762Y26109D01*
X8841Y26507D01*
D02*
G37*
G36*
X6095D02*
X4350D01*
X4429Y26109D01*
X4937Y25348D01*
X5698Y24840D01*
X6095Y24761D01*
Y26507D01*
D02*
G37*
G36*
X101287Y20894D02*
X98504D01*
Y17500D01*
X101287D01*
Y20894D01*
D02*
G37*
G36*
X138969Y19429D02*
X136638D01*
Y17000D01*
X138969D01*
Y19429D01*
D02*
G37*
G36*
X40370Y18718D02*
Y16972D01*
X42116D01*
X42037Y17370D01*
X41528Y18131D01*
X40767Y18639D01*
X40370Y18718D01*
D02*
G37*
G36*
X39370D02*
X38973Y18639D01*
X38212Y18131D01*
X37703Y17370D01*
X37624Y16972D01*
X39370D01*
Y18718D01*
D02*
G37*
G36*
X42116Y15972D02*
X40370D01*
Y14227D01*
X40767Y14306D01*
X41528Y14814D01*
X42037Y15575D01*
X42116Y15972D01*
D02*
G37*
G36*
X39370D02*
X37624D01*
X37703Y15575D01*
X38212Y14814D01*
X38973Y14306D01*
X39370Y14227D01*
Y15972D01*
D02*
G37*
G36*
X138969Y16000D02*
X136638D01*
Y13571D01*
X138969D01*
Y16000D01*
D02*
G37*
G36*
X31996Y14727D02*
Y12981D01*
X33742D01*
X33663Y13378D01*
X33154Y14139D01*
X32394Y14648D01*
X31996Y14727D01*
D02*
G37*
G36*
X30996D02*
X30599Y14648D01*
X29838Y14139D01*
X29329Y13378D01*
X29250Y12981D01*
X30996D01*
Y14727D01*
D02*
G37*
G36*
X33742Y11981D02*
X31996D01*
Y10235D01*
X32394Y10314D01*
X33154Y10823D01*
X33663Y11584D01*
X33742Y11981D01*
D02*
G37*
G36*
X30996D02*
X29250D01*
X29329Y11584D01*
X29838Y10823D01*
X30599Y10314D01*
X30996Y10235D01*
Y11981D01*
D02*
G37*
G36*
X66929Y12054D02*
X66000Y11932D01*
X65134Y11573D01*
X64391Y11003D01*
X63820Y10259D01*
X63514Y9521D01*
X63003Y9394D01*
X62981D01*
X62470Y9521D01*
X62164Y10259D01*
X61594Y11003D01*
X60850Y11573D01*
X59984Y11932D01*
X59055Y12054D01*
X58126Y11932D01*
X57260Y11573D01*
X56517Y11003D01*
X55946Y10259D01*
X55640Y9521D01*
X55129Y9394D01*
X55107D01*
X54596Y9521D01*
X54290Y10259D01*
X53719Y11003D01*
X52976Y11573D01*
X52110Y11932D01*
X51181Y12054D01*
X50252Y11932D01*
X49386Y11573D01*
X48643Y11003D01*
X48072Y10259D01*
X47714Y9394D01*
X47591Y8465D01*
Y7283D01*
X47714Y6354D01*
X48072Y5489D01*
X48643Y4745D01*
X49386Y4175D01*
X50252Y3816D01*
X51181Y3694D01*
X52110Y3816D01*
X52976Y4175D01*
X53719Y4745D01*
X54290Y5489D01*
X54596Y6227D01*
X55107Y6354D01*
X55129D01*
X55640Y6227D01*
X55946Y5489D01*
X56517Y4745D01*
X57260Y4175D01*
X58126Y3816D01*
X59055Y3694D01*
X59984Y3816D01*
X60850Y4175D01*
X61594Y4745D01*
X62164Y5489D01*
X62470Y6227D01*
X62981Y6354D01*
X63003D01*
X63514Y6227D01*
X63820Y5489D01*
X64391Y4745D01*
X65134Y4175D01*
X66000Y3816D01*
X66929Y3694D01*
X67858Y3816D01*
X68724Y4175D01*
X69468Y4745D01*
X70038Y5489D01*
X70397Y6354D01*
X70519Y7283D01*
Y8465D01*
X70397Y9394D01*
X70038Y10259D01*
X69468Y11003D01*
X68724Y11573D01*
X67858Y11932D01*
X66929Y12054D01*
D02*
G37*
G36*
X39870Y10782D02*
Y9037D01*
X41616D01*
X41537Y9434D01*
X41028Y10195D01*
X40268Y10703D01*
X39870Y10782D01*
D02*
G37*
G36*
X38870D02*
X38473Y10703D01*
X37712Y10195D01*
X37203Y9434D01*
X37124Y9037D01*
X38870D01*
Y10782D01*
D02*
G37*
G36*
X41616Y8037D02*
X39870D01*
Y6291D01*
X40268Y6370D01*
X41028Y6878D01*
X41537Y7639D01*
X41616Y8037D01*
D02*
G37*
G36*
X38870D02*
X37124D01*
X37203Y7639D01*
X37712Y6878D01*
X38473Y6370D01*
X38870Y6291D01*
Y8037D01*
D02*
G37*
G36*
X339583Y129890D02*
X336130D01*
Y126437D01*
X339583D01*
Y129890D01*
D02*
G37*
G36*
X335130D02*
X331677D01*
Y126437D01*
X335130D01*
Y129890D01*
D02*
G37*
G36*
X339583Y125437D02*
X336130D01*
Y121984D01*
X339583D01*
Y125437D01*
D02*
G37*
G36*
X335130D02*
X331677D01*
Y121984D01*
X335130D01*
Y125437D01*
D02*
G37*
G36*
X304583Y129890D02*
X296677D01*
Y121984D01*
X304583D01*
Y129890D01*
D02*
G37*
G36*
X448032Y107051D02*
X447350D01*
Y104358D01*
X451158D01*
X451115Y104685D01*
X450796Y105455D01*
X450289Y106116D01*
X449628Y106623D01*
X448858Y106942D01*
X448032Y107051D01*
D02*
G37*
G36*
X446350D02*
X445669D01*
X444843Y106942D01*
X444073Y106623D01*
X443412Y106116D01*
X442904Y105455D01*
X442585Y104685D01*
X442543Y104358D01*
X446350D01*
Y107051D01*
D02*
G37*
G36*
X451158Y103358D02*
X447350D01*
Y100666D01*
X448032D01*
X448858Y100774D01*
X449628Y101093D01*
X450289Y101601D01*
X450796Y102262D01*
X451115Y103032D01*
X451158Y103358D01*
D02*
G37*
G36*
X446350D02*
X442543D01*
X442585Y103032D01*
X442904Y102262D01*
X443412Y101601D01*
X444073Y101093D01*
X444843Y100774D01*
X445669Y100666D01*
X446350D01*
Y103358D01*
D02*
G37*
G36*
X450789Y97613D02*
Y95868D01*
X452535D01*
X452456Y96265D01*
X451947Y97026D01*
X451187Y97534D01*
X450789Y97613D01*
D02*
G37*
G36*
X449789D02*
X449392Y97534D01*
X448631Y97026D01*
X448123Y96265D01*
X448043Y95868D01*
X449789D01*
Y97613D01*
D02*
G37*
G36*
X452535Y94868D02*
X450789D01*
Y93122D01*
X451187Y93201D01*
X451947Y93710D01*
X452456Y94470D01*
X452535Y94868D01*
D02*
G37*
G36*
X449789D02*
X448043D01*
X448123Y94470D01*
X448631Y93710D01*
X449392Y93201D01*
X449789Y93122D01*
Y94868D01*
D02*
G37*
G36*
X435933Y96237D02*
Y91051D01*
X438626D01*
Y93110D01*
X438517Y93937D01*
X438198Y94707D01*
X437691Y95368D01*
X437029Y95875D01*
X436259Y96194D01*
X435933Y96237D01*
D02*
G37*
G36*
X450789Y91812D02*
Y90067D01*
X452535D01*
X452456Y90464D01*
X451947Y91225D01*
X451187Y91733D01*
X450789Y91812D01*
D02*
G37*
G36*
X449789D02*
X449392Y91733D01*
X448631Y91225D01*
X448123Y90464D01*
X448043Y90067D01*
X449789D01*
Y91812D01*
D02*
G37*
G36*
X452535Y89067D02*
X450789D01*
Y87321D01*
X451187Y87400D01*
X451947Y87909D01*
X452456Y88670D01*
X452535Y89067D01*
D02*
G37*
G36*
X449789D02*
X448043D01*
X448123Y88670D01*
X448631Y87909D01*
X449392Y87400D01*
X449789Y87321D01*
Y89067D01*
D02*
G37*
G36*
X438626Y90051D02*
X435933D01*
Y84865D01*
X436259Y84908D01*
X437029Y85227D01*
X437691Y85735D01*
X438198Y86396D01*
X438517Y87166D01*
X438626Y87992D01*
Y90051D01*
D02*
G37*
G36*
X434933D02*
X432240D01*
Y87992D01*
X432349Y87166D01*
X432668Y86396D01*
X433176Y85735D01*
X433837Y85227D01*
X434607Y84908D01*
X434933Y84865D01*
Y90051D01*
D02*
G37*
G36*
X411637Y80611D02*
Y78866D01*
X413383D01*
X413304Y79263D01*
X412796Y80024D01*
X412035Y80532D01*
X411637Y80611D01*
D02*
G37*
G36*
X410637D02*
X410240Y80532D01*
X409479Y80024D01*
X408971Y79263D01*
X408892Y78866D01*
X410637D01*
Y80611D01*
D02*
G37*
G36*
X443988Y78567D02*
X443422Y78493D01*
X442796Y78233D01*
X442258Y77821D01*
X441845Y77283D01*
X441586Y76656D01*
X441563Y76484D01*
X443988D01*
Y78567D01*
D02*
G37*
G36*
X413383Y77866D02*
X411637D01*
Y76120D01*
X412035Y76199D01*
X412796Y76708D01*
X413304Y77468D01*
X413383Y77866D01*
D02*
G37*
G36*
X410637D02*
X408892D01*
X408971Y77468D01*
X409479Y76708D01*
X410240Y76199D01*
X410637Y76120D01*
Y77866D01*
D02*
G37*
G36*
X406012Y75721D02*
Y73976D01*
X407757D01*
X407678Y74373D01*
X407170Y75134D01*
X406409Y75642D01*
X406012Y75721D01*
D02*
G37*
G36*
X405012D02*
X404614Y75642D01*
X403854Y75134D01*
X403345Y74373D01*
X403266Y73976D01*
X405012D01*
Y75721D01*
D02*
G37*
G36*
X407757Y72976D02*
X406012D01*
Y71230D01*
X406409Y71309D01*
X407170Y71817D01*
X407678Y72578D01*
X407757Y72976D01*
D02*
G37*
G36*
X405012D02*
X403266D01*
X403345Y72578D01*
X403854Y71817D01*
X404614Y71309D01*
X405012Y71230D01*
Y72976D01*
D02*
G37*
G36*
X411637Y72246D02*
Y70500D01*
X413383D01*
X413304Y70897D01*
X412796Y71658D01*
X412035Y72167D01*
X411637Y72246D01*
D02*
G37*
G36*
X410637D02*
X410240Y72167D01*
X409479Y71658D01*
X408971Y70897D01*
X408892Y70500D01*
X410637D01*
Y72246D01*
D02*
G37*
G36*
X443988Y69972D02*
X441563D01*
X441586Y69800D01*
X441845Y69174D01*
X442258Y68636D01*
X442796Y68223D01*
X443422Y67964D01*
X443988Y67889D01*
Y69972D01*
D02*
G37*
G36*
X413383Y69500D02*
X411637D01*
Y67754D01*
X412035Y67834D01*
X412796Y68342D01*
X413304Y69103D01*
X413383Y69500D01*
D02*
G37*
G36*
X410637D02*
X408892D01*
X408971Y69103D01*
X409479Y68342D01*
X410240Y67834D01*
X410637Y67754D01*
Y69500D01*
D02*
G37*
G36*
X393358Y66175D02*
X386910D01*
Y64658D01*
X384347D01*
Y65150D01*
X369945D01*
Y56850D01*
X384347D01*
Y58606D01*
X386910D01*
Y57089D01*
X393358D01*
Y66175D01*
D02*
G37*
G36*
X448425Y60388D02*
X445701D01*
Y56345D01*
X448425D01*
Y60388D01*
D02*
G37*
G36*
X444701D02*
X441976D01*
Y56345D01*
X444701D01*
Y60388D01*
D02*
G37*
G36*
X472780Y57429D02*
X470449D01*
Y55000D01*
X472780D01*
Y57429D01*
D02*
G37*
G36*
X410468Y55061D02*
X408138D01*
Y52632D01*
X410468D01*
Y55061D01*
D02*
G37*
G36*
X437659Y54594D02*
Y52263D01*
X440088D01*
Y54594D01*
X437659D01*
D02*
G37*
G36*
X448425Y55345D02*
X445701D01*
Y51302D01*
X448425D01*
Y55345D01*
D02*
G37*
G36*
X444701D02*
X441976D01*
Y51302D01*
X444701D01*
Y55345D01*
D02*
G37*
G36*
X395445Y52419D02*
X392051D01*
Y49636D01*
X395445D01*
Y52419D01*
D02*
G37*
G36*
X391051D02*
X387657D01*
Y49636D01*
X391051D01*
Y52419D01*
D02*
G37*
G36*
X410468Y51632D02*
X408138D01*
Y49203D01*
X410468D01*
Y51632D01*
D02*
G37*
G36*
X455213Y49756D02*
X450382D01*
Y47287D01*
X455213D01*
Y49756D01*
D02*
G37*
G36*
X449382D02*
X444551D01*
Y47287D01*
X449382D01*
Y49756D01*
D02*
G37*
G36*
X309504Y48746D02*
Y47000D01*
X311249D01*
X311171Y47397D01*
X310662Y48158D01*
X309901Y48667D01*
X309504Y48746D01*
D02*
G37*
G36*
X455213Y46287D02*
X450382D01*
Y43819D01*
X455213D01*
Y46287D01*
D02*
G37*
G36*
X449382D02*
X444551D01*
Y43819D01*
X449382D01*
Y46287D01*
D02*
G37*
G36*
X393429Y29100D02*
X391000D01*
Y26770D01*
X393429D01*
Y29100D01*
D02*
G37*
G36*
X390000D02*
X387571D01*
Y26770D01*
X390000D01*
Y29100D01*
D02*
G37*
G36*
X414968Y26061D02*
X412638D01*
Y23632D01*
X414968D01*
Y26061D01*
D02*
G37*
G36*
X448425Y23793D02*
X448207D01*
X448425Y23575D01*
Y23793D01*
D02*
G37*
G36*
X414968Y22632D02*
X412638D01*
Y20203D01*
X414968D01*
Y22632D01*
D02*
G37*
G36*
X405254Y35132D02*
X400764D01*
X396273D01*
X396358Y34704D01*
X396884Y33917D01*
X397184Y33717D01*
Y32547D01*
X396884Y32346D01*
X396358Y31560D01*
X396174Y30632D01*
X396358Y29704D01*
X396884Y28917D01*
X397671Y28392D01*
X398215Y28284D01*
Y21602D01*
X398409Y20627D01*
X398642Y20278D01*
Y15957D01*
X405091D01*
Y25043D01*
X403313D01*
Y28284D01*
X403857Y28392D01*
X404643Y28917D01*
X405169Y29704D01*
X405354Y30632D01*
X405169Y31560D01*
X404643Y32346D01*
X404344Y32547D01*
Y33717D01*
X404643Y33917D01*
X405169Y34704D01*
X405254Y35132D01*
D02*
G37*
G36*
X448425Y15425D02*
X447707Y14707D01*
X448425D01*
Y15425D01*
D02*
G37*
G36*
X362500Y112641D02*
Y110895D01*
X364246D01*
X364167Y111293D01*
X363658Y112053D01*
X362897Y112562D01*
X362500Y112641D01*
D02*
G37*
G36*
X364246Y109895D02*
X362500D01*
Y108150D01*
X362897Y108229D01*
X363658Y108737D01*
X364167Y109498D01*
X364246Y109895D01*
D02*
G37*
G36*
X410740Y101896D02*
Y100150D01*
X412486D01*
X412406Y100547D01*
X411898Y101308D01*
X411137Y101816D01*
X410740Y101896D01*
D02*
G37*
G36*
X409740D02*
X409342Y101816D01*
X408582Y101308D01*
X408073Y100547D01*
X407994Y100150D01*
X409740D01*
Y101896D01*
D02*
G37*
G36*
X412486Y99150D02*
X410740D01*
Y97404D01*
X411137Y97483D01*
X411898Y97992D01*
X412406Y98753D01*
X412486Y99150D01*
D02*
G37*
G36*
X409740D02*
X407994D01*
X408073Y98753D01*
X408582Y97992D01*
X409342Y97483D01*
X409740Y97404D01*
Y99150D01*
D02*
G37*
G36*
X370579Y94415D02*
Y92669D01*
X372324D01*
X372245Y93067D01*
X371737Y93827D01*
X370976Y94336D01*
X370579Y94415D01*
D02*
G37*
G36*
X369579D02*
X369181Y94336D01*
X368421Y93827D01*
X367912Y93067D01*
X367833Y92669D01*
X369579D01*
Y94415D01*
D02*
G37*
G36*
X394201Y93297D02*
Y91551D01*
X395946D01*
X395867Y91949D01*
X395359Y92709D01*
X394598Y93218D01*
X394201Y93297D01*
D02*
G37*
G36*
X393201D02*
X392803Y93218D01*
X392043Y92709D01*
X391534Y91949D01*
X391455Y91551D01*
X393201D01*
Y93297D01*
D02*
G37*
G36*
X386327Y93087D02*
Y91342D01*
X388072D01*
X387993Y91739D01*
X387485Y92500D01*
X386724Y93008D01*
X386327Y93087D01*
D02*
G37*
G36*
X385327D02*
X384929Y93008D01*
X384169Y92500D01*
X383660Y91739D01*
X383581Y91342D01*
X385327D01*
Y93087D01*
D02*
G37*
G36*
X372324Y91669D02*
X370579D01*
Y89924D01*
X370976Y90003D01*
X371737Y90511D01*
X372245Y91272D01*
X372324Y91669D01*
D02*
G37*
G36*
X369579D02*
X367833D01*
X367912Y91272D01*
X368421Y90511D01*
X369181Y90003D01*
X369579Y89924D01*
Y91669D01*
D02*
G37*
G36*
X395946Y90551D02*
X394201D01*
Y88806D01*
X394598Y88885D01*
X395359Y89393D01*
X395867Y90154D01*
X395946Y90551D01*
D02*
G37*
G36*
X393201D02*
X391455D01*
X391534Y90154D01*
X392043Y89393D01*
X392803Y88885D01*
X393201Y88806D01*
Y90551D01*
D02*
G37*
G36*
X388072Y90342D02*
X386327D01*
Y88596D01*
X386724Y88675D01*
X387485Y89184D01*
X387993Y89944D01*
X388072Y90342D01*
D02*
G37*
G36*
X385327D02*
X383581D01*
X383660Y89944D01*
X384169Y89184D01*
X384929Y88675D01*
X385327Y88596D01*
Y90342D01*
D02*
G37*
G36*
X370579Y87980D02*
Y86235D01*
X372324D01*
X372245Y86632D01*
X371737Y87393D01*
X370976Y87901D01*
X370579Y87980D01*
D02*
G37*
G36*
X369579D02*
X369181Y87901D01*
X368421Y87393D01*
X367912Y86632D01*
X367833Y86235D01*
X369579D01*
Y87980D01*
D02*
G37*
G36*
X389972Y86101D02*
Y84355D01*
X391717D01*
X391638Y84752D01*
X391130Y85513D01*
X390369Y86022D01*
X389972Y86101D01*
D02*
G37*
G36*
X388972D02*
X388574Y86022D01*
X387814Y85513D01*
X387305Y84752D01*
X387226Y84355D01*
X388972D01*
Y86101D01*
D02*
G37*
G36*
X372324Y85235D02*
X370579D01*
Y83489D01*
X370976Y83568D01*
X371737Y84076D01*
X372245Y84837D01*
X372324Y85235D01*
D02*
G37*
G36*
X369579D02*
X367833D01*
X367912Y84837D01*
X368421Y84076D01*
X369181Y83568D01*
X369579Y83489D01*
Y85235D01*
D02*
G37*
G36*
X361500Y84746D02*
Y83000D01*
X363246D01*
X363167Y83397D01*
X362658Y84158D01*
X361897Y84667D01*
X361500Y84746D01*
D02*
G37*
G36*
X391717Y83355D02*
X389972D01*
Y81609D01*
X390369Y81688D01*
X391130Y82197D01*
X391638Y82958D01*
X391717Y83355D01*
D02*
G37*
G36*
X388972D02*
X387226D01*
X387305Y82958D01*
X387814Y82197D01*
X388574Y81688D01*
X388972Y81609D01*
Y83355D01*
D02*
G37*
G36*
X363246Y82000D02*
X361500D01*
Y80254D01*
X361897Y80334D01*
X362658Y80842D01*
X363167Y81603D01*
X363246Y82000D01*
D02*
G37*
G36*
X317626Y107736D02*
X313189D01*
Y103299D01*
X317626D01*
Y107736D01*
D02*
G37*
G36*
X283217Y107736D02*
X278780D01*
Y103299D01*
X283217D01*
Y107736D01*
D02*
G37*
G36*
X277780D02*
X273342D01*
Y103299D01*
X277780D01*
Y107736D01*
D02*
G37*
G36*
X298362Y95449D02*
X296031D01*
Y93020D01*
X298362D01*
Y95449D01*
D02*
G37*
G36*
X328000Y91812D02*
X327603Y91733D01*
X326842Y91225D01*
X326333Y90464D01*
X326254Y90067D01*
X328000D01*
Y91812D01*
D02*
G37*
G36*
X348429Y107362D02*
X346000D01*
Y105032D01*
X348429D01*
Y107362D01*
D02*
G37*
G36*
X254500Y71746D02*
Y70000D01*
X256246D01*
X256167Y70397D01*
X255658Y71158D01*
X254897Y71667D01*
X254500Y71746D01*
D02*
G37*
G36*
X253500D02*
X253103Y71667D01*
X252342Y71158D01*
X251833Y70397D01*
X251754Y70000D01*
X253500D01*
Y71746D01*
D02*
G37*
G36*
X256246Y69000D02*
X254500D01*
Y67254D01*
X254897Y67334D01*
X255658Y67842D01*
X256167Y68603D01*
X256246Y69000D01*
D02*
G37*
G36*
X253500D02*
X251754D01*
X251833Y68603D01*
X252342Y67842D01*
X253103Y67334D01*
X253500Y67254D01*
Y69000D01*
D02*
G37*
G36*
X271130Y68190D02*
X270732Y68111D01*
X269972Y67603D01*
X269463Y66842D01*
X269384Y66445D01*
X271130D01*
Y68190D01*
D02*
G37*
G36*
X240500D02*
Y66445D01*
X242246D01*
X242167Y66842D01*
X241658Y67603D01*
X240897Y68111D01*
X240500Y68190D01*
D02*
G37*
G36*
X271130Y65445D02*
X269384D01*
X269463Y65048D01*
X269972Y64287D01*
X270732Y63778D01*
X271130Y63699D01*
Y65445D01*
D02*
G37*
G36*
X242246D02*
X240500D01*
Y63699D01*
X240897Y63778D01*
X241658Y64287D01*
X242167Y65048D01*
X242246Y65445D01*
D02*
G37*
G36*
X468112Y153131D02*
Y151385D01*
X469858D01*
X469778Y151783D01*
X469270Y152543D01*
X468509Y153052D01*
X468112Y153131D01*
D02*
G37*
G36*
X467112D02*
X466714Y153052D01*
X465954Y152543D01*
X465445Y151783D01*
X465366Y151385D01*
X467112D01*
Y153131D01*
D02*
G37*
G36*
X437508D02*
Y151385D01*
X439254D01*
X439174Y151783D01*
X438666Y152543D01*
X437905Y153052D01*
X437508Y153131D01*
D02*
G37*
G36*
X436508D02*
X436110Y153052D01*
X435350Y152543D01*
X434841Y151783D01*
X434762Y151385D01*
X436508D01*
Y153131D01*
D02*
G37*
G36*
X453213Y151852D02*
Y150106D01*
X454958D01*
X454879Y150504D01*
X454371Y151265D01*
X453610Y151773D01*
X453213Y151852D01*
D02*
G37*
G36*
X452213D02*
X451815Y151773D01*
X451055Y151265D01*
X450546Y150504D01*
X450467Y150106D01*
X452213D01*
Y151852D01*
D02*
G37*
G36*
X469858Y150385D02*
X468112D01*
Y148639D01*
X468509Y148719D01*
X469270Y149227D01*
X469778Y149988D01*
X469858Y150385D01*
D02*
G37*
G36*
X467112D02*
X465366D01*
X465445Y149988D01*
X465954Y149227D01*
X466714Y148719D01*
X467112Y148639D01*
Y150385D01*
D02*
G37*
G36*
X439254D02*
X437508D01*
Y148639D01*
X437905Y148719D01*
X438666Y149227D01*
X439174Y149988D01*
X439254Y150385D01*
D02*
G37*
G36*
X436508D02*
X434762D01*
X434841Y149988D01*
X435350Y149227D01*
X436110Y148719D01*
X436508Y148639D01*
Y150385D01*
D02*
G37*
G36*
X454958Y149106D02*
X453213D01*
Y147361D01*
X453610Y147440D01*
X454371Y147948D01*
X454879Y148709D01*
X454958Y149106D01*
D02*
G37*
G36*
X452213D02*
X450467D01*
X450546Y148709D01*
X451055Y147948D01*
X451815Y147440D01*
X452213Y147361D01*
Y149106D01*
D02*
G37*
G36*
X438469Y133001D02*
X436138D01*
Y130572D01*
X438469D01*
Y133001D01*
D02*
G37*
G36*
X433032Y130198D02*
Y128453D01*
X434777D01*
X434698Y128850D01*
X434190Y129611D01*
X433429Y130119D01*
X433032Y130198D01*
D02*
G37*
G36*
X504176Y130921D02*
X499739D01*
Y126484D01*
X504176D01*
Y130921D01*
D02*
G37*
G36*
X498739D02*
X494302D01*
Y126484D01*
X498739D01*
Y130921D01*
D02*
G37*
G36*
X499239Y125984D02*
D01*
Y125484D01*
X494302D01*
Y121047D01*
X496474D01*
X497025Y120214D01*
X497053Y120047D01*
X496993Y119745D01*
X501484D01*
X501424Y120047D01*
X501453Y120214D01*
X502004Y121047D01*
X504176D01*
Y125484D01*
X499239D01*
Y125984D01*
D02*
G37*
G36*
X501484Y118745D02*
X499739D01*
Y117000D01*
X500136Y117079D01*
X500897Y117587D01*
X501405Y118348D01*
X501484Y118745D01*
D02*
G37*
G36*
X498739D02*
X496993D01*
X497072Y118348D01*
X497580Y117587D01*
X498341Y117079D01*
X498739Y117000D01*
Y118745D01*
D02*
G37*
G36*
X491000Y112345D02*
X490103Y112167D01*
X489342Y111658D01*
X488833Y110897D01*
X488655Y110000D01*
X488793Y109306D01*
X488667Y108894D01*
X488179Y108281D01*
X487603Y108167D01*
X486842Y107658D01*
X486333Y106897D01*
X486155Y106000D01*
X486333Y105103D01*
X486842Y104342D01*
X486920Y104290D01*
Y101717D01*
X487040Y101112D01*
X487383Y100599D01*
X489920Y98062D01*
Y93934D01*
X488920Y93868D01*
X488911Y93937D01*
X488592Y94707D01*
X488084Y95368D01*
X487423Y95875D01*
X486653Y96194D01*
X486327Y96237D01*
Y90551D01*
Y84865D01*
X486653Y84908D01*
X487423Y85227D01*
X488084Y85735D01*
X488592Y86396D01*
X488911Y87166D01*
X489019Y87992D01*
Y90800D01*
X490019Y90898D01*
X490040Y90795D01*
X490382Y90283D01*
X494302Y86364D01*
Y78724D01*
X504176D01*
Y88598D01*
X496537D01*
X493080Y92055D01*
Y98717D01*
X492960Y99322D01*
X492618Y99834D01*
X490080Y102372D01*
Y104290D01*
X490158Y104342D01*
X490667Y105103D01*
X490845Y106000D01*
X490720Y106631D01*
X491597Y107168D01*
X494302Y104463D01*
Y97425D01*
X504176D01*
Y107299D01*
X495936D01*
X493327Y109908D01*
X493345Y110000D01*
X493167Y110897D01*
X492658Y111658D01*
X491897Y112167D01*
X491000Y112345D01*
D02*
G37*
G36*
X485327Y96237D02*
X485001Y96194D01*
X484231Y95875D01*
X483569Y95368D01*
X483062Y94707D01*
X482743Y93937D01*
X482634Y93110D01*
Y91051D01*
X485327D01*
Y96237D01*
D02*
G37*
G36*
X466626Y91639D02*
X466229Y91559D01*
X465468Y91051D01*
X464959Y90290D01*
X464880Y89893D01*
X466626D01*
Y91639D01*
D02*
G37*
G36*
Y88893D02*
X464880D01*
X464959Y88496D01*
X465468Y87735D01*
X466229Y87226D01*
X466626Y87147D01*
Y88893D01*
D02*
G37*
G36*
X485327Y90051D02*
X482634D01*
Y87992D01*
X482743Y87166D01*
X483062Y86396D01*
X483569Y85735D01*
X484231Y85227D01*
X485001Y84908D01*
X485327Y84865D01*
Y90051D01*
D02*
G37*
G36*
X477272Y78567D02*
Y76484D01*
X479697D01*
X479674Y76656D01*
X479415Y77283D01*
X479002Y77821D01*
X478464Y78233D01*
X477838Y78493D01*
X477272Y78567D01*
D02*
G37*
G36*
X479697Y69972D02*
X477272D01*
Y67889D01*
X477838Y67964D01*
X478464Y68223D01*
X479002Y68636D01*
X479415Y69174D01*
X479674Y69800D01*
X479697Y69972D01*
D02*
G37*
G36*
X499194Y69175D02*
Y67429D01*
X500940D01*
X500861Y67826D01*
X500352Y68587D01*
X499592Y69096D01*
X499194Y69175D01*
D02*
G37*
G36*
X498194D02*
X497797Y69096D01*
X497036Y68587D01*
X496528Y67826D01*
X496449Y67429D01*
X498194D01*
Y69175D01*
D02*
G37*
G36*
X500940Y66429D02*
X496449D01*
X496528Y66032D01*
X496565Y65976D01*
X496030Y64976D01*
X494302D01*
Y60539D01*
X504176D01*
Y64976D01*
X501358D01*
X500824Y65976D01*
X500861Y66032D01*
X500940Y66429D01*
D02*
G37*
G36*
X504176Y59539D02*
X499739D01*
Y55102D01*
X504176D01*
Y59539D01*
D02*
G37*
G36*
X498739D02*
X494302D01*
Y55102D01*
X498739D01*
Y59539D01*
D02*
G37*
G36*
X505716Y28746D02*
Y27000D01*
X507461D01*
X507382Y27397D01*
X506874Y28158D01*
X506113Y28667D01*
X505716Y28746D01*
D02*
G37*
G36*
X504716D02*
X504318Y28667D01*
X503557Y28158D01*
X503049Y27397D01*
X502970Y27000D01*
X504716D01*
Y28746D01*
D02*
G37*
G36*
X496363Y28620D02*
Y26874D01*
X498108D01*
X498029Y27271D01*
X497521Y28032D01*
X496760Y28541D01*
X496363Y28620D01*
D02*
G37*
G36*
X495363D02*
X494965Y28541D01*
X494205Y28032D01*
X493696Y27271D01*
X493617Y26874D01*
X495363D01*
Y28620D01*
D02*
G37*
G36*
X507461Y26000D02*
X505716D01*
Y24254D01*
X506113Y24333D01*
X506874Y24842D01*
X507382Y25603D01*
X507461Y26000D01*
D02*
G37*
G36*
X504716D02*
X502970D01*
X503049Y25603D01*
X503557Y24842D01*
X504318Y24333D01*
X504716Y24254D01*
Y26000D01*
D02*
G37*
G36*
X498108Y25874D02*
X496363D01*
Y24128D01*
X496760Y24207D01*
X497521Y24716D01*
X498029Y25477D01*
X498108Y25874D01*
D02*
G37*
G36*
X495363D02*
X493617D01*
X493696Y25477D01*
X494205Y24716D01*
X494965Y24207D01*
X495363Y24128D01*
Y25874D01*
D02*
G37*
G36*
X485358Y19858D02*
X485342Y19847D01*
X485331Y19831D01*
X485358Y19858D01*
D02*
G37*
G36*
X361000Y11246D02*
Y9500D01*
X362746D01*
X362667Y9897D01*
X362158Y10658D01*
X361397Y11167D01*
X361000Y11246D01*
D02*
G37*
G36*
X360000D02*
X359603Y11167D01*
X358842Y10658D01*
X358333Y9897D01*
X358254Y9500D01*
X360000D01*
Y11246D01*
D02*
G37*
G36*
X352000D02*
Y9500D01*
X353746D01*
X353667Y9897D01*
X353158Y10658D01*
X352397Y11167D01*
X352000Y11246D01*
D02*
G37*
G36*
X351000D02*
X350603Y11167D01*
X349842Y10658D01*
X349333Y9897D01*
X349254Y9500D01*
X351000D01*
Y11246D01*
D02*
G37*
G36*
X362746Y8500D02*
X361000D01*
Y6754D01*
X361397Y6833D01*
X362158Y7342D01*
X362667Y8103D01*
X362746Y8500D01*
D02*
G37*
G36*
X360000D02*
X358254D01*
X358333Y8103D01*
X358842Y7342D01*
X359603Y6833D01*
X360000Y6754D01*
Y8500D01*
D02*
G37*
G36*
X353746D02*
X352000D01*
Y6754D01*
X352397Y6833D01*
X353158Y7342D01*
X353667Y8103D01*
X353746Y8500D01*
D02*
G37*
G36*
X351000D02*
X349254D01*
X349333Y8103D01*
X349842Y7342D01*
X350603Y6833D01*
X351000Y6754D01*
Y8500D01*
D02*
G37*
G36*
X490705Y8819D02*
X486268D01*
Y4382D01*
X490705D01*
Y8819D01*
D02*
G37*
G36*
X351500Y55062D02*
Y54573D01*
X352757Y53316D01*
X353246D01*
X353167Y53714D01*
X352658Y54474D01*
X351897Y54983D01*
X351500Y55062D01*
D02*
G37*
G36*
X354424Y51649D02*
X355649Y50424D01*
X355158Y51158D01*
X354424Y51649D01*
D02*
G37*
G36*
X343128Y51268D02*
X339063D01*
Y46831D01*
X343128D01*
Y51268D01*
D02*
G37*
G36*
X337394Y45919D02*
X334000D01*
Y43136D01*
X337394D01*
Y45919D01*
D02*
G37*
G36*
X250756Y38746D02*
Y37000D01*
X252501D01*
X252422Y37397D01*
X251914Y38158D01*
X251153Y38667D01*
X250756Y38746D01*
D02*
G37*
G36*
X249756D02*
X249358Y38667D01*
X248598Y38158D01*
X248089Y37397D01*
X248010Y37000D01*
X249756D01*
Y38746D01*
D02*
G37*
G36*
X252501Y36000D02*
X250756D01*
Y34254D01*
X251153Y34333D01*
X251914Y34842D01*
X252422Y35603D01*
X252501Y36000D01*
D02*
G37*
G36*
X249756D02*
X248010D01*
X248089Y35603D01*
X248598Y34842D01*
X249358Y34333D01*
X249756Y34254D01*
Y36000D01*
D02*
G37*
G36*
X226161Y34746D02*
Y33000D01*
X227907D01*
X227828Y33397D01*
X227319Y34158D01*
X226558Y34667D01*
X226161Y34746D01*
D02*
G37*
G36*
X225161D02*
X224764Y34667D01*
X224003Y34158D01*
X223495Y33397D01*
X223415Y33000D01*
X225161D01*
Y34746D01*
D02*
G37*
G36*
X227907Y32000D02*
X226161D01*
Y30254D01*
X226558Y30333D01*
X227319Y30842D01*
X227828Y31603D01*
X227907Y32000D01*
D02*
G37*
G36*
X225161D02*
X223415D01*
X223495Y31603D01*
X224003Y30842D01*
X224764Y30333D01*
X225161Y30254D01*
Y32000D01*
D02*
G37*
G36*
X250756Y29805D02*
Y28059D01*
X252501D01*
X252422Y28457D01*
X251914Y29217D01*
X251153Y29726D01*
X250756Y29805D01*
D02*
G37*
G36*
X249756D02*
X249358Y29726D01*
X248598Y29217D01*
X248089Y28457D01*
X248010Y28059D01*
X249756D01*
Y29805D01*
D02*
G37*
G36*
X252501Y27059D02*
X250756D01*
Y25313D01*
X251153Y25392D01*
X251914Y25901D01*
X252422Y26662D01*
X252501Y27059D01*
D02*
G37*
G36*
X249756D02*
X248010D01*
X248089Y26662D01*
X248598Y25901D01*
X249358Y25392D01*
X249756Y25313D01*
Y27059D01*
D02*
G37*
G36*
X470449Y26246D02*
Y24500D01*
X472194D01*
X472115Y24897D01*
X471607Y25658D01*
X470846Y26167D01*
X470449Y26246D01*
D02*
G37*
G36*
X288719Y36500D02*
X286388D01*
Y34071D01*
X288719D01*
Y36500D01*
D02*
G37*
G36*
X265402Y14246D02*
Y12500D01*
X267147D01*
X267068Y12897D01*
X266560Y13658D01*
X265799Y14167D01*
X265402Y14246D01*
D02*
G37*
G36*
X264402D02*
X264004Y14167D01*
X263243Y13658D01*
X262735Y12897D01*
X262656Y12500D01*
X264402D01*
Y14246D01*
D02*
G37*
G36*
X256000D02*
Y12500D01*
X257746D01*
X257667Y12897D01*
X257158Y13658D01*
X256397Y14167D01*
X256000Y14246D01*
D02*
G37*
G36*
X255000D02*
X254603Y14167D01*
X253842Y13658D01*
X253333Y12897D01*
X253254Y12500D01*
X255000D01*
Y14246D01*
D02*
G37*
G36*
X244595Y14057D02*
Y12311D01*
X246340D01*
X246261Y12708D01*
X245753Y13469D01*
X244992Y13978D01*
X244595Y14057D01*
D02*
G37*
G36*
X243595D02*
X243197Y13978D01*
X242436Y13469D01*
X241928Y12708D01*
X241849Y12311D01*
X243595D01*
Y14057D01*
D02*
G37*
G36*
X267147Y11500D02*
X265402D01*
Y9754D01*
X265799Y9833D01*
X266560Y10342D01*
X267068Y11103D01*
X267147Y11500D01*
D02*
G37*
G36*
X264402D02*
X262656D01*
X262735Y11103D01*
X263243Y10342D01*
X264004Y9833D01*
X264402Y9754D01*
Y11500D01*
D02*
G37*
G36*
X257746D02*
X256000D01*
Y9754D01*
X256397Y9833D01*
X257158Y10342D01*
X257667Y11103D01*
X257746Y11500D01*
D02*
G37*
G36*
X255000D02*
X253254D01*
X253333Y11103D01*
X253842Y10342D01*
X254603Y9833D01*
X255000Y9754D01*
Y11500D01*
D02*
G37*
G36*
X246340Y11311D02*
X244595D01*
Y9565D01*
X244992Y9645D01*
X245753Y10153D01*
X246261Y10914D01*
X246340Y11311D01*
D02*
G37*
G36*
X243595D02*
X241849D01*
X241928Y10914D01*
X242436Y10153D01*
X243197Y9645D01*
X243595Y9565D01*
Y11311D01*
D02*
G37*
%LPD*%
D15*
X464226Y123572D02*
Y129572D01*
X316173Y119937D02*
X317000D01*
X456090Y131645D02*
X458163Y129572D01*
X451000Y131645D02*
X456090D01*
X454000Y136000D02*
X454072Y136072D01*
X458163D01*
X478000Y116000D02*
Y127772D01*
X474127Y131645D02*
X478000Y127772D01*
X466298Y131645D02*
X474127D01*
X464226Y129572D02*
X466298Y131645D01*
X475240Y110236D02*
X480000Y114996D01*
X463539Y110236D02*
X475240D01*
X461500Y108197D02*
X463539Y110236D01*
X474500Y112500D02*
X478000Y116000D01*
X462776Y112500D02*
X474500D01*
X459417Y109142D02*
X462776Y112500D01*
X461500Y106299D02*
Y108197D01*
X459417Y106583D02*
Y109142D01*
X456693Y103858D02*
Y103858D01*
X459417Y106583D01*
X463941Y103858D02*
X464567D01*
X461500Y106299D02*
X463941Y103858D01*
X480000Y114996D02*
Y129000D01*
X475000Y134000D02*
X480000Y129000D01*
X466298Y134000D02*
X475000D01*
X464226Y136072D02*
X466298Y134000D01*
X456693Y100197D02*
X459500Y97390D01*
Y77020D02*
Y97390D01*
X458465Y75984D02*
X459500Y77020D01*
X461500Y97150D02*
X464567Y100217D01*
X461500Y77280D02*
Y97150D01*
Y77280D02*
X462795Y75984D01*
X464567Y100217D02*
Y103858D01*
X456693Y100197D02*
Y103858D01*
X295413Y89290D02*
X302039D01*
X281909Y75787D02*
X295413Y89290D01*
X295947Y87000D02*
X305500D01*
X285160Y76213D02*
X295947Y87000D01*
X295992Y84500D02*
X302039D01*
X286960Y75468D02*
X295992Y84500D01*
X254921Y51539D02*
X255500Y50961D01*
X254921Y51539D02*
Y56890D01*
X250878Y115000D02*
X301038D01*
X249016Y113138D02*
X250878Y115000D01*
X249016Y100591D02*
Y113138D01*
X249959Y117000D02*
X299933D01*
X247047Y114088D02*
X249959Y117000D01*
X247047Y100591D02*
Y114088D01*
X301038Y115000D02*
X303000Y116962D01*
X299933Y117000D02*
X301902Y118968D01*
X316019Y115981D02*
X317019D01*
X315038Y116962D02*
X316019Y115981D01*
X303000Y116962D02*
X315038D01*
X315204Y118968D02*
X316173Y119937D01*
X301902Y118968D02*
X315204D01*
X317000Y119937D02*
Y120000D01*
X458465Y75984D02*
X462795Y71653D01*
Y70472D02*
Y71653D01*
X277756Y75787D02*
X281909D01*
X277756Y71850D02*
X283356D01*
X286960Y75454D01*
X285160Y76200D02*
Y76213D01*
X282779Y73819D02*
X285160Y76200D01*
X286960Y75454D02*
Y75468D01*
X277756Y73819D02*
X282779D01*
X302039Y89290D02*
Y89500D01*
X313000Y79500D02*
X331961D01*
X305500Y87000D02*
X313000Y79500D01*
D19*
X257250Y110000D02*
Y110397D01*
Y109750D02*
X257500Y110000D01*
X256907Y105344D02*
X260500Y108937D01*
X258858Y104858D02*
X265000Y111000D01*
X260827Y104564D02*
X265585Y109322D01*
X260827Y100591D02*
Y104564D01*
X262795Y104232D02*
X266063Y107500D01*
X262795Y100591D02*
Y104232D01*
X260500Y112000D02*
Y112370D01*
Y108937D02*
Y112000D01*
X265000Y111000D02*
Y111850D01*
X266063Y107500D02*
X269500D01*
X265585Y109322D02*
X266732D01*
X269260Y111850D01*
X269500D01*
X258858Y100591D02*
Y104858D01*
X257250Y108250D02*
Y109750D01*
X254500Y108237D02*
Y112000D01*
X252953Y106690D02*
X254500Y108237D01*
X252953Y100591D02*
Y106690D01*
X252000Y108000D02*
Y109472D01*
X250984Y106984D02*
X252000Y108000D01*
X250984Y100591D02*
Y106984D01*
X254921Y105921D02*
X257250Y108250D01*
X256907Y100607D02*
Y105344D01*
X254921Y100591D02*
Y105921D01*
X256890Y100591D02*
X256907Y100607D01*
D61*
X292307Y9319D02*
D03*
X280693D02*
D03*
X166492Y45636D02*
D03*
X178106D02*
D03*
D62*
X285500Y28819D02*
D03*
Y18189D02*
D03*
D63*
X377146Y61000D02*
D03*
X357854D02*
D03*
X377146Y31578D02*
D03*
X357854D02*
D03*
D64*
X390500Y35663D02*
D03*
Y29600D02*
D03*
X423500Y58663D02*
D03*
Y52600D02*
D03*
X130500Y102532D02*
D03*
Y96469D02*
D03*
X178606Y32105D02*
D03*
Y38168D02*
D03*
X185606Y32105D02*
D03*
Y38168D02*
D03*
X195000Y5162D02*
D03*
Y11225D02*
D03*
X291500Y46468D02*
D03*
Y52531D02*
D03*
X285000Y46468D02*
D03*
Y52531D02*
D03*
X278500Y46468D02*
D03*
Y52531D02*
D03*
X346500Y133167D02*
D03*
Y127104D02*
D03*
X345500Y98469D02*
D03*
Y104532D02*
D03*
X298004Y52445D02*
D03*
Y46382D02*
D03*
X304500Y46468D02*
D03*
Y52531D02*
D03*
X235500Y111768D02*
D03*
Y105705D02*
D03*
X437159Y51763D02*
D03*
Y45700D02*
D03*
X430500Y51763D02*
D03*
Y45700D02*
D03*
D65*
X401866Y61632D02*
D03*
X390134D02*
D03*
X456933Y19250D02*
D03*
X445201D02*
D03*
X390134Y20500D02*
D03*
X401866D02*
D03*
X445201Y55845D02*
D03*
X456933D02*
D03*
D66*
X391551Y49136D02*
D03*
Y42128D02*
D03*
X123000Y95354D02*
D03*
Y102362D02*
D03*
X345500Y113496D02*
D03*
Y120504D02*
D03*
X482000Y51496D02*
D03*
Y58504D02*
D03*
X333500Y35628D02*
D03*
Y42636D02*
D03*
X299500Y22996D02*
D03*
Y30004D02*
D03*
D67*
X400764Y45632D02*
D03*
Y40632D02*
D03*
Y35632D02*
D03*
Y30632D02*
D03*
X421236Y45632D02*
D03*
Y40632D02*
D03*
Y35632D02*
D03*
Y30632D02*
D03*
D68*
X417031Y52132D02*
D03*
X410968D02*
D03*
X415469Y23132D02*
D03*
X421531D02*
D03*
X463886Y54500D02*
D03*
X469949D02*
D03*
X464035Y20531D02*
D03*
X470098D02*
D03*
X458163Y123572D02*
D03*
X464226D02*
D03*
X458163Y129572D02*
D03*
X464226D02*
D03*
X458163Y136072D02*
D03*
X464226D02*
D03*
X197598Y117717D02*
D03*
X203661D02*
D03*
X153532Y145000D02*
D03*
X147468D02*
D03*
X153532Y138000D02*
D03*
X147468D02*
D03*
X145531Y16500D02*
D03*
X139469D02*
D03*
X146000Y60254D02*
D03*
X152063D02*
D03*
X146000Y67254D02*
D03*
X152063D02*
D03*
X346500Y77000D02*
D03*
X340437D02*
D03*
X346532Y71000D02*
D03*
X340469D02*
D03*
X214968Y79500D02*
D03*
X221031D02*
D03*
X214968Y70000D02*
D03*
X221031D02*
D03*
X214968Y63779D02*
D03*
X221031D02*
D03*
X214968Y53000D02*
D03*
X221031D02*
D03*
X214968Y46409D02*
D03*
X221031D02*
D03*
X295532Y92520D02*
D03*
X289469D02*
D03*
X295976Y66732D02*
D03*
X289913D02*
D03*
X265732Y46260D02*
D03*
X259669D02*
D03*
X246953D02*
D03*
X253016D02*
D03*
X234157D02*
D03*
X240220D02*
D03*
X152032Y53000D02*
D03*
X145968D02*
D03*
X145968Y45636D02*
D03*
X152032D02*
D03*
X445063Y123572D02*
D03*
X439000D02*
D03*
X445031Y130072D02*
D03*
X438969D02*
D03*
X290090Y73000D02*
D03*
X296153D02*
D03*
X209968Y117717D02*
D03*
X216032D02*
D03*
X199969Y79506D02*
D03*
X206031D02*
D03*
X314469Y37000D02*
D03*
X320532D02*
D03*
X430969Y38732D02*
D03*
X437032D02*
D03*
X307531Y37000D02*
D03*
X301468D02*
D03*
X289218D02*
D03*
X295282D02*
D03*
X327532Y27000D02*
D03*
X321468D02*
D03*
X321468Y18500D02*
D03*
X327532D02*
D03*
D69*
X437599Y30720D02*
D03*
X430591D02*
D03*
X90996Y17000D02*
D03*
X98004D02*
D03*
X346504Y60632D02*
D03*
X339496D02*
D03*
X346004Y26000D02*
D03*
X338996D02*
D03*
X309504Y10000D02*
D03*
X302496D02*
D03*
D70*
X499239Y60039D02*
D03*
Y83661D02*
D03*
Y125984D02*
D03*
Y102362D02*
D03*
X344000Y35232D02*
D03*
Y51768D02*
D03*
D71*
X215500Y108236D02*
D03*
X210500D02*
D03*
X205500D02*
D03*
X200500D02*
D03*
X215500Y87764D02*
D03*
X210500D02*
D03*
X205500D02*
D03*
X200500D02*
D03*
D72*
X183740Y68553D02*
D03*
X176260D02*
D03*
X180000Y58710D02*
D03*
D73*
X171528Y31396D02*
D03*
Y38876D02*
D03*
X161685Y35136D02*
D03*
D74*
X336311Y108236D02*
D03*
X312689D02*
D03*
X278279D02*
D03*
X301902D02*
D03*
X485768Y9319D02*
D03*
X469232D02*
D03*
D75*
X302661Y74500D02*
D03*
Y79500D02*
D03*
Y84500D02*
D03*
Y89500D02*
D03*
X332583D02*
D03*
Y84500D02*
D03*
Y79500D02*
D03*
Y74500D02*
D03*
D76*
X184000Y8319D02*
D03*
D77*
X189315Y4480D02*
D03*
Y7039D02*
D03*
Y9598D02*
D03*
Y12157D02*
D03*
X178685Y4480D02*
D03*
Y7039D02*
D03*
Y9598D02*
D03*
Y12157D02*
D03*
D78*
X113012Y72500D02*
D03*
Y82500D02*
D03*
Y92500D02*
D03*
Y102500D02*
D03*
Y112500D02*
D03*
Y122500D02*
D03*
X51988D02*
D03*
Y112500D02*
D03*
Y102500D02*
D03*
Y92500D02*
D03*
Y82500D02*
D03*
Y72500D02*
D03*
D79*
X234055Y63976D02*
D03*
Y65945D02*
D03*
Y67913D02*
D03*
Y69882D02*
D03*
Y71850D02*
D03*
Y73819D02*
D03*
Y75787D02*
D03*
Y77756D02*
D03*
Y79724D02*
D03*
Y81693D02*
D03*
Y83661D02*
D03*
Y85630D02*
D03*
Y87598D02*
D03*
Y89567D02*
D03*
Y91535D02*
D03*
Y93504D02*
D03*
X277756D02*
D03*
Y91535D02*
D03*
Y89567D02*
D03*
Y87598D02*
D03*
Y85630D02*
D03*
Y83661D02*
D03*
Y81693D02*
D03*
Y79724D02*
D03*
Y77756D02*
D03*
Y75787D02*
D03*
Y73819D02*
D03*
Y71850D02*
D03*
Y69882D02*
D03*
Y67913D02*
D03*
Y65945D02*
D03*
Y63976D02*
D03*
D80*
X241142Y100591D02*
D03*
X243110D02*
D03*
X245079D02*
D03*
X247047D02*
D03*
X249016D02*
D03*
X250984D02*
D03*
X252953D02*
D03*
X254921D02*
D03*
X256890D02*
D03*
X258858D02*
D03*
X260827D02*
D03*
X262795D02*
D03*
X264764D02*
D03*
X266732D02*
D03*
X268701D02*
D03*
X270669D02*
D03*
Y56890D02*
D03*
X268701D02*
D03*
X266732D02*
D03*
X264764D02*
D03*
X262795D02*
D03*
X260827D02*
D03*
X258858D02*
D03*
X256890D02*
D03*
X254921D02*
D03*
X252953D02*
D03*
X250984D02*
D03*
X249016D02*
D03*
X247047D02*
D03*
X245079D02*
D03*
X243110D02*
D03*
X241142D02*
D03*
D81*
X77898Y21736D02*
D03*
Y41421D02*
D03*
X52307Y31578D02*
D03*
Y21621D02*
D03*
Y41306D02*
D03*
X26717Y31463D02*
D03*
D82*
X425197Y127953D02*
D03*
Y122047D02*
D03*
Y116142D02*
D03*
Y110236D02*
D03*
Y104331D02*
D03*
Y98425D02*
D03*
Y92520D02*
D03*
Y86614D02*
D03*
Y80709D02*
D03*
X354331D02*
D03*
Y86614D02*
D03*
Y92520D02*
D03*
Y98425D02*
D03*
Y104331D02*
D03*
Y110236D02*
D03*
Y116142D02*
D03*
Y122047D02*
D03*
Y127953D02*
D03*
D83*
X165354Y68504D02*
D03*
D84*
Y136221D02*
D03*
D85*
X40551Y96457D02*
D03*
Y106299D02*
D03*
Y86614D02*
D03*
D86*
X21654Y117717D02*
D03*
Y75197D02*
D03*
D87*
X306260Y17988D02*
D03*
X310000D02*
D03*
X313740D02*
D03*
Y29012D02*
D03*
X306260D02*
D03*
D88*
X449882Y46787D02*
D03*
Y37732D02*
D03*
Y28677D02*
D03*
D89*
X473504Y37732D02*
D03*
D90*
X342724Y133031D02*
X346500D01*
X340989Y114473D02*
X345500D01*
X346500Y126969D02*
X347484Y127953D01*
X432500Y98500D02*
X435433Y95567D01*
Y90551D02*
Y95567D01*
X495824Y125984D02*
X499239D01*
X478808Y143000D02*
X495824Y125984D01*
X442578Y143000D02*
X478808D01*
X438969Y139391D02*
X442578Y143000D01*
X438969Y130072D02*
Y139391D01*
X432531Y127953D02*
X434651Y130072D01*
X438969D01*
X318500Y47164D02*
Y53000D01*
X313336Y42000D02*
X318500Y47164D01*
X301468Y29012D02*
Y37000D01*
X285693Y29012D02*
X301468D01*
X469949Y54500D02*
Y61051D01*
X465000Y66000D02*
X469949Y61051D01*
X444488Y66000D02*
X465000D01*
X444488D02*
Y70472D01*
Y56558D02*
Y66000D01*
X437475Y17500D02*
X442000D01*
X431500D02*
X432500D01*
X469949Y24000D02*
X470098Y23850D01*
Y20531D02*
Y23850D01*
X428837Y17500D02*
X431500D01*
X444488Y56558D02*
X445201Y55845D01*
X441241D02*
X445201D01*
X437159Y51763D02*
X441241Y55845D01*
X479996Y58504D02*
X482000D01*
X471850Y66650D02*
X479996Y58504D01*
X471850Y66650D02*
Y70472D01*
X304230Y42000D02*
X313336D01*
X430500Y41000D02*
Y45700D01*
X430132Y40632D02*
X430500Y41000D01*
X421236Y40632D02*
X430132D01*
X430500Y45700D02*
X437159D01*
X401866Y61632D02*
X420532D01*
X423500Y58663D01*
X428837D01*
X430500Y57000D01*
Y51763D02*
Y57000D01*
X400764Y21602D02*
X401866Y20500D01*
X400764Y21602D02*
Y30632D01*
X401866Y52498D02*
Y61632D01*
X400764Y51395D02*
X401866Y52498D01*
X400764Y45632D02*
Y51395D01*
X471850Y75984D02*
Y101299D01*
Y70472D02*
Y75984D01*
Y101299D02*
X474409Y103858D01*
X327532Y17000D02*
Y27000D01*
X321000Y140500D02*
X321067D01*
X314000Y134500D02*
X336500D01*
X274995D02*
X306500D01*
X340000Y138000D02*
X349500D01*
X336500Y134500D02*
X340000Y138000D01*
X270630Y130135D02*
X274995Y134500D01*
X301468Y39238D02*
X304230Y42000D01*
X301468Y37000D02*
Y39238D01*
Y29012D02*
X306260D01*
X295282Y37000D02*
X301468D01*
X285500Y28819D02*
X285693Y29012D01*
X98425Y7874D02*
X106299D01*
X98004Y8295D02*
X98425Y7874D01*
X98004Y8295D02*
Y17000D01*
X90551Y7874D02*
X90996Y8319D01*
Y17000D01*
X349500Y138000D02*
X352496Y135004D01*
Y129787D02*
Y135004D01*
Y129787D02*
X354331Y127953D01*
X347484D02*
X354331D01*
X345500Y120504D02*
X346500Y121504D01*
Y126969D01*
X270630Y125937D02*
Y130135D01*
X359209Y80709D02*
X361000Y82500D01*
X354331Y80709D02*
X359209D01*
X335630Y125937D02*
X342724Y133031D01*
X335630Y119832D02*
X340989Y114473D01*
X335630Y119832D02*
Y125937D01*
X345500Y113496D02*
Y114473D01*
Y104532D02*
Y113496D01*
X391551Y42128D02*
X393047Y40632D01*
X400764D01*
X390500Y41077D02*
X391551Y42128D01*
X390500Y35663D02*
Y41077D01*
D91*
X431500Y17500D02*
X437599Y23599D01*
X313968Y36404D02*
Y37000D01*
X165354Y137992D02*
X202295D01*
X113012Y92500D02*
X126532D01*
X274000Y46260D02*
X281541D01*
X296996Y24000D02*
X298000Y22996D01*
X276089Y24000D02*
X296996D01*
X275000Y25089D02*
X276089Y24000D01*
X295532Y73000D02*
Y78000D01*
X203661Y117500D02*
X209968D01*
X214469Y79500D02*
X214968Y79000D01*
X123000Y102532D02*
X130500D01*
X122862Y102500D02*
X122894Y102532D01*
X123000D01*
X418000Y17500D02*
X428837D01*
X373000Y46500D02*
X375636Y49136D01*
X373000Y37732D02*
Y46500D01*
Y37732D02*
X373732Y37000D01*
X415469Y20031D02*
Y23132D01*
Y20031D02*
X418000Y17500D01*
X437599Y23599D02*
Y30720D01*
X421236Y23427D02*
X421531Y23132D01*
X421236Y23427D02*
Y30632D01*
X430280Y30720D02*
X430591D01*
X425368Y35632D02*
X430280Y30720D01*
X421236Y35632D02*
X425368D01*
X420500Y46368D02*
Y52600D01*
X423500D01*
X417500D02*
X420500D01*
Y46368D02*
X421236Y45632D01*
X417031Y52132D02*
X417500Y52600D01*
X373732Y37000D02*
X384000D01*
X386000Y35000D01*
Y32201D02*
Y35000D01*
Y32201D02*
X388600Y29600D01*
X390500D01*
X410968Y27632D02*
Y52132D01*
X400764Y35632D02*
X409469D01*
X410968Y27632D02*
X415469Y23132D01*
X390500Y29600D02*
X391996D01*
X398027Y35632D01*
X400764D01*
X273500Y140500D02*
X321000D01*
X260630Y127630D02*
X273500Y140500D01*
X254000Y66350D02*
Y69500D01*
X281541Y46260D02*
X281750Y46468D01*
X319587Y89567D02*
X328500D01*
X312689Y96465D02*
X319587Y89567D01*
X312689Y96465D02*
Y108236D01*
X310000Y12000D02*
Y17988D01*
X275000Y33411D02*
X278589Y37000D01*
X275000Y25089D02*
Y33411D01*
X278589Y37000D02*
X289218D01*
X280693Y9319D02*
Y18189D01*
X285500D01*
X306059D02*
X306260Y17988D01*
X285500Y18189D02*
X306059D01*
X315500Y23500D02*
X317500Y25500D01*
Y32873D01*
X313968Y36404D02*
X317500Y32873D01*
X321610Y19142D02*
Y35421D01*
X320457Y17988D02*
X321610Y19142D01*
X320031Y37000D02*
X321610Y35421D01*
X310000Y23500D02*
X315500D01*
X310000Y17988D02*
Y23500D01*
X313740Y17988D02*
X320457D01*
X231000Y46260D02*
X234157D01*
X235740Y102500D02*
Y105464D01*
X235500Y105705D02*
X235740Y105464D01*
X328500Y84500D02*
X332583D01*
X328500Y89567D02*
X332516D01*
X332583Y89500D01*
X140221Y145000D02*
X147468D01*
X210500Y114122D02*
Y116969D01*
Y108937D02*
Y114122D01*
X210630Y125937D02*
Y129657D01*
X202295Y137992D02*
X210630Y129657D01*
Y125937D02*
X216032Y120535D01*
Y117717D02*
Y120535D01*
Y117717D02*
X219693Y114055D01*
Y101725D02*
Y114055D01*
X216047Y98079D02*
X219693Y101725D01*
X207079Y98079D02*
X216047D01*
X200500Y91500D02*
X207079Y98079D01*
X200500Y87764D02*
Y91500D01*
X212314Y53000D02*
X214968D01*
X209968Y55345D02*
X212314Y53000D01*
X285000Y65000D02*
X288181D01*
X289913Y66732D01*
X200500Y80037D02*
Y87764D01*
X199969Y79506D02*
X200500Y80037D01*
X209968Y117500D02*
X210500Y116969D01*
X289469Y92520D02*
Y96469D01*
X260630Y125937D02*
Y127630D01*
X236567Y135000D02*
X245630Y125937D01*
X219693Y135000D02*
X236567D01*
X210630Y125937D02*
X219693Y135000D01*
X245630Y125937D02*
X260630D01*
X165354Y137992D02*
Y150000D01*
X113012Y112500D02*
X119000D01*
X123000Y106500D02*
Y108500D01*
X119000Y112500D02*
X123000Y108500D01*
X126532Y92500D02*
X130500Y96469D01*
Y102532D02*
Y106500D01*
X123000Y102532D02*
Y106500D01*
Y102362D02*
Y102532D01*
X113012Y102500D02*
X122862D01*
X113012D02*
X113508Y102004D01*
X51988Y72500D02*
X74051D01*
X94051Y92500D01*
X113012D01*
X147468Y132500D02*
Y138000D01*
X147468Y145000D02*
X147468Y145000D01*
Y138000D02*
Y145000D01*
X210630Y70000D02*
X213968D01*
X210500Y79500D02*
X214469D01*
X238232Y114500D02*
Y114768D01*
X235500Y111768D02*
X238232Y114500D01*
X331961Y89500D02*
X332583D01*
X21654Y117717D02*
Y124500D01*
X221031Y63583D02*
Y63779D01*
Y59531D02*
Y63583D01*
X221000Y59500D02*
X221031Y59531D01*
X295976Y66732D02*
X300000D01*
X295354D02*
X295976D01*
X281750Y46468D02*
X285000D01*
X278500D02*
X281750D01*
X214968Y59500D02*
Y63583D01*
X265732Y46260D02*
X270000D01*
X499239Y119245D02*
Y125984D01*
X498694Y60584D02*
Y66929D01*
Y60584D02*
X499239Y60039D01*
D92*
X289469Y73000D02*
X289779Y72689D01*
X295354Y66732D02*
Y67736D01*
X183000Y4480D02*
X189315D01*
X308752Y34000D02*
X308770D01*
Y33982D02*
Y34000D01*
Y33982D02*
X313740Y29012D01*
X307531Y35221D02*
X308752Y34000D01*
X421531Y23132D02*
X427000D01*
X320730Y59000D02*
X323315Y56415D01*
Y46169D02*
Y56415D01*
X314469Y37323D02*
X323315Y46169D01*
X309004Y46500D02*
Y54394D01*
X313610Y59000D01*
X320730D01*
X314469Y37000D02*
Y37323D01*
X307531Y35221D02*
Y37000D01*
X166492Y13000D02*
X169000D01*
X195000Y11225D02*
Y14000D01*
X194068Y12157D02*
X195000Y11225D01*
X189315Y12157D02*
X194068D01*
X194318Y4480D02*
X195000Y5162D01*
X189315Y4480D02*
X194318D01*
X183339Y9598D02*
X184000Y10259D01*
X178685Y9598D02*
X183339D01*
X200500Y73819D02*
X201097D01*
X206031Y78754D01*
Y79506D01*
X161685Y35136D02*
Y40829D01*
X166492Y45636D01*
X161685Y35136D02*
X162000Y34821D01*
Y30000D02*
Y34821D01*
X183500Y68793D02*
Y105626D01*
Y68793D02*
X183740Y68553D01*
X158000Y151000D02*
X161500Y154500D01*
X163500D01*
X158000Y115392D02*
Y151000D01*
X213292Y56650D02*
X218150D01*
X210630Y59312D02*
X213292Y56650D01*
X210630Y59312D02*
Y70000D01*
X218150Y56650D02*
X221000Y59500D01*
X205500Y80037D02*
X206031Y79506D01*
X205500Y80037D02*
Y87764D01*
X176211Y68504D02*
X176260Y68553D01*
X165354Y68504D02*
X176211D01*
X290090Y73000D02*
X295354Y67736D01*
D93*
X458278Y54500D02*
X463886D01*
X456933Y55845D02*
X458278Y54500D01*
X456500Y56278D02*
X456933Y55845D01*
X456500Y56278D02*
Y56558D01*
X367500Y18750D02*
Y46465D01*
X357500Y56465D02*
X367500Y46465D01*
X357500Y56465D02*
Y60646D01*
X445201Y55845D02*
X447419D01*
X449882Y53382D01*
Y46787D02*
Y53382D01*
X464035Y14516D02*
Y20531D01*
Y14516D02*
X469232Y9319D01*
X456933Y19250D02*
X458215Y20531D01*
X464035D01*
X456933Y19250D02*
Y27067D01*
X455323Y28677D02*
X456933Y27067D01*
X449882Y28677D02*
X455323D01*
X449882Y37732D02*
X463301D01*
X473504D01*
X463301D02*
X463886Y38317D01*
Y54500D01*
X326965Y48965D02*
X338632Y60632D01*
X326965Y37957D02*
Y48965D01*
Y37957D02*
X329293Y35628D01*
X338632Y60632D02*
X339496D01*
X357500Y60646D02*
X357854Y61000D01*
X329293Y35628D02*
X333500D01*
X346004Y16472D02*
Y26000D01*
X383500Y20500D02*
X390134D01*
X377146Y26854D02*
X383500Y20500D01*
X377146Y26854D02*
Y31578D01*
X375636Y49136D02*
X391551D01*
X344000Y45323D02*
Y51768D01*
Y45323D02*
X344500Y44823D01*
X335687D02*
X344500D01*
X333500Y42636D02*
X335687Y44823D01*
X338896Y35232D02*
X338996Y35132D01*
X338896Y35232D02*
X344000D01*
X333895D02*
X338896D01*
X333500Y35628D02*
X333895Y35232D01*
X338996Y26000D02*
Y35132D01*
X346004Y26000D02*
X352276D01*
X357854Y31578D01*
X346504Y60632D02*
X346872Y61000D01*
X357854D01*
X377146D02*
X377777Y61632D01*
X390134D01*
D94*
X302039Y74500D02*
Y79500D01*
X295532Y73000D02*
X297031Y74500D01*
X433000Y107000D02*
X445063Y119063D01*
X433000Y103842D02*
Y107000D01*
X445063Y119063D02*
Y123572D01*
X445063Y123572D01*
X458163D01*
X444423Y28677D02*
X449882D01*
X442500Y30600D02*
X444423Y28677D01*
X442500Y30600D02*
Y35500D01*
X439268Y38732D02*
X442500Y35500D01*
X437032Y38732D02*
X439268D01*
X305291Y93524D02*
X310815Y88000D01*
X296536Y93524D02*
X305291D01*
X295532Y92520D02*
X296536Y93524D01*
X318020Y88000D02*
X319587Y89567D01*
X310815Y88000D02*
X318020D01*
X178606Y43500D02*
Y45136D01*
Y43500D02*
X186000D01*
X178606Y38168D02*
Y43500D01*
X304532Y46500D02*
X309004D01*
X304500Y46468D02*
X304532Y46500D01*
X432425Y98425D02*
X432500Y98500D01*
X425197Y98425D02*
X432425D01*
X425197Y127953D02*
X432531D01*
X166492Y10311D02*
Y13000D01*
X158605Y2424D02*
X166492Y10311D01*
X151119Y2424D02*
X158605D01*
X166492Y13000D02*
Y35500D01*
X169868Y38876D01*
X145669Y7874D02*
X151119Y2424D01*
X169868Y38876D02*
X171528D01*
X145531Y16500D02*
X145669Y16362D01*
Y7874D02*
Y16362D01*
Y6669D02*
Y7874D01*
X141000Y2000D02*
X145669Y6669D01*
X83500Y2000D02*
X141000D01*
X77898Y7602D02*
X83500Y2000D01*
X77898Y7602D02*
Y21736D01*
X77783Y21621D02*
X77898Y21736D01*
X52307Y21621D02*
X77783D01*
X171528Y31396D02*
X184898D01*
X185606Y32105D01*
X178106Y45636D02*
X178606Y45136D01*
X177898Y38876D02*
X178606Y38168D01*
X171528Y38876D02*
X177898D01*
X297031Y74500D02*
X302039D01*
D95*
X354874Y121504D02*
X355417Y122047D01*
X354331D02*
X354874Y121504D01*
X355417Y122047D02*
X361000D01*
X432425Y123572D02*
X439000D01*
X445031Y129604D02*
Y130072D01*
X439000Y123572D02*
X445031Y129604D01*
X346500Y77000D02*
X396776D01*
X412295Y92520D01*
X425197D01*
X197598Y117500D02*
X201101Y113997D01*
X204003D01*
X205500Y112500D01*
Y108937D02*
Y112500D01*
X113012Y72500D02*
X120500D01*
X113012Y82500D02*
X120500D01*
X113012Y122500D02*
X120500D01*
D96*
X362500Y97000D02*
Y98000D01*
X375500Y111000D01*
X377000Y107500D02*
X413500D01*
X362000Y92500D02*
X377000Y107500D01*
X375500Y111000D02*
X416000D01*
X491500Y91400D02*
X499239Y83661D01*
X491500Y91400D02*
Y98717D01*
X488500Y101717D02*
X491500Y98717D01*
X488500Y101717D02*
Y106000D01*
X498638Y102362D02*
X499239D01*
X491000Y110000D02*
X498638Y102362D01*
X304500Y52531D02*
X306341Y54372D01*
X304413Y52445D02*
X304500Y52531D01*
X306341Y54372D02*
Y57390D01*
X327821Y62953D02*
X328500Y63632D01*
X307654Y62953D02*
X327821D01*
X301591Y56890D02*
X307654Y62953D01*
X276589Y56890D02*
X301591D01*
X307480Y66000D02*
X332000D01*
X300980Y59500D02*
X307480Y66000D01*
X275500Y59500D02*
X300980D01*
X307039Y69000D02*
X332181D01*
X299703Y61663D02*
X307039Y69000D01*
X283587Y61663D02*
X299703D01*
X246500Y65945D02*
X271630D01*
X240000D02*
X246500D01*
X243110Y94116D02*
Y100591D01*
Y94116D02*
X246500Y90726D01*
Y65945D02*
Y90726D01*
X285426Y83266D02*
X285574D01*
X283853Y81693D02*
X285426Y83266D01*
X277756Y81693D02*
X283853D01*
X284000Y85500D02*
Y86500D01*
X282161Y83661D02*
X284000Y85500D01*
X277756Y83661D02*
X282161D01*
X301902Y102268D02*
X312000Y92169D01*
X301902Y102268D02*
Y108236D01*
X264500Y76000D02*
Y78249D01*
X271881Y85630D01*
X277756D01*
X271163Y87598D02*
X277756D01*
X269194Y85630D02*
X271163Y87598D01*
X258870Y85630D02*
X269194D01*
X270064Y89519D02*
X277708D01*
X277756Y89567D01*
X268143Y87598D02*
X270064Y89519D01*
X261402Y87598D02*
X268143D01*
X283465Y91535D02*
X286500Y88500D01*
X287311Y94500D02*
X289291Y92520D01*
X282500Y94500D02*
X287311D01*
X277756Y91535D02*
X283465D01*
X291512Y88500D02*
X295532Y92520D01*
X286500Y88500D02*
X291512D01*
X295532Y92520D02*
Y99415D01*
X293222Y101725D02*
X295532Y99415D01*
X284791Y101725D02*
X293222D01*
X278279Y108236D02*
X284791Y101725D01*
X301665Y108000D02*
X301902Y108236D01*
X294500Y108000D02*
X301665D01*
X338000Y71000D02*
X340469D01*
X333000Y66000D02*
X338000Y71000D01*
X332000Y66000D02*
X333000D01*
X215500Y88465D02*
X221031Y82933D01*
X189532Y28000D02*
X191289Y29757D01*
X176500Y28000D02*
X189532D01*
X172000Y23500D02*
X176500Y28000D01*
X221031Y71000D02*
X222276D01*
X190815Y25500D02*
X194000Y28685D01*
X178500Y25500D02*
X190815D01*
X175000Y22000D02*
X178500Y25500D01*
X177087Y4457D02*
X178606D01*
X175043Y6500D02*
Y9521D01*
Y6500D02*
X177087Y4457D01*
X172000Y12564D02*
X175043Y9521D01*
X172000Y12564D02*
Y23500D01*
X176378Y12134D02*
X178606D01*
X175000Y13512D02*
X176378Y12134D01*
X175000Y13512D02*
Y22000D01*
X194000Y28685D02*
Y32105D01*
X191289Y29757D02*
Y32957D01*
X207287Y45392D02*
Y71787D01*
X194000Y32105D02*
X207287Y45392D01*
X205000Y46668D02*
Y73500D01*
X191289Y32957D02*
X205000Y46668D01*
X195067Y115185D02*
X197598Y117717D01*
X195067Y104500D02*
Y115185D01*
X231166Y99650D02*
X231316Y99500D01*
X235000D01*
X240000Y94500D01*
Y90315D02*
Y94500D01*
X239252Y89567D02*
X240000Y90315D01*
X234055Y89567D02*
X239252D01*
X185606Y38168D02*
X191289Y43850D01*
X191500D01*
X200500Y46500D02*
Y67213D01*
X200630Y67343D01*
X210090Y46409D02*
X214968D01*
X210000Y46500D02*
X210090Y46409D01*
X193750Y74222D02*
X200630Y67343D01*
X193750Y74222D02*
Y95250D01*
X198000Y48181D02*
Y66067D01*
X191000Y73067D02*
X198000Y66067D01*
X191000Y73067D02*
Y105368D01*
X125000Y15000D02*
Y32500D01*
X122047Y12047D02*
X125000Y15000D01*
X122047Y7874D02*
Y12047D01*
X119500Y14894D02*
Y28500D01*
X114173Y9567D02*
X119500Y14894D01*
X114173Y7874D02*
Y9567D01*
X130500Y8453D02*
Y28500D01*
X129921Y7874D02*
X130500Y8453D01*
X260827Y56890D02*
Y63000D01*
X256890Y56890D02*
Y62890D01*
X258858Y51142D02*
X259000Y51000D01*
X258858Y51142D02*
Y56890D01*
X195067Y41750D02*
Y45146D01*
X195500Y45579D01*
X195449Y45630D02*
X195500Y45579D01*
X224500Y53051D02*
X225949D01*
X226000Y53000D01*
X195449Y45630D02*
X198000Y48181D01*
X153532Y112500D02*
X157531Y108500D01*
X187868D02*
X191000Y105368D01*
X157531Y108500D02*
X187868D01*
X242284Y106543D02*
Y112500D01*
X150000Y154500D02*
X152500Y152000D01*
X149500Y154500D02*
X150000D01*
X152500Y146031D02*
Y152000D01*
Y146031D02*
X153532Y145000D01*
X255500Y93500D02*
X261402Y87598D01*
X251000Y93500D02*
X258870Y85630D01*
X245079Y100591D02*
Y115541D01*
X242284Y106543D02*
X243110Y105716D01*
Y100591D02*
Y105716D01*
X274650Y118968D02*
X280630Y124948D01*
X248506Y118968D02*
X274650D01*
X245079Y115541D02*
X248506Y118968D01*
X272463Y121000D02*
X275630Y124167D01*
X236321Y121000D02*
X272463D01*
X228516Y113195D02*
X236321Y121000D01*
X315630Y125937D02*
X323000Y118567D01*
Y104500D02*
Y118567D01*
X328500Y74500D02*
X332583D01*
X337500Y82000D02*
Y90000D01*
X323000Y104500D02*
X337500Y90000D01*
X340437Y77000D02*
Y90563D01*
X325630Y105370D02*
X340437Y90563D01*
X341274Y93226D02*
X347886Y86614D01*
X341274Y93226D02*
Y103274D01*
X336311Y108236D02*
X341274Y103274D01*
X340181Y77000D02*
X340437D01*
X332181Y69000D02*
X340181Y77000D01*
X352319Y73819D02*
X397532D01*
X350500Y72000D02*
X352319Y73819D01*
X347532Y72000D02*
X350500D01*
X346532Y71000D02*
X347532Y72000D01*
X397532Y73819D02*
X410327Y86614D01*
X425197D01*
X325630Y105370D02*
Y125937D01*
X336311Y108236D02*
Y108236D01*
X354287Y98469D02*
X354331Y98425D01*
X345500Y98469D02*
X354287D01*
X347886Y86614D02*
X354331D01*
X211725Y101725D02*
X215500Y105500D01*
X200225Y101725D02*
X211725D01*
X193750Y95250D02*
X200225Y101725D01*
X215500Y105500D02*
Y108236D01*
Y108937D01*
X190628Y50628D02*
X193000Y53000D01*
X159469Y50628D02*
X190628D01*
X193000Y53000D02*
Y53051D01*
X192902Y61902D02*
X195000Y64000D01*
X192902Y57000D02*
Y61902D01*
X152032Y53000D02*
X188902D01*
X192902Y57000D01*
X226000Y53000D02*
X240220D01*
X221031D02*
X226000D01*
X207287Y75787D02*
X217819D01*
X205000Y73500D02*
X207287Y75787D01*
X217819D02*
X221031Y79000D01*
X217531Y73500D02*
X221031Y70000D01*
X209000Y73500D02*
X217531D01*
X207287Y71787D02*
X209000Y73500D01*
X288110Y67913D02*
X289291Y66732D01*
X277756Y67913D02*
X288110D01*
X271630Y65945D02*
X277756D01*
X281274Y63976D02*
X283587Y61663D01*
X277756Y63976D02*
X281274D01*
X222980Y118350D02*
X225630Y121000D01*
X222980Y93524D02*
Y118350D01*
X225630Y115937D02*
X235630Y125937D01*
X225630Y97000D02*
Y115937D01*
X228516Y95705D02*
Y113195D01*
Y95705D02*
X230716Y93504D01*
X225630Y79500D02*
Y85275D01*
X216153Y94752D02*
X225630Y85275D01*
X221031Y79500D02*
Y82933D01*
X210500Y88465D02*
Y93004D01*
X212248Y94752D01*
X216153D01*
X214968Y108937D02*
Y109472D01*
X221031Y70000D02*
X225538D01*
X228635Y70591D02*
X229894Y71850D01*
X228635Y67135D02*
Y70591D01*
X227500Y66000D02*
X228635Y67135D01*
X229894Y71850D02*
X234055D01*
Y65945D02*
X240000D01*
X33885Y31463D02*
X34000Y31578D01*
X26717Y31463D02*
X33885D01*
X52307Y31578D02*
X60658D01*
X142215Y45636D02*
X145968D01*
X142000Y53000D02*
X145968D01*
X141181D02*
X142000D01*
X154477Y45636D02*
X159469Y50628D01*
X152032Y45636D02*
X154477D01*
X180000Y58710D02*
X190000D01*
X298004Y52445D02*
X304413D01*
X272890Y56890D02*
X275500Y59500D01*
X271599Y51900D02*
X276589Y56890D01*
X269545Y51900D02*
X271599D01*
X268701Y52744D02*
X269545Y51900D01*
X268701Y52744D02*
Y56890D01*
X270669D02*
X272890D01*
X225630Y121000D02*
Y125937D01*
X152063Y60254D02*
X156000D01*
X152063Y67254D02*
X156000D01*
X142000Y60039D02*
X142215Y60254D01*
X146000D01*
X142000Y67254D02*
X146000D01*
X51988Y92500D02*
X59000D01*
X153543Y7874D02*
Y32957D01*
X149500Y37000D02*
X153543Y32957D01*
X262795Y90815D02*
X266732Y94752D01*
X267000Y90551D02*
Y92333D01*
X264764Y95764D02*
Y100591D01*
X263000Y94000D02*
X264764Y95764D01*
X261000Y94000D02*
X263000D01*
X267000Y92333D02*
X268701Y94033D01*
Y100591D01*
X266732Y94752D02*
Y100591D01*
X275495Y52531D02*
X291500D01*
X272963Y50000D02*
X275495Y52531D01*
X267580Y50000D02*
X272963D01*
X264764Y52816D02*
X267580Y50000D01*
X41535Y87598D02*
X47000D01*
X40551Y86614D02*
X41535Y87598D01*
X40551Y96457D02*
X42000D01*
X42543Y97000D01*
X47000D01*
X42252Y108000D02*
X47000D01*
X40551Y106299D02*
X42252Y108000D01*
X275630Y124167D02*
Y128630D01*
X280630Y124948D02*
Y125937D01*
X285067Y131500D02*
X290630Y125937D01*
X278500Y131500D02*
X285067D01*
X275630Y128630D02*
X278500Y131500D01*
X298004Y52445D02*
X298091Y52531D01*
X252953Y62953D02*
X253000Y63000D01*
X252953Y56890D02*
Y62953D01*
X153532Y112500D02*
Y138000D01*
X153532Y145000D02*
X153532Y145000D01*
Y138000D02*
Y145000D01*
X225095Y73819D02*
X234055D01*
X222276Y71000D02*
X225095Y73819D01*
X224744Y75787D02*
X234055D01*
X221031Y79500D02*
X224744Y75787D01*
X270669Y92169D02*
Y99000D01*
X235500Y105705D02*
X239079D01*
X241142Y103642D01*
Y100591D02*
Y103642D01*
X230716Y93504D02*
X234055D01*
X242988Y50961D02*
X245079Y53051D01*
X228516Y50961D02*
X242988D01*
X223965Y46409D02*
X228516Y50961D01*
X245079Y53051D02*
Y56890D01*
X221031Y46409D02*
X223965D01*
X241142Y53921D02*
Y55266D01*
X240220Y53000D02*
X241142Y53921D01*
X221031Y70472D02*
X221059Y70500D01*
X229150Y63000D02*
X230126Y63976D01*
X221614Y63000D02*
X229150D01*
X221031Y63583D02*
X221614Y63000D01*
X230126Y63976D02*
X234055D01*
X281504Y93504D02*
X282500Y94500D01*
X277756Y93504D02*
X281504D01*
X264764Y52816D02*
Y56890D01*
X262795Y51037D02*
Y56890D01*
X246953Y46260D02*
X248000Y47307D01*
Y50000D01*
X249016Y51016D01*
Y56890D01*
X251945Y47331D02*
X253016Y46260D01*
X251945Y47331D02*
Y50000D01*
X250984Y50961D02*
X251945Y50000D01*
X250984Y50961D02*
Y56890D01*
X259653Y32000D02*
X259669Y32016D01*
Y46260D01*
X253016D02*
X259669D01*
X240220D02*
X246953D01*
X240220D02*
X240441Y46039D01*
Y32000D02*
Y46039D01*
D97*
X482000Y51496D02*
X485180D01*
X487000Y49676D01*
Y29099D02*
Y49676D01*
X477000Y19099D02*
X487000Y29099D01*
X477000Y11237D02*
Y19099D01*
X475081Y9319D02*
X477000Y11237D01*
X469232Y9319D02*
X475081D01*
X452756Y7874D02*
X460630D01*
X444882D02*
X452756D01*
X378376D02*
X444882D01*
X367500Y18750D02*
X378376Y7874D01*
D98*
X226571Y19429D02*
X264429D01*
X209500Y36500D02*
X226571Y19429D01*
X290250Y41750D02*
X291500Y43000D01*
X275140Y41750D02*
X290250D01*
X270000Y36610D02*
X275140Y41750D01*
X270000Y25000D02*
Y36610D01*
X264429Y19429D02*
X270000Y25000D01*
X326000Y8000D02*
X327532Y9532D01*
X321000Y3000D02*
X323000Y5000D01*
X327532Y9532D02*
Y17000D01*
X306500Y3000D02*
X321000D01*
X302496Y7004D02*
X306500Y3000D01*
X302496Y7004D02*
Y10000D01*
X292307Y9319D02*
X301815D01*
X302496Y10000D01*
D99*
X467126Y70472D02*
D03*
X462795D02*
D03*
X458465D02*
D03*
X462795Y75984D02*
D03*
X458465D02*
D03*
X454134D02*
D03*
D100*
X456693Y103858D02*
D03*
X464567D02*
D03*
D101*
X446850D02*
D03*
X474409D02*
D03*
D102*
X485827Y90551D02*
D03*
X435433D02*
D03*
D103*
X444488Y70472D02*
D03*
Y75984D02*
D03*
X476772D02*
D03*
Y70472D02*
D03*
X471850Y75984D02*
D03*
Y70472D02*
D03*
X449409D02*
D03*
Y75984D02*
D03*
D104*
X103000Y29000D02*
D03*
Y49000D02*
D03*
X235630Y125937D02*
D03*
X225630D02*
D03*
X165453Y87598D02*
D03*
X260630Y125937D02*
D03*
X270630D02*
D03*
X280630D02*
D03*
X290630D02*
D03*
X325630D02*
D03*
X315630D02*
D03*
X200630D02*
D03*
X190630D02*
D03*
D105*
X245630D02*
D03*
X300630D02*
D03*
X335630D02*
D03*
X210630D02*
D03*
D106*
X240441Y32000D02*
D03*
X259653D02*
D03*
D107*
X165354Y116962D02*
D03*
D108*
X122047Y7874D02*
D03*
X106299D02*
D03*
X114173D02*
D03*
X129921D02*
D03*
X137795D02*
D03*
X145669D02*
D03*
X153543D02*
D03*
X98425D02*
D03*
X90551D02*
D03*
X59055D02*
D03*
X51181D02*
D03*
X444882D02*
D03*
X66929D02*
D03*
X452756D02*
D03*
X460630D02*
D03*
D109*
X213968Y152310D02*
D03*
X224732D02*
D03*
X342520Y143000D02*
D03*
X343000Y151385D02*
D03*
X437008Y150885D02*
D03*
X452713Y149606D02*
D03*
X467612Y150885D02*
D03*
X255500Y12000D02*
D03*
X244094Y11811D02*
D03*
X264902Y12000D02*
D03*
X225661Y32500D02*
D03*
X250256Y27559D02*
D03*
Y36500D02*
D03*
X115968Y53000D02*
D03*
X92746Y47539D02*
D03*
X84395Y52816D02*
D03*
X39370Y63390D02*
D03*
X26417Y62890D02*
D03*
X90500Y70866D02*
D03*
X100803Y78000D02*
D03*
X31496Y12481D02*
D03*
X39870Y16472D02*
D03*
X39370Y8537D02*
D03*
X19343Y27007D02*
D03*
X6595D02*
D03*
X278637Y140500D02*
D03*
X299500D02*
D03*
X314345D02*
D03*
X362000Y110395D02*
D03*
X410240Y99650D02*
D03*
X405512Y73476D02*
D03*
X411137Y78366D02*
D03*
Y70000D02*
D03*
X360500Y9000D02*
D03*
X351500D02*
D03*
X505216Y26500D02*
D03*
X495863Y26374D02*
D03*
X450289Y95368D02*
D03*
X467126Y89393D02*
D03*
X450289Y89567D02*
D03*
X389472Y83855D02*
D03*
X385827Y90842D02*
D03*
X393701Y91051D02*
D03*
X370079Y85735D02*
D03*
Y92169D02*
D03*
X158500Y99650D02*
D03*
X169000Y99742D02*
D03*
X70866Y94598D02*
D03*
X83895Y96469D02*
D03*
X91000Y105717D02*
D03*
X76318Y105626D02*
D03*
X39370Y133858D02*
D03*
X47244Y144200D02*
D03*
X35433Y144052D02*
D03*
X308770Y34000D02*
D03*
X433000Y103842D02*
D03*
X361000Y122047D02*
D03*
X432425Y123572D02*
D03*
X451000Y131645D02*
D03*
X454000Y136000D02*
D03*
X362500Y97000D02*
D03*
X413500Y107500D02*
D03*
X416000Y111000D02*
D03*
X362000Y92500D02*
D03*
X456500Y56558D02*
D03*
X463301D02*
D03*
Y60584D02*
D03*
X460000Y58776D02*
D03*
X456500Y60632D02*
D03*
X353500Y49500D02*
D03*
X349000D02*
D03*
X351000Y52816D02*
D03*
X346500D02*
D03*
X478000Y48500D02*
D03*
X483500D02*
D03*
X482000Y51496D02*
D03*
X473504Y48610D02*
D03*
X476772Y51763D02*
D03*
X487000Y9319D02*
D03*
Y14000D02*
D03*
Y18189D02*
D03*
X442000Y21621D02*
D03*
Y17500D02*
D03*
X432500D02*
D03*
X437475D02*
D03*
X469949Y24000D02*
D03*
X427000Y23132D02*
D03*
X488500Y106000D02*
D03*
X491000Y110000D02*
D03*
X379500Y42128D02*
D03*
X387500D02*
D03*
X383500D02*
D03*
X306341Y57390D02*
D03*
X317823Y47500D02*
D03*
X318000Y51037D02*
D03*
X318020Y54500D02*
D03*
X350000Y16472D02*
D03*
X346004D02*
D03*
X285574Y83266D02*
D03*
X284000Y86500D02*
D03*
X138500Y150000D02*
D03*
X321067Y140500D02*
D03*
X312000Y92169D02*
D03*
X264500Y76000D02*
D03*
X254000Y69500D02*
D03*
X205000Y36500D02*
D03*
X183000Y46039D02*
D03*
X209500Y36500D02*
D03*
X298000Y43000D02*
D03*
X291500D02*
D03*
X274000Y46260D02*
D03*
X314000Y134500D02*
D03*
X310000D02*
D03*
X306500D02*
D03*
X294500Y108000D02*
D03*
X326000Y8000D02*
D03*
X323000Y5000D02*
D03*
X310000Y9000D02*
D03*
Y12000D02*
D03*
X301038Y22996D02*
D03*
X298000D02*
D03*
X309004Y46500D02*
D03*
X332000Y66000D02*
D03*
X432500Y98500D02*
D03*
X432531Y127953D02*
D03*
X169000Y13000D02*
D03*
X195000Y14000D02*
D03*
X184000Y6500D02*
D03*
Y10259D02*
D03*
X195067Y104500D02*
D03*
X231166Y99650D02*
D03*
X191500Y43850D02*
D03*
X200500Y46500D02*
D03*
X210000D02*
D03*
X186000Y43500D02*
D03*
X200500Y73819D02*
D03*
X162000Y30000D02*
D03*
X119500Y28500D02*
D03*
X125000Y32500D02*
D03*
X130500Y28500D02*
D03*
X260827Y63000D02*
D03*
X256890Y62890D02*
D03*
X259000Y51000D02*
D03*
X195067Y41750D02*
D03*
X255500Y50961D02*
D03*
X224500Y53051D02*
D03*
X231000Y46260D02*
D03*
X235740Y102500D02*
D03*
X242284Y112500D02*
D03*
X183500Y105626D02*
D03*
X149500Y154500D02*
D03*
X163500D02*
D03*
X251000Y93500D02*
D03*
X255500D02*
D03*
X257500Y110000D02*
D03*
X260500Y112000D02*
D03*
X265000Y111850D02*
D03*
X269500Y107500D02*
D03*
Y111850D02*
D03*
X254500Y112000D02*
D03*
X252000Y109472D02*
D03*
X317019Y115981D02*
D03*
X317000Y120000D02*
D03*
X158000Y115392D02*
D03*
X328500Y63000D02*
D03*
Y74500D02*
D03*
X337500Y82000D02*
D03*
X361000Y82500D02*
D03*
X328500Y84500D02*
D03*
Y89567D02*
D03*
X210500Y114122D02*
D03*
X193000Y53051D02*
D03*
X195000Y64000D02*
D03*
X209968Y55345D02*
D03*
X285000Y65000D02*
D03*
X271630Y65945D02*
D03*
X225630Y97000D02*
D03*
X222980Y93524D02*
D03*
X225630Y79500D02*
D03*
X225538Y70000D02*
D03*
X227500Y66000D02*
D03*
X240000Y65945D02*
D03*
X289469Y96469D02*
D03*
X34000Y31578D02*
D03*
X60658D02*
D03*
X142215Y45636D02*
D03*
X142000Y53000D02*
D03*
X190000Y58710D02*
D03*
X165354Y150000D02*
D03*
X156000Y60254D02*
D03*
Y67254D02*
D03*
X142000Y60039D02*
D03*
Y67254D02*
D03*
X59000Y92500D02*
D03*
X149500Y37000D02*
D03*
X262795Y90815D02*
D03*
X267000Y90551D02*
D03*
X261000Y94000D02*
D03*
X47000Y87598D02*
D03*
X47000Y97000D02*
D03*
Y108000D02*
D03*
X130500Y106500D02*
D03*
X123000D02*
D03*
X120500Y72500D02*
D03*
Y82500D02*
D03*
Y122500D02*
D03*
X253000Y63000D02*
D03*
X147468Y132500D02*
D03*
X210500Y79500D02*
D03*
X210630Y70000D02*
D03*
X270669Y92169D02*
D03*
X238232Y114768D02*
D03*
X21654Y124500D02*
D03*
X221000Y59500D02*
D03*
X295532Y78000D02*
D03*
X300000Y66732D02*
D03*
X214968Y59500D02*
D03*
X262795Y51037D02*
D03*
X270000Y46260D02*
D03*
X499239Y119245D02*
D03*
X498694Y66929D02*
D03*
M02*
